<?xml version="1.0" encoding="UTF-8" standalone="no"?>
<svg
   xmlns:dc="http://purl.org/dc/elements/1.1/"
   xmlns:cc="http://creativecommons.org/ns#"
   xmlns:rdf="http://www.w3.org/1999/02/22-rdf-syntax-ns#"
   xmlns:svg="http://www.w3.org/2000/svg"
   xmlns="http://www.w3.org/2000/svg"
   xmlns:sodipodi="http://sodipodi.sourceforge.net/DTD/sodipodi-0.dtd"
   xmlns:inkscape="http://www.inkscape.org/namespaces/inkscape"
   sodipodi:docname="leer3.svg"
   inkscape:version="1.0 (4035a4f, 2020-05-01)"
   id="svg1762"
   version="1.1"
   viewBox="0 0 23.375774 80.281067"
   height="80.281067mm"
   width="23.375774mm">
  <defs
     id="defs1756">
    <clipPath
       clipPathUnits="userSpaceOnUse"
       id="clipPath74">
      <path
         d="m 6184.24,2531.29 c 0,0 -89.35,-102.1 -102.1,-109.55 -12.77,-7.44 -79.78,3.19 -79.78,3.19 l -27.65,119.12 c 0,0 -25.52,-151.02 -25.52,-168.04 0,-17.03 -60.63,-559.46 -64.88,-636.04 -4.26,-76.57 -46.8,-391.4 -46.8,-421.18 0,-29.78 80.83,-102.1 140.39,-119.12 l 97.85,663.68 38.29,506.27 z"
         id="path72" />
    </clipPath>
    <clipPath
       clipPathUnits="userSpaceOnUse"
       id="clipPath104">
      <path
         d="m 6033.21,2410.04 c 0,0 -65.94,-772.17 -72.32,-844.49 -6.39,-72.33 -25.53,-350.99 -25.53,-350.99 0,0 74.45,-55.31 214.84,-55.31 140.4,0 274.41,87.22 274.41,87.22 0,0 -38.29,321.21 -46.8,427.56 -8.5,106.36 -85.09,397.79 -106.36,474.37 -21.27,76.57 -14.89,195.7 -12.76,214.84 2.13,19.14 -34.03,116.99 -34.03,116.99 l -41.52,42.8 -79.93,-98.06 c -6.64,-8.13 -16.46,-13.02 -26.95,-13.39 z"
         id="path102" />
    </clipPath>
    <clipPath
       clipPathUnits="userSpaceOnUse"
       id="clipPath148">
      <path
         d="m 6405.47,2416.43 c 0,0 -40.42,-36.17 -80.83,-59.56 -40.42,-23.41 -89.35,-34.05 -102.11,-29.79 -12.76,4.26 -23.4,29.79 -25.53,63.82 -2.13,34.03 -19.14,131.88 -21.27,165.92 -2.13,34.03 12.77,70.19 55.3,76.57 42.55,6.39 61.69,-10.63 89.35,-51.05 27.66,-40.41 87.22,-155.28 85.09,-165.91 z"
         id="path146" />
    </clipPath>
  </defs>
  <sodipodi:namedview
     inkscape:window-maximized="0"
     inkscape:window-y="123"
     inkscape:window-x="0"
     inkscape:window-height="755"
     inkscape:window-width="1252"
     showgrid="false"
     inkscape:document-rotation="0"
     inkscape:current-layer="layer1"
     inkscape:document-units="mm"
     inkscape:cy="151.71228"
     inkscape:cx="44.1747"
     inkscape:zoom="0.35"
     inkscape:pageshadow="2"
     inkscape:pageopacity="0.0"
     borderopacity="1.0"
     bordercolor="#666666"
     pagecolor="#ffffff"
     id="base" />
  <metadata
     id="metadata1759">
    <rdf:RDF>
      <cc:Work
         rdf:about="">
        <dc:format>image/svg+xml</dc:format>
        <dc:type
           rdf:resource="http://purl.org/dc/dcmitype/StillImage" />
        <dc:title></dc:title>
      </cc:Work>
    </rdf:RDF>
  </metadata>
  <g
     transform="translate(-94.145444,-108.02613)"
     id="layer1"
     inkscape:groupmode="layer"
     inkscape:label="Layer 1">
    <path
       id="path24"
       style="fill:#8e5f3f;fill-opacity:1;fill-rule:nonzero;stroke:none;stroke-width:0.0352777"
       d="m 98.835625,132.90633 c 0,0 1.876075,3.22651 1.950865,3.45193 0.0751,0.22507 -0.60008,5.328 -0.60008,5.328 0,0 -2.401357,-3.302 -3.001785,-5.55342 -0.600428,-2.25073 -0.825147,-4.5773 -0.825147,-4.5773 l 1.050219,-0.52528 1.425928,1.87607" />
    <path
       id="path26"
       style="fill:#332116;fill-opacity:1;fill-rule:nonzero;stroke:none;stroke-width:0.0352777"
       d="m 99.098091,114.93371 c 0,0 -0.450144,1.80093 -0.712611,2.40136 -0.262466,0.60008 -0.150283,1.08797 0.299861,1.72579 0.450498,0.63818 0.337962,0.56303 -0.03739,1.38818 -0.375355,0.8255 -0.03739,2.4765 0.750711,3.37714 0.787748,0.90029 0.562681,1.46332 1.575858,0.90029 1.01317,-0.56268 3.75179,-1.16275 3.75179,-1.27564 0,-0.11254 0.30056,-2.47615 0.26282,-2.58904 -0.0374,-0.11218 -5.891035,-5.92808 -5.891035,-5.92808" />
    <path
       id="path28"
       style="fill:#8e5f3f;fill-opacity:1;fill-rule:nonzero;stroke:none;stroke-width:0.0352777"
       d="m 112.6437,172.07842 c 0,0 -0.41275,5.40314 -0.8255,7.69204 -0.41275,2.28875 -0.52529,3.67728 -0.37536,3.97714 0.14993,0.30029 0.11254,1.08836 0.11254,1.08836 l -0.93804,1.35036 c 0,0 -3.03918,1.35075 -3.45193,1.3885 -0.4131,0.0375 -1.76353,-0.0377 -1.76353,-0.0377 l -0.63782,-1.08797 c 0,0 2.55128,-1.9885 3.18946,-2.66376 0.63747,-0.67521 0.90064,-0.97578 0.90064,-2.02639 0,-1.0505 -0.75071,-6.49107 -0.75071,-8.92982 l 4.54025,-0.75071" />
    <path
       id="path30"
       style="fill:#8e5f3f;fill-opacity:1;fill-rule:nonzero;stroke:none;stroke-width:0.0352777"
       d="m 104.95173,173.31702 c 0,0 -0.33796,3.75215 -0.45014,5.02779 -0.11289,1.27565 -0.30057,2.43875 -0.22543,3.00182 0.0751,0.56226 0.15029,1.65062 0.15029,1.65062 l -0.97579,1.42585 -0.8255,0.75036 c 0,0 -2.401,0.93804 -3.226502,1.01286 -0.8255,0.0753 -1.501069,-1.05022 -1.501069,-1.05022 0,0 2.138541,-1.87646 2.664181,-2.25143 0.52528,-0.37539 1.12536,-1.16307 1.1631,-1.98864 0.0374,-0.82546 -1.12571,-6.49104 -1.1631,-9.08008 l 0.3376,-0.60042 4.05236,2.10149" />
    <path
       id="path32"
       style="fill:#332116;fill-opacity:1;fill-rule:nonzero;stroke:none;stroke-width:0.0352777"
       d="m 111.40545,183.54116 c 0,0 0.33761,0.0561 0.43145,0.41285 0.0935,0.35666 0.0935,1.46364 0.0187,1.6884 -0.0751,0.22542 -1.05058,0.91969 -2.21368,0.99437 0,0 0.95673,-1.42557 1.33173,-2.00723 0.37536,-0.58166 0.41275,-0.82547 0.4318,-1.08839" />
    <path
       id="path34"
       style="fill:#332116;fill-opacity:1;fill-rule:nonzero;stroke:none;stroke-width:0.0352777"
       d="m 107.84063,187.34978 c 0,0 -1.18181,0.20645 -1.89477,-0.16866 -0.71261,-0.37564 -0.91899,-0.95705 -0.91899,-0.95705 l 0.16863,-0.14993 c 0,0 -0.52528,0.18743 -1.01318,0.45021 -0.48753,0.26236 -0.8068,0.69423 -0.43144,1.05047 0.37535,0.35676 0.8068,0.7505 2.02635,0.73173 1.2192,-0.0187 3.86468,-1.66977 3.86468,-1.66977 0,0 -1.70744,0.713 -1.80128,0.713" />
    <path
       id="path36"
       style="fill:#332116;fill-opacity:1;fill-rule:nonzero;stroke:none;stroke-width:0.0352777"
       d="m 102.62516,185.17346 c 0,0 0.89147,-1.57621 1.20086,-2.19523 0.30974,-0.61888 0.45014,-0.87214 0.45014,-1.15369 0,0 0.22543,0.0844 0.33761,0.36587 0.11254,0.28155 0.39405,1.6323 0.16898,1.88556 -0.22507,0.25329 -1.40723,0.87217 -1.71661,1.04112 -0.30974,0.16894 -0.44098,0.0564 -0.44098,0.0564" />
    <path
       id="path38"
       style="fill:#332116;fill-opacity:1;fill-rule:nonzero;stroke:none;stroke-width:0.0352777"
       d="m 101.88433,185.51107 c 0,0 -2.110669,0.90068 -2.589036,1.04112 -0.478366,0.14111 -1.378655,0.22542 -1.801283,-0.11219 -0.421922,-0.33803 -0.478014,-0.73173 -0.281164,-0.95705 0.19685,-0.22518 1.097492,-0.75956 1.097492,-0.75956 0,0 -0.05609,0.81594 0.731661,1.04111 0.787752,0.22529 3.58316,-0.59104 3.58316,-0.59104 0,0 -0.60007,0.33761 -0.74083,0.33761" />
    <path
       id="path40"
       style="fill:#7c5036;fill-opacity:1;fill-rule:nonzero;stroke:none;stroke-width:0.0352777"
       d="m 110.80502,123.09452 -1.18216,-2.87055 -1.12536,-0.90029 -0.84455,-0.50659 -4.38961,1.51977 c 0,0 0.73131,1.76353 0.67522,1.98861 -0.0561,0.22507 -1.46368,0.0748 -1.46368,0.0748 l -0.67522,1.9886 -0.78775,4.72793 1.96991,3.3207 2.98274,-0.67557 4.38996,-6.24734 0.4505,-2.42006" />
    <path
       id="path42"
       style="fill:#8e5f3f;fill-opacity:1;fill-rule:nonzero;stroke:none;stroke-width:0.0352777"
       d="m 105.77723,119.88636 c 0,0 -1.10701,0.4505 -1.91382,0.63782 -0.71402,0.16616 -1.22872,0.26282 -1.64147,0.0378 -0.41275,-0.22507 -1.54764,-1.80128 -1.92264,-2.32622 -0.375709,-0.52564 -0.675923,-2.02635 -0.675923,-2.4391 0,-0.41275 -0.262466,-1.87607 -0.262466,-1.87607 l 2.438749,-1.83868 4.20265,-0.0374 0.97543,1.20086 1.80128,1.16311 -1.06962,4.18359 c 0,0 -1.44428,0.99413 -1.93217,1.29434" />
    <path
       id="path44"
       style="fill:#332116;fill-opacity:1;fill-rule:nonzero;stroke:none;stroke-width:0.0352777"
       d="m 106.45245,115.19618 c 0,0 0.63782,-1.16311 1.16311,-1.16311 0.52528,0 0.67557,0.48789 0.33796,0.97579 -0.33796,0.48753 -1.05093,0.93768 -1.08832,1.16275 -0.0378,0.22543 -1.01283,2.32657 -0.67522,2.88925 0.33761,0.56303 0.97543,0.33761 1.46297,0.67557 0.48789,0.33761 0.33796,0.67522 0.33796,0.67522 0,0 -1.57621,1.05092 -0.90064,1.76353 0.67557,0.71297 0.78811,0.18768 1.31339,-0.0374 0.52494,-0.22542 0.90065,-0.11253 1.57586,0.26247 0.67522,0.37535 1.53811,-0.33761 1.95086,-0.14993 0.41275,0.18768 0.8255,0.78775 0.8255,0.78775 0,0 0.8629,-0.0748 1.50107,-1.05057 0.63782,-0.97543 0.48789,-1.76354 0.0374,-2.0634 -0.45014,-0.30021 -0.71261,-0.41275 -0.63782,-0.75071 0.0751,-0.33761 0.48789,-1.80093 -0.86289,-2.40136 -1.35079,-0.60043 -1.83833,-0.29986 -1.83833,-0.29986 0,0 0.45015,-1.38853 -0.52564,-2.1015 -0.97543,-0.71296 -1.16311,0 -1.08832,-1.08796 0.0751,-1.08797 -0.14957,-2.32622 -1.27564,-3.07693 -1.12536,-0.75036 -2.25107,-0.97543 -2.25107,-0.97543 0,0 -1.38818,-0.15029 -2.25143,-0.60008 -0.86289,-0.4505 -0.97543,-0.82585 -1.53811,-0.4505 -0.56303,0.37536 -0.45015,1.38818 -0.67557,1.50107 -0.22507,0.11219 -1.01318,-0.11289 -1.800931,0.37501 -0.788106,0.48789 -1.163109,1.2005 -1.463323,1.61325 -0.300213,0.41275 0.07514,1.68839 0.450145,1.76353 0,0 -0.412397,1.53847 0.262819,1.6884 0.675217,0.15028 0.712611,-0.22507 0.712611,-0.22507 0,0 0.450498,0.0751 0.788459,0.15028 0.33761,0.0748 0.82515,0.14993 1.2379,-0.78811 0,0 0.26246,0.71297 1.68839,0.71297 1.42558,0 1.72614,-0.30022 1.98861,-0.67522 0.26247,-0.37535 0.41275,-0.4505 0.56303,-0.18768 0.14993,0.26247 -0.0751,1.16311 0.11219,1.23825 0.18767,0.0752 0.60042,-0.0377 0.56303,-0.15028" />
    <path
       id="path46"
       style="fill:#7c5036;fill-opacity:1;fill-rule:nonzero;stroke:none;stroke-width:0.0352777"
       d="m 106.99643,115.34646 c 0,0 0.28152,-0.8255 0.54434,-0.8255 0.26247,0 0.28116,0.26247 0.13123,0.41275 -0.15028,0.14993 -0.52528,0.52529 -0.67557,0.41275" />
    <path
       id="path48"
       style="fill:#332116;fill-opacity:1;fill-rule:nonzero;stroke:none;stroke-width:0.0352777"
       d="m 102.63751,116.01709 c 0,0.18204 0.14781,0.32985 0.3302,0.32985 0.18239,0 0.32985,-0.14781 0.32985,-0.32985 0,-0.18238 -0.14746,-0.32984 -0.32985,-0.32984 -0.18239,0 -0.3302,0.14746 -0.3302,0.32984" />
    <path
       id="path50"
       style="fill:#332116;fill-opacity:1;fill-rule:nonzero;stroke:none;stroke-width:0.0352777"
       d="m 99.747555,116.33601 c 0,0.14146 0.114653,0.25576 0.256115,0.25576 0.14111,0 0.25577,-0.1143 0.25577,-0.25576 0,-0.14147 -0.11466,-0.25612 -0.25577,-0.25612 -0.141462,0 -0.256115,0.11465 -0.256115,0.25612" />
    <path
       id="path52"
       style="fill:#332116;fill-opacity:1;fill-rule:nonzero;stroke:none;stroke-width:0.0352777"
       d="m 103.82602,115.35564 c 0,0 -1.12571,-0.11254 -1.57586,-0.0843 -0.4505,0.0282 -0.4505,-0.67521 -0.25329,-0.7881 0.1972,-0.11254 1.74448,0.0282 1.91346,0.36583 0.16863,0.33761 0.0282,0.56303 -0.0843,0.50659" />
    <path
       id="path54"
       style="fill:#332116;fill-opacity:1;fill-rule:nonzero;stroke:none;stroke-width:0.0352777"
       d="m 99.632902,115.91867 c 0,0 0.309739,-0.0847 0.591258,-0.28152 0.28116,-0.19685 0.11218,-1.04104 -0.1972,-0.98495 -0.309744,0.0564 -0.844555,0.47836 -0.787757,0.70344 0.05609,0.22542 0.36583,0.56303 0.393699,0.56303" />
    <path
       id="path56"
       style="fill:#65432d;fill-opacity:1;fill-rule:nonzero;stroke:none;stroke-width:0.0352777"
       d="m 101.65926,117.89422 c -0.32209,0.0325 -0.59655,0.0536 -0.76553,-0.01 -0.16863,-0.0631 0.11818,-1.6002 0.11818,-1.6002 0,0 0.27517,-0.21554 0.53234,-0.0187 l 0.18133,1.42205 c 0,0 0.0303,0.19685 -0.0663,0.20637" />
    <path
       id="path58"
       style="fill:#ffffff;fill-opacity:1;fill-rule:nonzero;stroke:none;stroke-width:0.0352777"
       d="m 101.46206,118.89223 c 0,0 0.8068,-0.0564 1.33208,-0.37535 0.52529,-0.31891 0.69427,-0.56268 0.69427,-0.56268 0,0 -0.16898,1.03187 -0.75036,1.27564 -0.58173,0.24377 -1.05092,-0.0378 -1.27599,-0.33761" />
    <path
       id="path60"
       style="fill:#9d4f47;fill-opacity:1;fill-rule:nonzero;stroke:none;stroke-width:0.0352777"
       d="m 104.08884,116.3032 c 0,0 -0.73202,0.13123 -0.88195,0.46884 -0.14993,0.33796 0.20638,0.75071 0.67557,0.54433 0.46885,-0.20637 0.52494,-0.18767 0.8629,-0.30021 0.33761,-0.11254 0.41275,-0.4505 0.0187,-0.60043 -0.3937,-0.14993 -0.54399,-0.11253 -0.67522,-0.11253" />
    <path
       id="path62"
       style="fill:#9d4f47;fill-opacity:1;fill-rule:nonzero;stroke:none;stroke-width:0.0352777"
       d="m 99.754964,116.90362 c 0,0 0.243769,-0.0938 0.431446,0.26247 0.18733,0.35666 0.16898,0.69427 -0.0751,0.71297 0,0 -0.33761,-0.52529 -0.356307,-0.97544" />
    <path
       id="path64"
       style="fill:#d4786b;fill-opacity:1;fill-rule:nonzero;stroke:none;stroke-width:0.0352777"
       d="m 103.00052,122.438 c 0,0 -0.26247,-0.71296 -1.57586,-0.67557 -1.31339,0.0378 -4.352571,5.59082 -4.427713,5.81554 -0.07514,0.22543 3.152073,2.85186 3.152073,2.85186 l 1.68839,-1.95121 1.16311,-6.04062" />
    <path
       id="path66"
       style="fill:#d4786b;fill-opacity:1;fill-rule:nonzero;stroke:none;stroke-width:0.0352777"
       d="m 109.04149,125.70225 c 0,0 -3.15207,3.60187 -3.60187,3.86469 -0.45049,0.26246 -2.81446,-0.11254 -2.81446,-0.11254 l -0.97543,-4.20229 c 0,0 -0.90029,5.32765 -0.90029,5.92808 0,0.60078 -2.138887,19.7365 -2.288818,22.43807 -0.150283,2.70123 -1.651,13.80773 -1.651,14.8583 0,1.05057 2.851503,3.60186 4.952648,4.20229 l 3.45193,-23.41316 1.35079,-17.86008 2.4765,-5.70336" />
    <g
       id="g68"
       transform="matrix(0.03527778,0,0,-0.03527778,-109.12476,215.00054)">
      <g
         clip-path="url(#clipPath74)"
         id="g70">
        <path
           id="path76"
           style="fill:#975850;fill-opacity:1;fill-rule:nonzero;stroke:none"
           d="m 5990.29,1998.39 c -16.48,0 -46.55,5.3 -96.67,30.36 -3.82,1.91 -5.37,6.54 -3.45,10.35 1.9,3.82 6.54,5.35 10.35,3.46 74.36,-37.17 99.44,-27.64 99.71,-27.53 3.85,1.6 8.36,-0.11 10.09,-3.88 1.73,-3.78 0.28,-8.19 -3.45,-10.05 -1.14,-0.57 -6.13,-2.71 -16.58,-2.71" />
        <path
           id="path78"
           style="fill:#efc2bc;fill-opacity:1;fill-rule:nonzero;stroke:none"
           d="m 6007.69,2028.38 c -0.12,0 -0.23,0 -0.35,0.01 -2.68,0.17 -66.28,4.95 -118.08,54.6 -2.05,1.96 -2.12,5.22 -0.16,7.27 1.96,2.04 5.23,2.13 7.28,0.16 49.13,-47.08 111.02,-51.72 111.65,-51.76 2.83,-0.19 4.98,-2.64 4.78,-5.48 -0.17,-2.72 -2.44,-4.8 -5.12,-4.8" />
        <path
           id="path80"
           style="fill:#975850;fill-opacity:1;fill-rule:nonzero;stroke:none"
           d="m 5988.14,1779.02 c -12.98,0 -67.58,1.97 -114.5,33.24 -3.55,2.36 -4.5,7.15 -2.14,10.71 2.37,3.54 7.15,4.49 10.71,2.14 48.39,-32.28 107.56,-30.72 108.19,-30.62 4.53,-0.01 7.82,-3.21 7.99,-7.46 0.13,-4.26 -3.21,-7.83 -7.46,-7.98 -0.28,0 -1.24,-0.03 -2.79,-0.03" />
        <path
           id="path82"
           style="fill:#efc2bc;fill-opacity:1;fill-rule:nonzero;stroke:none"
           d="m 5980.1,1821.88 c -17.89,0 -67.83,3.12 -105.53,35.43 -2.16,1.86 -2.41,5.11 -0.56,7.27 1.86,2.15 5.12,2.41 7.26,0.56 42.58,-36.5 104.16,-32.88 104.8,-32.82 2.81,0.23 5.29,-1.95 5.48,-4.79 0.19,-2.83 -1.96,-5.29 -4.79,-5.48 -0.48,-0.03 -2.84,-0.17 -6.66,-0.17" />
        <path
           id="path84"
           style="fill:#975850;fill-opacity:1;fill-rule:nonzero;stroke:none"
           d="m 5969.39,1606.76 c -0.07,0 -0.16,0 -0.26,0 -2.62,0.09 -64.74,2.63 -112.95,39.89 -3.37,2.61 -3.99,7.45 -1.39,10.83 2.62,3.35 7.46,3.99 10.83,1.39 44.19,-34.14 103.45,-36.65 104.05,-36.67 4.26,-0.17 7.59,-3.73 7.44,-8 -0.15,-4.17 -3.58,-7.44 -7.72,-7.44" />
        <path
           id="path86"
           style="fill:#efc2bc;fill-opacity:1;fill-rule:nonzero;stroke:none"
           d="m 5986.43,1647.62 c -0.29,0 -0.58,0.02 -0.86,0.07 -3.18,0.52 -78.32,13.34 -121.37,45.61 -2.27,1.71 -2.74,4.94 -1.04,7.21 1.72,2.27 4.95,2.73 7.21,1.03 41.04,-30.76 116.13,-43.57 116.89,-43.71 2.8,-0.47 4.7,-3.11 4.22,-5.92 -0.42,-2.52 -2.59,-4.29 -5.05,-4.29" />
        <path
           id="path88"
           style="fill:#975850;fill-opacity:1;fill-rule:nonzero;stroke:none"
           d="m 5956.64,1387.66 c -0.38,0 -0.77,0.03 -1.16,0.08 -4.09,0.63 -100.4,15.56 -137.77,46.34 -3.29,2.72 -3.76,7.58 -1.05,10.86 2.71,3.32 7.59,3.77 10.87,1.06 34.09,-28.08 129.31,-42.85 130.26,-43 4.22,-0.65 7.11,-4.57 6.47,-8.79 -0.58,-3.82 -3.87,-6.55 -7.62,-6.55" />
        <path
           id="path90"
           style="fill:#efc2bc;fill-opacity:1;fill-rule:nonzero;stroke:none"
           d="m 5960.89,1426.39 c -0.31,0 -0.63,0.03 -0.95,0.09 -3.79,0.71 -93.21,17.59 -125.8,45.83 -2.15,1.86 -2.38,5.12 -0.53,7.26 1.88,2.15 5.12,2.38 7.26,0.52 30.51,-26.43 120.06,-43.33 120.96,-43.5 2.79,-0.52 4.63,-3.2 4.11,-5.99 -0.45,-2.48 -2.62,-4.21 -5.05,-4.21" />
        <path
           id="path92"
           style="fill:#975850;fill-opacity:1;fill-rule:nonzero;stroke:none"
           d="m 6023.62,2185.96 c -0.41,0 -0.82,0.03 -1.24,0.09 -3.43,0.56 -84.07,14.17 -111.23,71.22 -1.84,3.84 -0.2,8.44 3.64,10.27 3.86,1.85 8.47,0.2 10.29,-3.64 23.66,-49.68 99,-62.48 99.76,-62.6 4.21,-0.68 7.07,-4.65 6.39,-8.86 -0.62,-3.79 -3.89,-6.48 -7.61,-6.48" />
        <path
           id="path94"
           style="fill:#efc2bc;fill-opacity:1;fill-rule:nonzero;stroke:none"
           d="m 6028.76,2211.69 c -0.64,0 -1.27,0.11 -1.9,0.36 -3.53,1.4 -87.03,34.66 -105.69,74.65 -1.21,2.59 -0.09,5.64 2.48,6.84 2.6,1.22 5.65,0.1 6.85,-2.48 16.94,-36.32 99.31,-69.11 100.14,-69.44 2.65,-1.03 3.95,-4.03 2.9,-6.68 -0.8,-2.01 -2.73,-3.25 -4.78,-3.25" />
      </g>
    </g>
    <path
       id="path96"
       style="fill:#eb8c7a;fill-opacity:1;fill-rule:nonzero;stroke:none;stroke-width:0.0352777"
       d="m 103.71348,129.97969 c 0,0 -2.32621,27.24044 -2.55129,29.79172 -0.22542,2.55165 -0.90064,12.38215 -0.90064,12.38215 0,0 2.62643,1.95121 7.57908,1.95121 4.953,0 9.68057,-3.07692 9.68057,-3.07692 0,0 -1.35078,-11.33158 -1.651,-15.08337 -0.29986,-3.75214 -3.00178,-14.03314 -3.75214,-16.73472 -0.75036,-2.70122 -0.52529,-6.90386 -0.45014,-7.57907 0.0751,-0.67522 -1.20051,-4.12715 -1.20051,-4.12715 l -1.46473,-1.50989 -2.81975,3.45934 c -0.23425,0.28681 -0.58067,0.45931 -0.95074,0.47237 l -1.51871,0.0543" />
    <g
       id="g98"
       transform="matrix(0.03527778,0,0,-0.03527778,-109.12476,215.00054)">
      <g
         clip-path="url(#clipPath104)"
         id="g100">
        <path
           id="path106"
           style="fill:#975850;fill-opacity:1;fill-rule:nonzero;stroke:none"
           d="m 6130.78,1401.23 c -60.15,0 -125.41,3.26 -192.17,12.01 -4.23,0.56 -7.2,4.43 -6.65,8.65 0.55,4.24 4.38,7.31 8.66,6.66 255.16,-33.47 488.59,14.31 490.92,14.8 4.18,0.83 8.26,-1.82 9.14,-5.99 0.86,-4.17 -1.81,-8.26 -5.98,-9.13 -1.74,-0.36 -131.78,-27 -303.92,-27" />
        <path
           id="path108"
           style="fill:#efc2bc;fill-opacity:1;fill-rule:nonzero;stroke:none"
           d="m 6014.18,1448.03 c -30.54,0 -61.38,1.19 -92.03,3.9 -2.83,0.25 -4.93,2.75 -4.68,5.58 0.25,2.83 2.94,4.91 5.58,4.67 223.76,-19.79 458.53,42.21 503.33,54.83 l 1.1,0.31 c 2.75,0.81 5.59,-0.84 6.35,-3.57 0.76,-2.73 -0.84,-5.58 -3.58,-6.34 l -1.08,-0.3 c -38.97,-10.99 -220.8,-59.08 -414.99,-59.08" />
        <path
           id="path110"
           style="fill:#975850;fill-opacity:1;fill-rule:nonzero;stroke:none"
           d="m 6057.27,1596.26 c -37.48,0 -76.91,1.87 -117.79,6.28 -4.23,0.46 -7.29,4.27 -6.84,8.51 0.46,4.23 4.34,7.34 8.51,6.84 250.7,-27.11 447.66,43.54 449.63,44.25 3.99,1.45 8.43,-0.6 9.89,-4.6 1.48,-3.99 -0.58,-8.43 -4.59,-9.89 -1.67,-0.62 -142.97,-51.39 -338.81,-51.39" />
        <path
           id="path112"
           style="fill:#efc2bc;fill-opacity:1;fill-rule:nonzero;stroke:none"
           d="m 5979.57,1649.32 c -10.55,0 -21.13,0.13 -31.81,0.43 -2.84,0.07 -5.08,2.44 -5,5.28 0.08,2.79 2.37,5.01 5.15,5.01 0.04,0 0.09,0 0.14,0 228.08,-6.17 428.5,57.14 440.39,63.17 2.48,1.29 5.62,0.36 6.93,-2.12 1.32,-2.47 0.48,-5.51 -1.96,-6.88 -9.67,-5.4 -196.44,-64.89 -413.84,-64.89" />
        <path
           id="path114"
           style="fill:#975850;fill-opacity:1;fill-rule:nonzero;stroke:none"
           d="m 6016.09,1802.92 c -13.16,0 -26.16,0.54 -38.89,1.69 -4.24,0.39 -7.38,4.14 -6.99,8.4 0.39,4.23 4,7.37 8.39,6.98 159.97,-14.62 372.79,75.08 374.92,76 3.9,1.63 8.45,-0.16 10.13,-4.09 1.67,-3.91 -0.16,-8.45 -4.08,-10.12 -8.16,-3.48 -187.16,-78.86 -343.48,-78.86" />
        <path
           id="path116"
           style="fill:#efc2bc;fill-opacity:1;fill-rule:nonzero;stroke:none"
           d="m 6010.87,1842.08 c -11.68,0 -23.5,0.4 -35.45,1.25 -2.84,0.2 -4.98,2.67 -4.78,5.5 0.2,2.84 2.88,4.98 5.5,4.77 206.42,-14.66 373.57,106.27 375.23,107.49 2.27,1.68 5.49,1.21 7.19,-1.1 1.68,-2.29 1.19,-5.51 -1.1,-7.2 -1.6,-1.17 -153.17,-110.71 -346.59,-110.71" />
        <path
           id="path118"
           style="fill:#975850;fill-opacity:1;fill-rule:nonzero;stroke:none"
           d="m 6004.96,1984.86 c -6.36,0 -12.68,0.18 -18.99,0.54 -4.25,0.24 -7.5,3.89 -7.27,8.15 0.25,4.25 3.91,7.63 8.15,7.27 144.95,-8.33 313.04,89.43 314.73,90.42 3.67,2.18 8.41,0.94 10.57,-2.74 2.16,-3.69 0.94,-8.41 -2.75,-10.57 -6.73,-3.97 -160.14,-93.07 -304.44,-93.07" />
        <path
           id="path120"
           style="fill:#efc2bc;fill-opacity:1;fill-rule:nonzero;stroke:none"
           d="m 5990.65,2015.62 c -2.43,0 -4.59,1.73 -5.05,4.21 -0.5,2.8 1.34,5.48 4.14,5.99 2.2,0.41 220.73,41.01 299.57,111.52 2.09,1.88 5.34,1.73 7.26,-0.41 1.89,-2.12 1.71,-5.37 -0.42,-7.27 -80.97,-72.44 -295.47,-112.3 -304.56,-113.97 -0.31,-0.05 -0.62,-0.07 -0.94,-0.07" />
        <path
           id="path122"
           style="fill:#975850;fill-opacity:1;fill-rule:nonzero;stroke:none"
           d="m 6080.56,2221.48 c -24.01,0 -48.47,1.89 -72.24,6.56 -4.18,0.82 -6.9,4.88 -6.08,9.06 0.82,4.18 4.88,6.83 9.06,6.09 115.61,-22.74 254.11,24.77 255.49,25.24 4.03,1.38 8.43,-0.72 9.83,-4.75 1.41,-4.03 -0.72,-8.43 -4.75,-9.82 -4.66,-1.63 -94.24,-32.38 -191.31,-32.38" />
        <path
           id="path124"
           style="fill:#efc2bc;fill-opacity:1;fill-rule:nonzero;stroke:none"
           d="m 6031.21,2253.45 c -7.69,0 -15.59,0.13 -23.71,0.42 -2.83,0.09 -5.07,2.48 -4.96,5.32 0.1,2.83 2.47,4.94 5.32,4.97 178.67,-6.29 250.79,61.67 251.49,62.35 2.06,1.99 5.32,1.95 7.29,-0.09 1.97,-2.05 1.93,-5.31 -0.11,-7.29 -2.88,-2.8 -69.68,-65.68 -235.32,-65.68" />
      </g>
    </g>
    <path
       id="path126"
       style="fill:#8e5f3f;fill-opacity:1;fill-rule:nonzero;stroke:none;stroke-width:0.0352777"
       d="m 115.64513,129.90454 c 0,0 1.05057,4.35258 1.20086,5.92844 0.15028,1.57585 -3.90243,10.20586 -3.90243,10.20586 l -1.35079,0.90028 -1.12536,-0.60007 c 0,0 2.25143,-8.48007 2.47615,-9.4555 0.22507,-0.97543 -1.27564,-5.25286 -1.27564,-5.25286 l 3.97721,-1.72615" />
    <path
       id="path128"
       style="fill:#d4786b;fill-opacity:1;fill-rule:nonzero;stroke:none;stroke-width:0.0352777"
       d="m 116.84599,129.75426 c 0,0 -1.42593,1.276 -2.8515,2.10114 -1.42593,0.82586 -3.15207,1.20121 -3.60222,1.05093 -0.45014,-0.15028 -0.8255,-1.05093 -0.90064,-2.25143 -0.0751,-1.2005 -0.67522,-4.65243 -0.75036,-5.85329 -0.0751,-1.2005 0.4505,-2.47614 1.95086,-2.70122 1.50107,-0.22542 2.17629,0.37501 3.15207,1.80093 0.97579,1.42558 3.07693,5.47794 3.00179,5.85294" />
    <path
       id="path130"
       style="fill:#d4786b;fill-opacity:1;fill-rule:nonzero;stroke:none;stroke-width:0.0352777"
       d="m 116.84599,129.75426 c 0,0 -1.42593,1.276 -2.8515,2.10114 -1.42593,0.82586 -3.15207,1.20121 -3.60222,1.05093 -0.45014,-0.15028 -0.8255,-1.05093 -0.90064,-2.25143 -0.0751,-1.2005 -0.67522,-4.65243 -0.75036,-5.85329 -0.0751,-1.2005 0.4505,-2.47614 1.95086,-2.70122 1.50107,-0.22542 2.17629,0.37501 3.15207,1.80093 0.97579,1.42558 3.07693,5.47794 3.00179,5.85294" />
    <path
       id="path132"
       style="fill:#332116;fill-opacity:1;fill-rule:nonzero;stroke:none;stroke-width:0.0352777"
       d="m 104.16398,133.50676 c 0,0.28998 0.16757,0.52493 0.375,0.52493 0.20708,0 0.37536,-0.23495 0.37536,-0.52493 0,-0.28999 -0.16828,-0.52529 -0.37536,-0.52529 -0.20743,0 -0.375,0.2353 -0.375,0.52529" />
    <path
       id="path134"
       style="fill:#332116;fill-opacity:1;fill-rule:nonzero;stroke:none;stroke-width:0.0352777"
       d="m 103.41327,143.63748 c 0,0.28998 0.16792,0.52528 0.375,0.52528 0.20744,0 0.37571,-0.2353 0.37571,-0.52528 0,-0.28999 -0.16827,-0.52529 -0.37571,-0.52529 -0.20708,0 -0.375,0.2353 -0.375,0.52529" />
    <path
       id="path136"
       style="fill:#332116;fill-opacity:1;fill-rule:nonzero;stroke:none;stroke-width:0.0352777"
       d="m 102.73805,152.26748 c 0,0.28998 0.16757,0.52528 0.37501,0.52528 0.20708,0 0.37535,-0.2353 0.37535,-0.52528 0,-0.28998 -0.16827,-0.52529 -0.37535,-0.52529 -0.20744,0 -0.37501,0.23531 -0.37501,0.52529" />
    <path
       id="path138"
       style="fill:#332116;fill-opacity:1;fill-rule:nonzero;stroke:none;stroke-width:0.0352777"
       d="m 101.83741,160.14677 c 0,0.28998 0.16792,0.52529 0.375,0.52529 0.20744,0 0.37536,-0.23531 0.37536,-0.52529 0,-0.29033 -0.16792,-0.52528 -0.37536,-0.52528 -0.20708,0 -0.375,0.23495 -0.375,0.52528" />
    <path
       id="path140"
       style="fill:#332116;fill-opacity:1;fill-rule:nonzero;stroke:none;stroke-width:0.0352777"
       d="m 101.38727,167.80099 c 0,0.29034 0.16792,0.52529 0.375,0.52529 0.20743,0 0.375,-0.23495 0.375,-0.52529 0,-0.28998 -0.16757,-0.52493 -0.375,-0.52493 -0.20708,0 -0.375,0.23495 -0.375,0.52493" />
    <g
       id="g142"
       transform="matrix(0.03527778,0,0,-0.03527778,-109.12476,215.00054)">
      <g
         clip-path="url(#clipPath148)"
         id="g144">
        <path
           id="path150"
           style="fill:#975850;fill-opacity:1;fill-rule:nonzero;stroke:none"
           d="m 6182.11,2399.75 c -5.08,0 -9.5,3.76 -10.2,8.92 -0.75,5.64 3.2,10.81 8.84,11.57 136.25,18.3 190.03,98.83 190.56,99.64 3.1,4.76 9.49,6.12 14.24,3.02 4.76,-3.1 6.12,-9.47 3.02,-14.24 -2.37,-3.64 -59.56,-89.28 -205.08,-108.82 -0.47,-0.06 -0.93,-0.09 -1.38,-0.09" />
        <path
           id="path152"
           style="fill:#efc2bc;fill-opacity:1;fill-rule:nonzero;stroke:none"
           d="m 6178.85,2435.98 c -1.86,0 -3.5,1.33 -3.81,3.23 -0.34,2.1 1.08,4.09 3.19,4.43 111.92,18.38 176.65,108.12 177.3,109.03 1.22,1.74 3.63,2.14 5.38,0.91 1.74,-1.23 2.15,-3.63 0.91,-5.38 -0.66,-0.92 -67.15,-93.26 -182.35,-112.17 -0.2,-0.04 -0.42,-0.05 -0.62,-0.05" />
      </g>
    </g>
    <path
       id="path154"
       style="fill:#d8e5ed;fill-opacity:1;fill-rule:nonzero;stroke:none;stroke-width:0.0352777"
       d="m 97.297514,126.64029 -2.532945,-4.89655 v 1.96991 z" />
    <path
       id="path156"
       style="fill:#ffffff;fill-opacity:1;fill-rule:nonzero;stroke:none;stroke-width:0.0352777"
       d="m 97.466141,127.03434 4.952649,-4.38996 0.4505,1.57586 z" />
    <path
       id="path158"
       style="fill:#d8e5ed;fill-opacity:1;fill-rule:nonzero;stroke:none;stroke-width:0.0352777"
       d="m 97.297514,126.64029 6.021916,-3.48932 0.78775,8.32943 -6.190541,3.15207 -0.619125,-7.99218" />
    <path
       id="path160"
       style="fill:#9ca6ab;fill-opacity:1;fill-rule:nonzero;stroke:none;stroke-width:0.0352777"
       d="m 94.145444,121.85627 3.15207,4.78402 0.675216,7.93574 -2.814108,-4.89621 -1.013178,-7.82355" />
    <path
       id="path162"
       style="fill:#8e5f3f;fill-opacity:1;fill-rule:nonzero;stroke:none;stroke-width:0.0352777"
       d="m 94.25798,128.85397 0.487892,-2.47615 0.225072,1.42558 c 0,0 0.150284,-0.56303 0.450145,-1.05057 0.300214,-0.48789 0.712964,-0.26282 0.863247,-0.11254 0.14993,0.15028 0.112536,1.23825 0.337608,1.95121 0.225072,0.71262 0.26282,2.62644 0.187678,3.03919 -0.07514,0.41275 -0.07514,0.75035 -0.8255,0.41275 -0.750711,-0.33761 -1.688394,-1.3134 -1.726142,-3.18947" />
    <path
       id="path164"
       style="fill:#65432d;fill-opacity:1;fill-rule:nonzero;stroke:none;stroke-width:0.0352777"
       d="m 96.134053,129.09492 c -0.04269,0 -0.08114,-0.0303 -0.0889,-0.0737 -0.0095,-0.0476 -0.227542,-1.1804 -0.189089,-1.56422 0.03704,-0.36971 0.07479,-0.92957 0.07514,-0.93521 0.0035,-0.0497 0.03845,-0.0868 0.09631,-0.0847 0.05009,0.004 0.08784,0.0466 0.08431,0.0967 -3.52e-4,0.006 -0.03775,0.56868 -0.07514,0.94121 -0.03563,0.35772 0.18415,1.50036 0.186266,1.512 0.0095,0.049 -0.02293,0.0967 -0.07161,0.10619 -0.006,0.001 -0.01164,0.002 -0.01729,0.002" />
    <path
       id="path166"
       style="fill:#65432d;fill-opacity:1;fill-rule:nonzero;stroke:none;stroke-width:0.0352777"
       d="m 95.495878,128.79506 c -0.0011,0 -0.0025,0 -0.0032,0 -0.05009,-0.002 -0.0889,-0.0445 -0.08749,-0.0945 0.0018,-0.0402 0.03881,-0.98672 0.113947,-1.43722 0.07655,-0.45826 0.227189,-0.76341 0.233891,-0.77611 0.02187,-0.0452 0.07796,-0.0631 0.121709,-0.0406 0.04445,0.0226 0.0628,0.0769 0.04057,0.12171 -0.0014,0.003 -0.145345,0.29492 -0.216606,0.7246 -0.07373,0.43956 -0.111478,1.40476 -0.11183,1.41464 -0.0018,0.0487 -0.04233,0.0875 -0.09102,0.0875" />
    <path
       id="path168"
       style="fill:#d4786b;fill-opacity:1;fill-rule:nonzero;stroke:none;stroke-width:0.0352777"
       d="m 114.6697,145.13819 c 0,0 -0.22542,5.32801 -0.97578,6.30379 -0.75036,0.97543 -1.57586,2.026 -3.30165,1.35078 -1.72614,-0.67556 -1.27564,-6.67914 -1.27564,-6.67914 0,0 3.07657,0.0751 5.55307,-0.97543" />
    <path
       id="path170"
       style="fill:#9ca6ab;fill-opacity:1;fill-rule:nonzero;stroke:none;stroke-width:0.0352777"
       d="m 99.138661,127.71838 3.086449,-1.87607 v 0.66569 l -3.086449,1.99672 v -0.78634" />
  </g>
</svg>
