<?xml version="1.0" encoding="UTF-8" standalone="no"?>
<svg
   xmlns:dc="http://purl.org/dc/elements/1.1/"
   xmlns:cc="http://creativecommons.org/ns#"
   xmlns:rdf="http://www.w3.org/1999/02/22-rdf-syntax-ns#"
   xmlns:svg="http://www.w3.org/2000/svg"
   xmlns="http://www.w3.org/2000/svg"
   xmlns:sodipodi="http://sodipodi.sourceforge.net/DTD/sodipodi-0.dtd"
   xmlns:inkscape="http://www.inkscape.org/namespaces/inkscape"
   sodipodi:docname="leer4.svg"
   inkscape:version="1.0 (4035a4f, 2020-05-01)"
   id="svg2011"
   version="1.1"
   viewBox="0 0 50.899574 47.173275"
   height="47.173275mm"
   width="50.899574mm">
  <defs
     id="defs2005" />
  <sodipodi:namedview
     inkscape:window-maximized="0"
     inkscape:window-y="123"
     inkscape:window-x="0"
     inkscape:window-height="755"
     inkscape:window-width="1252"
     showgrid="false"
     inkscape:document-rotation="0"
     inkscape:current-layer="layer1"
     inkscape:document-units="mm"
     inkscape:cy="89.146347"
     inkscape:cx="96.188173"
     inkscape:zoom="0.35"
     inkscape:pageshadow="2"
     inkscape:pageopacity="0.0"
     borderopacity="1.0"
     bordercolor="#666666"
     pagecolor="#ffffff"
     id="base" />
  <metadata
     id="metadata2008">
    <rdf:RDF>
      <cc:Work
         rdf:about="">
        <dc:format>image/svg+xml</dc:format>
        <dc:type
           rdf:resource="http://purl.org/dc/dcmitype/StillImage" />
        <dc:title></dc:title>
      </cc:Work>
    </rdf:RDF>
  </metadata>
  <g
     transform="translate(-80.383546,-124.58003)"
     id="layer1"
     inkscape:groupmode="layer"
     inkscape:label="Layer 1">
    <path
       id="path258"
       style="fill:#a8675b;fill-opacity:1;fill-rule:nonzero;stroke:none;stroke-width:0.0352777"
       d="m 102.56833,171.5473 c -2.39889,0.76483 -3.584576,-0.8008 -3.407482,-1.42592 0.130881,-0.46285 0.869242,-0.83468 1.599492,-1.14724 0,0 1.49543,1.04317 1.80799,2.22533 v 0.34783" />
    <path
       id="path444"
       style="fill:#ebe9da;fill-opacity:1;fill-rule:nonzero;stroke:none;stroke-width:0.0352777"
       d="m 82.052537,160.61119 v 4.72899 l 10.170936,-0.139 0.539045,-0.69567 -0.208492,-3.75532 c 0,0 -1.564922,-0.29563 -1.61678,-0.29563 -0.05256,0 -8.884709,0.15663 -8.884709,0.15663" />
    <path
       id="path446"
       style="fill:#c34d41;fill-opacity:1;fill-rule:nonzero;stroke:none;stroke-width:0.0352777"
       d="m 81.22739,166.05314 h 10.588625 c 1.06045,0 1.920169,-0.85972 1.920169,-1.92017 v -2.48849 c 0,-1.06045 -0.859719,-1.92017 -1.920169,-1.92017 H 81.244324 c -0.206728,0 -0.373945,0.16757 -0.373945,0.3743 v 0.20708 c 0,0.25505 0.206728,0.46214 0.461786,0.46214 h 9.761361 c 0.614539,0 1.112661,0.49812 1.112661,1.1123 v 1.94734 c 0,0.61489 -0.498122,1.11301 -1.112661,1.11301 h -9.784644 c -0.242358,0 -0.438503,0.19615 -0.438503,0.43815 v 0.31715 c 0,0.1972 0.160161,0.35736 0.357011,0.35736" />
    <path
       id="path448"
       style="fill:#faf8e7;fill-opacity:1;fill-rule:nonzero;stroke:none;stroke-width:0.0352777"
       d="m 91.893273,156.69924 h -8.828616 c -0.254353,0 -0.483659,0.15416 -0.579614,0.38982 l -0.111478,0.2734 c -0.07444,0.18203 -0.112183,0.37677 -0.112183,0.57327 v 0.65757 c 0,0.30657 0.09243,0.60572 0.265289,0.85867 v 0 c 0.116769,0.17039 0.310444,0.27234 0.517172,0.27234 h 8.84943 v -3.02507" />
    <path
       id="path450"
       style="fill:#9ca6ab;fill-opacity:1;fill-rule:nonzero;stroke:none;stroke-width:0.0352777"
       d="M 93.562265,160.07709 H 83.043843 c -0.323497,0 -0.625828,-0.15911 -0.808214,-0.42616 -0.214136,-0.31256 -0.327025,-0.67839 -0.327025,-1.05763 v -0.65757 c 0,-0.24413 0.04657,-0.4819 0.138289,-0.70697 l 0.111478,-0.2727 c 0.150989,-0.37042 0.506589,-0.6096 0.906286,-0.6096 h 10.497608 c 0.195086,0 0.352778,0.15805 0.352778,0.35278 0,0.19473 -0.157692,0.35278 -0.352778,0.35278 H 83.064657 c -0.111478,0 -0.210609,0.0667 -0.253295,0.17039 l -0.111125,0.27305 c -0.05715,0.14005 -0.08608,0.28822 -0.08608,0.44027 v 0.65757 c 0,0.23637 0.0702,0.46461 0.203553,0.65934 0.05115,0.0744 0.135467,0.11889 0.226131,0.11889 h 10.518422 c 0.195086,0 0.352778,0.15805 0.352778,0.35278 0,0.19473 -0.157692,0.35278 -0.352778,0.35278" />
    <path
       id="path452"
       style="fill:#eb8c7a;fill-opacity:1;fill-rule:nonzero;stroke:none;stroke-width:0.0352777"
       d="m 90.328351,156.49075 h -9.944805 v -1.49543 h 9.944805 v 1.49543" />
    <path
       id="path454"
       style="fill:#e4e0c8;fill-opacity:1;fill-rule:nonzero;stroke:none;stroke-width:0.0352777"
       d="m 91.893273,153.15241 h -8.588727 v 1.84291 h 8.588727 v -1.84291" />
    <path
       id="path456"
       style="fill:#755337;fill-opacity:1;fill-rule:nonzero;stroke:none;stroke-width:0.0352777"
       d="m 92.414679,155.17171 h -9.110133 c -0.09737,0 -0.176389,-0.079 -0.176389,-0.17639 v -1.84291 c 0,-0.0977 0.07902,-0.17639 0.176389,-0.17639 h 9.110133 c 0.09772,0 0.176389,0.0787 0.176389,0.17639 0,0.0974 -0.07867,0.17639 -0.176389,0.17639 h -8.933745 v 1.49013 h 8.933745 c 0.09772,0 0.176389,0.0787 0.176389,0.17639 0,0.0974 -0.07867,0.17639 -0.176389,0.17639" />
    <path
       id="path458"
       style="fill:#105762;fill-opacity:1;fill-rule:nonzero;stroke:none;stroke-width:0.0352777"
       d="m 105.8541,163.79148 c 0,0 1.54129,1.1109 3.18206,1.149 1.64147,0.0377 4.36527,-0.56162 5.05954,-0.57467 0.69426,-0.0127 5.16396,-9.37049 5.16396,-9.37049 v -0.92145 h -8.41516 c 0,0 -3.84317,2.39112 -4.9904,4.13773 -1.14759,1.74695 -1.46015,2.921 -1.40758,3.33833 0.0519,0.41734 1.40758,2.24155 1.40758,2.24155" />
    <path
       id="path460"
       style="fill:#f9a885;fill-opacity:1;fill-rule:nonzero;stroke:none;stroke-width:0.0352777"
       d="m 122.77156,153.91723 c 0,0 1.65135,-2.65394 2.24225,-3.17535 0.59091,-0.52176 0.79975,-0.97366 0.79975,-1.3215 0,-0.34784 0.43533,-1.34479 0.43533,-1.34479 l -2.15583,0.5909 -2.921,2.8515 0.27835,2.15583 1.32115,0.24341" />
    <path
       id="path462"
       style="fill:#0a2c32;fill-opacity:1;fill-rule:nonzero;stroke:none;stroke-width:0.0352777"
       d="m 110.8445,161.77607 c 0,0 0.6604,3.75531 3.40747,4.86797 0,0 0.8001,0.45227 1.35644,0 l 0.48683,-0.90381 -1.59949,-3.44276 -2.60809,-0.97367 -1.04316,0.45227" />
    <path
       id="path464"
       style="fill:#f9a885;fill-opacity:1;fill-rule:nonzero;stroke:none;stroke-width:0.0352777"
       d="m 112.96575,162.22797 c 0,0 -2.19075,1.21709 -2.67759,1.4605 -0.48683,0.24342 -0.66075,0.66076 -0.66075,0.66076 l 0.73025,1.87783 4.72934,-1.99954 -0.8001,-1.58221 -1.32115,-0.41734" />
    <path
       id="path466"
       style="fill:#d4786b;fill-opacity:1;fill-rule:nonzero;stroke:none;stroke-width:0.0352777"
       d="m 109.62741,163.68847 c 0,0 -2.0514,0.76518 -2.50366,0.86925 -0.45191,0.10442 -0.83467,0.24341 -1.28658,0.27834 -0.45191,0.0346 -1.18251,-0.17392 -1.66899,0 -0.48684,0.17357 -1.25166,-0.59126 -1.98226,0.50412 -0.73025,1.09537 -1.28658,2.69487 -0.38241,3.28612 0.90417,0.59126 1.56492,-0.62618 3.4424,-1.07808 1.87784,-0.45191 5.56401,-1.09291 5.842,-1.31163 0.27834,-0.21837 0.19121,-0.399 0.19121,-0.399 0,0 -1.06045,-1.21037 -0.99096,-2.14912 0,0 -0.34325,-0.11747 -0.66075,0" />
    <path
       id="path468"
       style="fill:#f9a885;fill-opacity:1;fill-rule:nonzero;stroke:none;stroke-width:0.0352777"
       d="m 100.76034,160.00265 1.35608,3.19899 0.59126,1.02588 2.782,0.43462 1.00824,-1.02588 c 0,0 -0.93874,-3.52954 -1.00824,-3.63361 -0.0699,-0.10442 -4.72934,0 -4.72934,0" />
    <path
       id="path470"
       style="fill:#eb8c7a;fill-opacity:1;fill-rule:nonzero;stroke:none;stroke-width:0.0352777"
       d="m 101.92204,162.74373 c 0,0 -0.43145,0.90241 -0.0836,1.34091 0.34749,0.4385 1.53,1.93605 1.35608,2.12619 -0.17392,0.1898 -0.73061,0.22472 -0.20849,0.36372 0.5214,0.13934 0.55597,0.31291 0.22577,0.59125 -0.3302,0.27799 -1.7212,1.49543 -2.45145,1.80834 -0.73025,0.31256 -1.468612,0.68439 -1.599493,1.14724 -0.177094,0.62512 1.008593,2.19075 3.407483,1.42592 1.79987,-0.57397 3.05152,-1.87148 3.90242,-2.5721 0.28364,-0.23354 0.52247,-0.40111 0.72285,-0.45332 0.79939,-0.20849 1.14723,-0.52176 1.04316,-0.93874 -0.10442,-0.41734 -0.7306,-1.14759 -0.8696,-2.24296 -0.13935,-1.09538 -0.0963,-2.14066 -1.00436,-2.2091 0,0 -0.004,0.96697 -2.05563,0.95356 -2.0514,-0.0138 -2.38513,-1.34091 -2.38513,-1.34091" />
    <path
       id="path472"
       style="fill:#a8675b;fill-opacity:1;fill-rule:nonzero;stroke:none;stroke-width:0.0352777"
       d="m 106.47076,168.9752 c 0.28363,-0.23354 0.52246,-0.40111 0.72284,-0.45332 0.79939,-0.20849 1.14723,-0.52176 1.04316,-0.93874 -0.10442,-0.41734 -0.7306,-1.14759 -0.8696,-2.24296 0,0 -1.28658,1.1303 -1.28658,2.38195 0,1.25201 0.39018,1.25307 0.39018,1.25307" />
    <path
       id="path474"
       style="fill:#563828;fill-opacity:1;fill-rule:nonzero;stroke:none;stroke-width:0.0352777"
       d="m 111.85309,136.33091 6.46782,0.0261 2.4511,-0.46955 c 0,0 0,-4.06823 -0.78246,-5.94607 l -7.45843,0.67804 -0.67803,5.71147" />
    <path
       id="path476"
       style="fill:#f59272;fill-opacity:1;fill-rule:nonzero;stroke:none;stroke-width:0.0352777"
       d="m 119.88548,136.51365 c 0,0 -0.65193,-1.32997 -2.24296,-1.14759 -0.32773,0.0377 -4.53778,0.26071 -4.53778,0.26071 0,0 -1.14723,0.93874 -1.30422,1.04316 -0.15628,0.10442 2.03447,4.32929 2.03447,4.32929 l 1.66899,1.93005 1.1998,0.20849 2.34703,-1.98191 0.83467,-4.6422" />
    <path
       id="path478"
       style="fill:#e4e0c8;fill-opacity:1;fill-rule:nonzero;stroke:none;stroke-width:0.0352777"
       d="m 110.9662,154.71698 c 0,0 6.51969,0.62618 8.24089,0.57397 1.72156,-0.0522 2.29517,-1.40829 2.45181,-1.61713 0.15628,-0.20849 -0.15664,-2.29482 -0.15664,-3.12949 0,-0.83468 1.72121,-5.21582 1.72121,-5.21582 l 2.13889,-2.71251 c 0,0 -0.93874,-3.80753 -3.12949,-5.68537 -2.19075,-1.87748 -4.22522,-1.56457 -4.22522,-1.56457 0,0 1.03011,0.19544 1.03011,0.76941 0,0.57362 -0.4953,4.91596 -2.89454,6.16761 0,0 -3.29424,-1.12888 -2.94887,-6.68513 l 0.0293,-0.0109 c 0,0 -0.84914,0.072 -1.68381,0.43709 -0.83432,0.36512 -2.76437,1.9819 -4.38115,4.53778 -1.61713,2.55587 -1.87783,3.80753 -1.87783,3.80753 l 2.55587,7.35471 3.12949,2.97286" />
    <path
       id="path480"
       style="fill:#ffffff;fill-opacity:1;fill-rule:nonzero;stroke:none;stroke-width:0.0352777"
       d="m 120.65419,137.73461 c 0,0 -0.31292,-0.34784 -0.52176,-0.31291 -0.20849,0.0346 -0.48648,0.10442 -0.24342,0.45191 0.24342,0.34784 0.10442,0.59125 0.41769,0.66075 0.31256,0.0695 0.55633,-0.41734 0.34749,-0.79975" />
    <path
       id="path482"
       style="fill:#ffffff;fill-opacity:1;fill-rule:nonzero;stroke:none;stroke-width:0.0352777"
       d="m 113.73057,152.35267 c 0,0 -0.31291,-0.34784 -0.52176,-0.31327 -0.20814,0.0349 -0.48648,0.10442 -0.24306,0.45226 0.24306,0.34748 0.10407,0.59126 0.41733,0.66075 0.31257,0.0695 0.55633,-0.41733 0.34749,-0.79974" />
    <path
       id="path484"
       style="fill:#ffffff;fill-opacity:1;fill-rule:nonzero;stroke:none;stroke-width:0.0352777"
       d="m 122.59764,141.32942 c 0,0 -0.41734,-0.59126 -0.6604,-0.38241 -0.24377,0.20884 0.0346,0.41733 0.0695,0.62582 0.0349,0.20885 0.90382,0.59126 0.5909,-0.24341" />
    <path
       id="path486"
       style="fill:#ffffff;fill-opacity:1;fill-rule:nonzero;stroke:none;stroke-width:0.0352777"
       d="m 108.77722,141.76228 c 0,0 -0.41734,-0.59126 -0.6604,-0.38277 -0.24377,0.20885 0.0349,0.41734 0.0691,0.62583 0.0349,0.20884 0.90452,0.59126 0.59125,-0.24306" />
    <path
       id="path488"
       style="fill:#ffffff;fill-opacity:1;fill-rule:nonzero;stroke:none;stroke-width:0.0352777"
       d="m 112.02418,147.72845 c 0,0 -0.41733,-0.59125 -0.66075,-0.38276 -0.24306,0.20849 0.0349,0.41734 0.0695,0.62618 0.0349,0.20849 0.90417,0.5909 0.59125,-0.24342" />
    <path
       id="path490"
       style="fill:#ffffff;fill-opacity:1;fill-rule:nonzero;stroke:none;stroke-width:0.0352777"
       d="m 119.80681,141.28462 c 0,0 -0.20884,-0.45191 -0.59125,-0.27799 -0.38276,0.17392 -0.17392,0.48683 -0.13935,0.69532 0.0349,0.20849 0.86925,0.45191 0.7306,-0.41733" />
    <path
       id="path492"
       style="fill:#ffffff;fill-opacity:1;fill-rule:nonzero;stroke:none;stroke-width:0.0352777"
       d="m 122.60505,139.17536 c 0,0 -0.20885,-0.45191 -0.59126,-0.27799 -0.38241,0.17392 -0.17357,0.48683 -0.13899,0.69532 0.0349,0.20885 0.8696,0.45226 0.73025,-0.41733" />
    <path
       id="path494"
       style="fill:#ffffff;fill-opacity:1;fill-rule:nonzero;stroke:none;stroke-width:0.0352777"
       d="m 113.97399,149.67508 c 0,0 -0.20849,-0.45226 -0.59091,-0.27834 -0.38241,0.17392 -0.17427,0.48683 -0.13934,0.69568 0.0349,0.20849 0.86924,0.45191 0.73025,-0.41734" />
    <path
       id="path496"
       style="fill:#ffffff;fill-opacity:1;fill-rule:nonzero;stroke:none;stroke-width:0.0352777"
       d="m 117.41639,152.59573 c 0,0 -0.20849,-0.45191 -0.59125,-0.27799 -0.38242,0.17392 -0.17357,0.48683 -0.13864,0.69568 0.0349,0.20849 0.86924,0.45191 0.72989,-0.41769" />
    <path
       id="path498"
       style="fill:#ffffff;fill-opacity:1;fill-rule:nonzero;stroke:none;stroke-width:0.0352777"
       d="m 108.65375,144.31992 c 0,0 -0.2085,-0.45191 -0.59091,-0.27799 -0.38241,0.17392 -0.17427,0.48683 -0.13934,0.69532 0.0349,0.20849 0.86959,0.45191 0.73025,-0.41733" />
    <path
       id="path500"
       style="fill:#ffffff;fill-opacity:1;fill-rule:nonzero;stroke:none;stroke-width:0.0352777"
       d="m 121.48498,144.25042 c 0,0 -0.31292,-0.86925 -0.66076,-0.73025 -0.34783,0.13899 0,0.45226 -0.10442,0.76517 -0.10407,0.31292 0.90417,0.55633 0.76518,-0.0349" />
    <path
       id="path502"
       style="fill:#ffffff;fill-opacity:1;fill-rule:nonzero;stroke:none;stroke-width:0.0352777"
       d="m 109.82991,139.69359 c 0,0 -0.31256,-0.8696 -0.66076,-0.73025 -0.34748,0.13899 0,0.45191 -0.10407,0.76517 -0.10442,0.31292 0.90417,0.55633 0.76483,-0.0349" />
    <path
       id="path504"
       style="fill:#faf8e7;fill-opacity:1;fill-rule:nonzero;stroke:none;stroke-width:0.0352777"
       d="m 120.51131,144.42434 4.69441,-4.06824 0.6604,1.87749 -3.82446,2.60808 -1.53035,-0.41733" />
    <path
       id="path506"
       style="fill:#ffffff;fill-opacity:1;fill-rule:nonzero;stroke:none;stroke-width:0.0352777"
       d="m 120.44181,144.45926 -6.3634,-2.64301 v 1.391 l 6.11999,1.94734 0.24341,-0.69533" />
    <path
       id="path508"
       style="fill:#d15b49;fill-opacity:1;fill-rule:nonzero;stroke:none;stroke-width:0.0352777"
       d="m 120.51131,144.42434 0.41734,7.40657 -7.02416,-2.60809 -0.55633,-7.05873 7.16315,2.26025" />
    <path
       id="path510"
       style="fill:#ffffff;fill-opacity:1;fill-rule:nonzero;stroke:none;stroke-width:0.0352777"
       d="m 115.22564,145.01559 0.0349,2.60774 3.26884,1.07809 -0.13935,-2.74709 -3.16441,-0.93874" />
    <path
       id="path512"
       style="fill:#c34d41;fill-opacity:1;fill-rule:nonzero;stroke:none;stroke-width:0.0352777"
       d="m 120.92865,151.83091 5.59823,-3.96417 0.0698,-7.26722 -6.08542,3.82482 0.41734,7.40657" />
    <path
       id="path514"
       style="fill:#f9a885;fill-opacity:1;fill-rule:nonzero;stroke:none;stroke-width:0.0352777"
       d="m 126.24889,148.07559 c 0,0 -0.0695,-0.69568 -0.31292,-1.21709 -0.24341,-0.52175 -0.34783,-0.90417 -0.62617,-1.04316 -0.27799,-0.13899 -0.38242,-0.0349 -0.55634,0.0346 -0.17356,0.0699 -0.5214,0.38241 -0.55633,0.83467 -0.0346,0.45191 0.20885,1.4605 -0.10407,1.98191 -0.31326,0.52176 -0.31326,1.00859 -0.27834,1.11301 0.0349,0.10407 0.8001,0.52141 0.8001,0.52141 l 1.2513,-0.79975 0.38277,-1.42557" />
    <path
       id="path516"
       style="fill:#f9a885;fill-opacity:1;fill-rule:nonzero;stroke:none;stroke-width:0.0352777"
       d="m 108.86224,153.18698 c 0,0 1.87783,-3.12949 2.53858,-5.25074 0.66076,-2.1209 1.07809,-4.41607 1.07809,-4.41607 l -1.91276,-1.53 c 0,0 -0.0695,1.32151 -0.72989,2.36467 -0.66076,1.04316 -2.57352,3.37291 -2.99085,4.06823 -0.41699,0.69568 -0.31257,2.4691 0.0699,3.1295 0.38241,0.66075 1.94698,1.63441 1.94698,1.63441" />
    <path
       id="path518"
       style="fill:#f9a885;fill-opacity:1;fill-rule:nonzero;stroke:none;stroke-width:0.0352777"
       d="m 113.90449,142.92927 c 0,0 -0.34749,-1.63442 -0.55633,-2.05176 -0.20885,-0.41734 -1.42558,-1.77341 -1.87784,-1.84291 -0.45226,-0.0695 -1.07773,1.11266 -1.28658,1.63407 -0.20884,0.52175 -0.24342,1.18251 0.13935,1.59984 0.38241,0.41734 1.14723,0.90417 1.63442,1.39065 0.48648,0.48684 1.35572,0.83467 1.56457,0.76518 0.20849,-0.0695 0.6604,-0.38241 0.38241,-1.49507" />
    <path
       id="path520"
       style="fill:#f07754;fill-opacity:1;fill-rule:nonzero;stroke:none;stroke-width:0.0352777"
       d="m 125.69256,147.64202 c -0.0427,0 -0.0797,-0.0307 -0.0871,-0.0741 -10e-4,-0.006 -0.10372,-0.63253 -0.21767,-0.86113 -0.0519,-0.10336 -0.115,-0.26846 -0.17603,-0.42827 -0.0649,-0.16933 -0.16299,-0.42545 -0.20179,-0.46567 -0.0384,-0.0303 -0.0434,-0.085 -0.013,-0.12312 0.0303,-0.0381 0.0868,-0.0438 0.12488,-0.0127 0.0635,0.0504 0.12629,0.20285 0.25471,0.5387 0.0596,0.15557 0.121,0.31644 0.16898,0.41204 0.12629,0.25259 0.23001,0.88512 0.23424,0.91193 0.008,0.048 -0.0247,0.0935 -0.073,0.10125 -0.005,7.1e-4 -0.01,0.001 -0.0141,0.001" />
    <path
       id="path522"
       style="fill:#f07754;fill-opacity:1;fill-rule:nonzero;stroke:none;stroke-width:0.0352777"
       d="m 125.27522,147.72916 c -0.0427,0 -0.0797,-0.0303 -0.0871,-0.0734 -0.001,-0.008 -0.13864,-0.80998 -0.27164,-1.10913 -0.14005,-0.31468 -0.24306,-0.65688 -0.2473,-0.67134 -0.0141,-0.0466 0.0124,-0.0956 0.0589,-0.10971 0.0487,-0.0141 0.096,0.0127 0.10972,0.0593 0.001,0.003 0.10477,0.34607 0.23989,0.64981 0.14181,0.31962 0.27869,1.1176 0.28434,1.15147 0.008,0.048 -0.0243,0.0935 -0.072,0.1016 -0.005,0.001 -0.0102,0.001 -0.0148,0.001" />
    <path
       id="path524"
       style="fill:#f07754;fill-opacity:1;fill-rule:nonzero;stroke:none;stroke-width:0.0352777"
       d="m 124.78839,147.85087 c -0.0437,0 -0.0818,-0.0328 -0.0875,-0.0769 -0.001,-0.008 -0.10442,-0.8188 -0.15593,-1.10878 -0.0505,-0.28681 -0.13582,-0.55986 -0.13617,-0.56268 -0.0148,-0.0466 0.0113,-0.096 0.0575,-0.11077 0.0487,-0.0145 0.096,0.0116 0.11042,0.0579 0.004,0.0116 0.0896,0.28716 0.14182,0.5849 0.0522,0.29422 0.1531,1.08338 0.15733,1.1169 0.006,0.0483 -0.0279,0.0924 -0.0766,0.0988 -0.004,3.4e-4 -0.008,7.1e-4 -0.0109,7.1e-4" />
    <path
       id="path526"
       style="fill:#f07754;fill-opacity:1;fill-rule:nonzero;stroke:none;stroke-width:0.0352777"
       d="m 113.52208,144.51253 c -0.0303,0 -0.0596,-0.0159 -0.0762,-0.0437 -0.002,-0.004 -0.24342,-0.41628 -0.44662,-0.68686 -0.15945,-0.21307 -1.01494,-0.92463 -1.44533,-1.2707 -0.0377,-0.0307 -0.0437,-0.0864 -0.013,-0.12418 0.0303,-0.0381 0.0857,-0.0441 0.12383,-0.0134 0.0515,0.0416 1.26329,1.01882 1.47566,1.30246 0.20955,0.27904 0.44803,0.6865 0.45791,0.70379 0.0243,0.042 0.0102,0.096 -0.0318,0.12065 -0.0141,0.008 -0.0293,0.012 -0.0444,0.012" />
    <path
       id="path528"
       style="fill:#f07754;fill-opacity:1;fill-rule:nonzero;stroke:none;stroke-width:0.0352777"
       d="m 113.73057,144.33861 c -0.0374,0 -0.0723,-0.024 -0.084,-0.0617 -0.002,-0.006 -0.17357,-0.55174 -0.34078,-0.85301 -0.16792,-0.30163 -1.19662,-1.50319 -1.20685,-1.51518 -0.0318,-0.037 -0.0275,-0.0928 0.009,-0.12454 0.0381,-0.031 0.0935,-0.0272 0.12452,0.01 0.043,0.0501 1.05093,1.22732 1.22732,1.54447 0.17639,0.3175 0.34748,0.86324 0.35454,0.88617 0.0145,0.0462 -0.0113,0.0956 -0.0579,0.11042 -0.008,0.003 -0.0176,0.004 -0.0261,0.004" />
    <path
       id="path530"
       style="fill:#f07754;fill-opacity:1;fill-rule:nonzero;stroke:none;stroke-width:0.0352777"
       d="m 113.97399,143.78228 c -0.0448,0 -0.0833,-0.0339 -0.0878,-0.0794 -0.066,-0.66251 -1.15359,-2.09691 -1.16452,-2.11137 -0.0293,-0.0388 -0.0222,-0.0942 0.0166,-0.12348 0.0388,-0.0293 0.0938,-0.0222 0.12382,0.0166 0.0459,0.0607 1.12854,1.48873 1.1998,2.20063 0.005,0.0483 -0.0303,0.0917 -0.079,0.0967 -0.003,3.5e-4 -0.006,3.5e-4 -0.009,3.5e-4" />
    <path
       id="path532"
       style="fill:#ffffff;fill-opacity:1;fill-rule:nonzero;stroke:none;stroke-width:0.0352777"
       d="m 115.99082,139.67912 c -0.0141,0 -0.0282,-0.004 -0.0409,-0.0102 -2.66207,-1.40088 -2.53507,-4.24462 -2.53365,-4.27319 0.003,-0.0487 0.042,-0.091 0.0931,-0.0829 0.0487,0.003 0.0857,0.0441 0.0833,0.0928 -0.002,0.0272 -0.11889,2.72626 2.39183,4.08199 0.23177,-0.17392 1.38712,-1.17158 1.44815,-3.79342 0.001,-0.048 0.0402,-0.0861 0.0882,-0.0861 8e-4,0 0.001,0 0.002,0 0.0487,0.001 0.0871,0.0416 0.0861,0.0903 -0.0699,3.0039 -1.51024,3.92959 -1.57162,3.96769 -0.0141,0.009 -0.0303,0.0131 -0.0466,0.0131" />
    <path
       id="path534"
       style="fill:#ffffff;fill-opacity:1;fill-rule:nonzero;stroke:none;stroke-width:0.0352777"
       d="m 116.40815,140.16455 c 0,0.20178 -0.16333,0.36512 -0.36512,0.36512 -0.20179,0 -0.36513,-0.16334 -0.36513,-0.36512 0,-0.20144 0.11148,-0.71262 0.31292,-0.71262 0.20143,0 0.41733,0.51118 0.41733,0.71262" />
    <path
       id="path536"
       style="fill:#f9a885;fill-opacity:1;fill-rule:nonzero;stroke:none;stroke-width:0.0352777"
       d="m 112.44399,134.1839 c 0,0 1.11301,1.47744 1.87783,2.01684 0.76518,0.53869 1.91241,0.55633 2.57317,0.13899 0.66075,-0.41734 1.68663,-1.84291 1.91276,-4.10351 0,0 0.39934,0.20884 0.62547,-0.139 0.22649,-0.34748 0.53905,-1.44286 0.67839,-1.68627 0.13865,-0.24342 0.13865,-0.93875 -0.20884,-1.06081 -0.34749,-0.12135 -0.76659,0.23037 -0.83608,0.30022 -0.0695,0.0691 -0.29387,-0.43921 -0.29387,-0.43921 L 114.70424,127.89 c 0,0 -2.17312,2.50331 -2.20804,2.55552 -0.0349,0.0522 -0.0522,3.73838 -0.0522,3.73838" />
    <path
       id="path538"
       style="fill:#b97e63;fill-opacity:1;fill-rule:nonzero;stroke:none;stroke-width:0.0352777"
       d="m 118.86102,131.17859 c 0,0 0.41134,-1.17545 0.70555,-0.99907 0.29387,0.17639 -0.35277,1.82245 -0.4706,1.64607 -0.11748,-0.17639 -0.23495,-0.647 -0.23495,-0.647" />
    <path
       id="path540"
       style="fill:#563828;fill-opacity:1;fill-rule:nonzero;stroke:none;stroke-width:0.0352777"
       d="m 116.9472,132.21893 c 0,0.14429 -0.11677,0.26071 -0.2607,0.26071 -0.14394,0 -0.26071,-0.11642 -0.26071,-0.26071 0,-0.14393 0.11677,-0.2607 0.26071,-0.2607 0.14393,0 0.2607,0.11677 0.2607,0.2607" />
    <path
       id="path542"
       style="fill:#563828;fill-opacity:1;fill-rule:nonzero;stroke:none;stroke-width:0.0352777"
       d="m 113.59122,133.0536 c 0,0.14394 -0.11641,0.26071 -0.2607,0.26071 -0.14393,0 -0.2607,-0.11677 -0.2607,-0.26071 0,-0.14393 0.11677,-0.2607 0.2607,-0.2607 0.14429,0 0.2607,0.11677 0.2607,0.2607" />
    <path
       id="path544"
       style="fill:#462d21;fill-opacity:1;fill-rule:nonzero;stroke:none;stroke-width:0.0352777"
       d="m 116.39087,131.2629 c 0,0 0.36477,-0.34783 0.97366,-0.40005 0.60819,-0.0522 0.76483,0.0871 0.83432,-0.0868 0.0695,-0.17392 0.24342,-0.45191 0.0177,-0.59125 -0.22613,-0.139 -0.97366,-0.4692 -1.52999,-0.19121 -0.55633,0.27834 -0.78246,0.85196 -0.76518,1.02588 0.0177,0.17356 0.24342,0.31291 0.46955,0.24341" />
    <path
       id="path546"
       style="fill:#462d21;fill-opacity:1;fill-rule:nonzero;stroke:none;stroke-width:0.0352777"
       d="m 112.77454,131.97552 c 0,0 0.74754,0.15663 0.97367,-0.0173 0.22578,-0.17392 0.22578,-0.24342 0.12135,-0.43462 -0.10406,-0.19121 -0.13899,-0.55633 -0.67768,-0.57362 -0.5394,-0.0176 -0.41734,1.02553 -0.41734,1.02553" />
    <path
       id="path548"
       style="fill:#ffffff;fill-opacity:1;fill-rule:nonzero;stroke:none;stroke-width:0.0352777"
       d="m 115.23799,135.22107 c 0,0 0.53269,0.0459 1.16417,-0.57432 0.63111,-0.62018 0.61171,-0.84984 0.65087,-0.78105 0.0395,0.0691 0.13829,0.96485 -0.53269,1.40123 -0.67063,0.43639 -1.30175,0.13759 -1.28235,-0.0459" />
    <path
       id="path550"
       style="fill:#563828;fill-opacity:1;fill-rule:nonzero;stroke:none;stroke-width:0.0352777"
       d="m 115.087,128.56804 c 0,0 1.07774,0.76482 1.99919,1.37336 0.92146,0.60854 1.1998,0.86924 1.32151,0.78246 0.12171,-0.0871 0.41698,-0.62618 0.69532,-0.95638 0.27834,-0.3302 0.55669,-0.46919 0.60854,-0.46919 0.0522,0 -0.0519,0 -0.0519,0 0,0 -0.0177,-0.74789 -0.48718,-1.56493 -0.4692,-0.81703 -0.85161,-2.43416 -3.04236,-2.50366 l -0.83467,0.17392 -0.20849,3.16442" />
    <path
       id="path552"
       style="fill:#65432d;fill-opacity:1;fill-rule:nonzero;stroke:none;stroke-width:0.0352777"
       d="m 108.3754,137.05234 c 0,0 -0.0346,0.66075 0.17392,0.8001 0.20885,0.13899 2.12125,1.63407 4.27708,1.70392 0,0 0.27834,-0.0699 0.17427,-0.52176 -0.10442,-0.45226 -0.59125,-4.65949 -0.17427,-6.39833 0.41734,-1.73849 2.05176,-2.88608 2.3301,-3.92924 0,0 0.7299,-1.18216 0.79975,-2.88608 0,0 0.0346,-0.48718 -0.17428,-0.55633 0,0 -0.20814,-0.83467 -2.08632,-0.66075 -1.87749,0.17357 -3.47698,2.43417 -3.99874,3.89432 -0.52141,1.46085 -1.35608,8.31109 -1.32151,8.55415" />
    <path
       id="path554"
       style="fill:#105762;fill-opacity:1;fill-rule:nonzero;stroke:none;stroke-width:0.0352777"
       d="m 110.8445,154.07387 c 0,0 -3.52955,-9.4234 -4.10352,-10.3625 -0.57361,-0.93874 -1.87748,-2.45145 -4.95476,-2.03411 -3.07728,0.41733 -4.277077,2.86879 -4.381147,4.3815 -0.104422,1.51236 1.043164,13.71776 1.407936,13.97846 0.365125,0.26071 3.703461,2.45146 9.179981,-0.0522 0,0 3.14713,-3.32069 2.85151,-5.91114" />
    <path
       id="path556"
       style="fill:#0a2c32;fill-opacity:1;fill-rule:nonzero;stroke:none;stroke-width:0.0352777"
       d="m 107.99299,159.98501 h 0.003 z m -4.96781,1.32186 c -1.36596,0 -2.86068,-0.29034 -4.280962,-1.1564 -0.06244,-0.0381 -0.0822,-0.1196 -0.0441,-0.18204 0.03775,-0.0628 0.118887,-0.0822 0.181681,-0.0441 3.900661,2.37808 8.397171,0.27129 8.984541,-0.0229 0.0127,-0.23601 0.0385,-1.09431 -0.10971,-2.98344 -0.20497,-2.61514 -1.95862,-8.31144 -1.97626,-8.36859 -0.0219,-0.0699 0.0176,-0.14394 0.0875,-0.16545 0.0684,-0.0219 0.14358,0.0176 0.16545,0.0871 0.0173,0.0575 1.78012,5.78202 1.9872,8.42644 0.17991,2.29447 0.10724,3.06917 0.10407,3.10057 -0.004,0.0437 -0.03,0.0825 -0.0684,0.10336 -0.0332,0.018 -2.26907,1.20544 -5.03097,1.20544" />
    <path
       id="path558"
       style="fill:#f68a5c;fill-opacity:1;fill-rule:nonzero;stroke:none;stroke-width:0.0352777"
       d="m 113.06417,134.26928 c 0,0 0.31891,-0.56762 0.69885,-0.54646 0.37995,0.0208 0.41523,0.60925 0.1136,0.63042 -0.30092,0.0212 -0.37782,0.0603 -0.56021,0.13546 -0.18204,0.0748 -0.3362,-0.0903 -0.25224,-0.21942" />
    <path
       id="path560"
       style="fill:#f68a5c;fill-opacity:1;fill-rule:nonzero;stroke:none;stroke-width:0.0352777"
       d="m 117.93886,132.99152 c 0,0 -0.54751,-0.37607 -0.91405,-0.18839 -0.36654,0.18768 -0.15981,0.74013 0.14605,0.62548 0.30586,-0.1143 0.39829,-0.11254 0.60889,-0.12524 0.21026,-0.0127 0.29457,-0.23177 0.15911,-0.31185" />
    <path
       id="path562"
       style="fill:#f07754;fill-opacity:1;fill-rule:nonzero;stroke:none;stroke-width:0.0352777"
       d="m 114.48057,131.93565 c 0,0 0.1323,1.31198 0.25365,2.03976 0.0113,0.0681 0.0769,0.18733 0.2533,0.2092 0.24483,0.0307 0.55139,-0.066 0.55139,-0.066 0,0 0.19826,-0.15452 0.17639,-0.3309 -0.0222,-0.17639 -0.52917,-2.02848 -0.52917,-2.02848 0,0 -0.0663,-0.13229 -0.22048,-0.11006 -0.15452,0.0219 -0.5073,0.066 -0.48508,0.28645" />
    <path
       id="path564"
       style="fill:#105762;fill-opacity:1;fill-rule:nonzero;stroke:none;stroke-width:0.0352777"
       d="m 110.8445,161.77607 c 0,0 4.24532,0.56515 4.47886,5.02037 0,0 0.70238,-0.32596 1.58891,-0.56938 0.88689,-0.24342 3.91195,-2.12125 5.37245,-2.17346 1.4605,-0.0522 7.19773,-1.4605 8.24089,-3.28577 1.04352,-1.82598 1.14759,-5.11175 -0.57361,-6.7811 -1.50919,-1.46367 -5.26768,-1.19944 -7.35436,-0.57361 -1.72156,0.51646 -3.97581,2.09832 -5.91291,3.42688 -0.41028,0.28152 -0.8068,0.55174 -1.18075,0.79798 -2.13853,1.40829 -4.65948,4.13809 -4.65948,4.13809" />
    <path
       id="path566"
       style="fill:#0a2c32;fill-opacity:1;fill-rule:nonzero;stroke:none;stroke-width:0.0352777"
       d="m 110.94186,161.86567 -0.19438,-0.17921 c 0.0251,-0.0275 2.55623,-2.75802 4.68383,-4.1589 0.37324,-0.24588 0.76906,-0.51541 1.17863,-0.79657 l 0.14958,0.21802 c -0.41099,0.28222 -0.80821,0.5528 -1.18286,0.79939 -2.1008,1.38359 -4.60975,4.09011 -4.6348,4.11727" />
  </g>
</svg>
