<?xml version="1.0" encoding="UTF-8" standalone="no"?>
<svg
   xmlns:dc="http://purl.org/dc/elements/1.1/"
   xmlns:cc="http://creativecommons.org/ns#"
   xmlns:rdf="http://www.w3.org/1999/02/22-rdf-syntax-ns#"
   xmlns:svg="http://www.w3.org/2000/svg"
   xmlns="http://www.w3.org/2000/svg"
   xmlns:sodipodi="http://sodipodi.sourceforge.net/DTD/sodipodi-0.dtd"
   xmlns:inkscape="http://www.inkscape.org/namespaces/inkscape"
   sodipodi:docname="leer5.svg"
   inkscape:version="1.0 (4035a4f, 2020-05-01)"
   id="svg2228"
   version="1.1"
   viewBox="0 0 94.235046 50.153511"
   height="50.153511mm"
   width="94.235046mm">
  <defs
     id="defs2222">
    <clipPath
       clipPathUnits="userSpaceOnUse"
       id="clipPath584">
      <path
         d="m 3498.25,3687.94 c 0,0 46.01,-15.78 132.79,-13.15 86.78,2.63 163.03,14.46 194.58,27.61 31.57,13.15 97.3,61.8 107.82,74.94 l 6.58,21.04 c 0,0 -38.14,98.61 -101.24,130.16 -63.12,31.56 -131.48,60.49 -205.11,65.75 -73.63,5.26 -232.72,-38.13 -294.51,-78.89 -61.8,-40.76 47.33,-127.53 47.33,-127.53 z"
         id="path582" />
    </clipPath>
    <clipPath
       clipPathUnits="userSpaceOnUse"
       id="clipPath632">
      <path
         d="m 2240.87,4200.27 c 0,0 -28.05,-70.13 -26.3,-106.93 1.75,-36.82 82.4,-315.56 103.43,-350.62 21.04,-35.06 56.1,-103.43 56.1,-103.43 0,0 129.73,-106.93 163.03,-124.47 33.31,-17.53 43.39,-9.63 43.39,-9.63 0,0 68.81,81.51 81.08,139.36 12.27,57.85 12.27,73.63 17.53,92.92 5.26,19.28 12.27,57.84 14.02,68.36 1.76,10.52 3.51,70.13 3.51,70.13 0,0 -127.97,77.13 -136.74,91.15 -8.76,14.03 -319.05,233.16 -319.05,233.16 z"
         id="path630" />
    </clipPath>
    <clipPath
       clipPathUnits="userSpaceOnUse"
       id="clipPath658">
      <path
         d="m 2346.05,4280.91 c 0,0 -64.86,-17.53 -89.4,-45.58 -24.55,-28.05 -31.56,-101.68 -29.8,-122.71 1.75,-21.04 54.34,-84.15 89.4,-115.71 35.06,-31.55 159.53,-161.28 170.04,-159.52 10.53,1.75 112.2,98.17 124.47,136.74 0,0 5.26,5.25 -1.75,14.02 -7.01,8.76 -42.07,57.85 -57.85,96.42 -15.78,38.57 -49.16,115.76 -89.41,147.26 -40.32,31.55 -89.4,50.84 -115.7,49.08 z"
         id="path656" />
    </clipPath>
  </defs>
  <sodipodi:namedview
     inkscape:window-maximized="0"
     inkscape:window-y="123"
     inkscape:window-x="0"
     inkscape:window-height="755"
     inkscape:window-width="1252"
     showgrid="false"
     inkscape:document-rotation="0"
     inkscape:current-layer="layer1"
     inkscape:document-units="mm"
     inkscape:cy="631.92115"
     inkscape:cx="1158.082"
     inkscape:zoom="0.35"
     inkscape:pageshadow="2"
     inkscape:pageopacity="0.0"
     borderopacity="1.0"
     bordercolor="#666666"
     pagecolor="#ffffff"
     id="base" />
  <metadata
     id="metadata2225">
    <rdf:RDF>
      <cc:Work
         rdf:about="">
        <dc:format>image/svg+xml</dc:format>
        <dc:type
           rdf:resource="http://purl.org/dc/dcmitype/StillImage" />
        <dc:title></dc:title>
      </cc:Work>
    </rdf:RDF>
  </metadata>
  <g
     transform="translate(200.57586,19.029138)"
     id="layer1"
     inkscape:groupmode="layer"
     inkscape:label="Layer 1">
    <path
       id="path568"
       style="fill:#d8e5ed;fill-opacity:1;fill-rule:nonzero;stroke:none;stroke-width:0.0352777"
       d="m -111.40969,6.1542911 c 0.13935,0 1.34515,-0.09278 1.76248,-0.231775 0.41769,-0.139348 0.55669,-0.139348 0.46426,-0.417689 -0.0931,-0.277989 -0.41769,-0.602898 -0.46426,-0.835025 -0.0462,-0.231775 -0.74189,0.278341 -0.74189,0.278341 0,0 0.51012,-0.649111 0.27834,-0.788458 -0.23213,-0.138994 -0.3249,-0.324555 -0.51047,-0.277989 -0.18556,0.04621 -0.46355,0.417336 -0.46355,0.417336 0,0 0.0928,-0.602897 -0.18556,-0.556683 -0.27869,0.04621 -0.88159,0.927453 -0.9278,1.298928 -0.0462,0.370769 0.78845,1.113014 0.78845,1.113014" />
    <path
       id="path570"
       style="fill:#9ca6ab;fill-opacity:1;fill-rule:nonzero;stroke:none;stroke-width:0.0352777"
       d="m -112.9866,6.2932851 c 0,0 0.18556,-1.020233 0.92745,-1.53035 0,0 1.02059,0.556331 1.20615,1.345142 0,0 -0.69603,0.695677 -1.5307,0.741891 -0.83503,0.04621 -0.6029,-0.556683 -0.6029,-0.556683" />
    <path
       id="path572"
       style="fill:#d8e5ed;fill-opacity:1;fill-rule:nonzero;stroke:none;stroke-width:0.0352777"
       d="m -125.7882,13.714671 c 0,0 1.62313,0.556683 4.68454,0.463902 3.0614,-0.09278 5.75133,-0.510117 6.86435,-0.974019 1.11371,-0.463902 3.43252,-2.180167 3.80365,-2.643717 l 0.23212,-0.7422429 c 0,0 -1.34549,-3.478742 -3.57152,-4.591756 -2.22673,-1.113367 -4.63832,-2.133953 -7.23582,-2.319514 -2.59751,-0.185561 -8.20985,1.345142 -10.38966,2.783064 -2.18017,1.437922 1.66969,4.4989739 1.66969,4.4989739 l 3.94265,3.525309" />
    <path
       id="path574"
       style="fill:#d8e5ed;fill-opacity:1;fill-rule:nonzero;stroke:none;stroke-width:0.0352777"
       d="m -109.3223,10.931606 c 0,0 0.55633,0.371123 1.5307,0.278342 0.97402,-0.09278 0.83468,-0.278342 1.02024,-0.46355 0.18556,-0.185561 -0.55669,-0.371475 -0.55669,-0.371475 0,0 0.69604,-0.09243 0.69604,-0.231775 0,-0.138994 0,-0.4639019 -0.0466,-0.6494619 -0.0466,-0.185563 -0.23178,-0.27799 -0.32491,-0.556332 -0.0924,-0.278342 -0.0462,-0.510468 -0.41699,-0.463902 -0.37112,0.04621 -1.5307,0.463902 -1.80904,0.64911 -0.27834,0.185561 -0.0928,1.8090439 -0.0928,1.8090439" />
    <path
       id="path576"
       style="fill:#9ca6ab;fill-opacity:1;fill-rule:nonzero;stroke:none;stroke-width:0.0352777"
       d="m -110.43566,9.3546891 c 0,0 -0.0462,0.602898 -0.23213,0.8812399 -0.18521,0.278342 -0.139,0.742244 -0.139,0.742244 0,0 1.0668,0.463904 2.04082,0.231775 0,0 0.23213,-0.695677 0.32491,-0.974019 0.0928,-0.2783419 -0.18556,-1.2523599 -0.41769,-1.2985749 0,0 -0.88124,-0.09278 -1.57691,0.417335" />
    <g
       id="g578"
       transform="matrix(0.03527778,0,0,-0.03527778,-249.19868,143.81699)">
      <g
         clip-path="url(#clipPath584)"
         id="g580">
        <path
           id="path586"
           style="fill:#c3c5c3;fill-opacity:1;fill-rule:nonzero;stroke:none"
           d="m 3520.25,3651.11 c -42.12,184.66 -182.03,306.76 -183.44,307.98 l 13.05,15.15 c 5.95,-5.12 146.32,-127.67 189.89,-318.68 l -19.5,-4.45" />
        <path
           id="path588"
           style="fill:#c3c5c3;fill-opacity:1;fill-rule:nonzero;stroke:none"
           d="m 3621.14,3673.41 c -31.14,223.16 -206.46,296.6 -208.23,297.32 l 7.51,18.54 c 1.87,-0.76 187.81,-78.63 220.52,-313.1 l -19.8,-2.76" />
        <path
           id="path590"
           style="fill:#c3c5c3;fill-opacity:1;fill-rule:nonzero;stroke:none"
           d="m 3766.94,3671.01 c -35.61,148.91 -202.4,320.27 -204.08,321.99 l 14.28,14 c 7.02,-7.16 172.37,-177.09 209.26,-331.34 l -19.46,-4.65" />
        <path
           id="path592"
           style="fill:#c3c5c3;fill-opacity:1;fill-rule:nonzero;stroke:none"
           d="m 3866.69,3699.42 c -9.63,166.81 -184.31,301.28 -186.07,302.62 l 12.09,15.92 c 7.5,-5.69 183.79,-141.47 193.94,-317.38 l -19.96,-1.16" />
      </g>
    </g>
    <path
       id="path594"
       style="fill:#755337;fill-opacity:1;fill-rule:nonzero;stroke:none;stroke-width:0.0352777"
       d="m -154.43763,24.552711 c 0,0 0.61877,1.175101 1.67004,1.824566 1.05128,0.64911 2.07152,0.803979 2.19534,0.64911 0.12347,-0.154516 -0.49495,-0.772935 -0.21625,-0.803626 0.27799,-0.03105 1.6076,0.587375 2.28811,0.432858 0.68016,-0.154871 -1.05163,-2.566813 -1.57691,-2.814108 -0.526,-0.247299 -3.06141,0.123825 -3.67983,0.18556 -0.61842,0.06173 -0.6805,0.52564 -0.6805,0.52564" />
    <path
       id="path596"
       style="fill:#eb8c7a;fill-opacity:1;fill-rule:nonzero;stroke:none;stroke-width:0.0352777"
       d="m -169.71291,-2.1021199 c 0,0 -1.85526,-4.638322 -6.12281,-5.658556 -4.26685,-1.020586 -7.51382,0.742245 -9.7402,3.617736 -2.22638,2.875845 -6.95748,11.781367 -5.10222,19.8518629 1.85561,8.07085 7.97807,11.781366 14.56443,12.245271 6.58636,0.463902 17.90382,-0.556683 20.31576,-1.94804 2.41194,-1.391356 2.68993,-2.226381 1.94804,-3.061406 -0.74224,-0.834671 -4.08199,-2.504369 -5.47335,-4.545542 -1.39135,-2.040819 -10.38965,-20.5013259 -10.38965,-20.5013259" />
    <path
       id="path598"
       style="fill:#c34d41;fill-opacity:1;fill-rule:nonzero;stroke:none;stroke-width:0.0352777"
       d="m -133.0085,25.078348 c 0,0 -0.86607,-0.46355 -1.39136,-0.958496 -0.52599,-0.494596 -1.60831,-0.216606 -1.51553,0.09278 0.0928,0.309388 0.7112,1.360665 1.45344,1.515181 0.74225,0.154517 1.45345,-0.649464 1.45345,-0.649464" />
    <path
       id="path600"
       style="fill:#d15b49;fill-opacity:1;fill-rule:nonzero;stroke:none;stroke-width:0.0352777"
       d="m -135.97713,27.335773 c 0,0 1.73179,-3.587044 8.00876,-3.865386 6.27698,-0.277989 10.79183,1.051632 13.14168,2.350207 0,0 0.24765,0.154517 0.58738,0.154517 0.34042,0 1.57726,-0.34008 2.22673,-0.06174 0.64946,0.278341 0.031,1.020588 -0.37112,1.144058 -0.40182,0.123825 -1.45345,0.309388 -1.88595,0.123825 0,0 -0.83538,1.855258 -2.4123,2.164646 0,0 0.4639,0.247296 0.64946,0.741892 0.18557,0.494945 0.37113,0.649462 0.34008,0.835025 -0.0311,0.18556 -0.43285,0.277987 -0.86571,0.12347 -0.43286,-0.154516 -1.4224,-0.370768 -1.6697,-0.83467 0,0 -11.5958,2.78271 -17.31645,-1.546225 0,0 -0.80398,0.278342 -1.639,0.123825 -0.83468,-0.154517 -1.76248,-0.835025 -1.63866,-1.082323 0.12347,-0.24765 0.40217,0.123473 1.17511,-0.09278 0.77293,-0.216603 1.14405,-0.463902 1.66969,-0.278341" />
    <path
       id="path602"
       style="fill:#e4e0c8;fill-opacity:1;fill-rule:nonzero;stroke:none;stroke-width:0.0352777"
       d="m -197.5873,7.6846391 c 0,0 -0.43956,-0.146402 -0.83008,-0.43956 -0.39088,-0.292805 -0.48825,-0.341841 -0.7814,-1.123244 -0.29316,-0.781403 0.19543,-1.806575 0.19543,-1.806575 -0.073,-0.291747 -0.41768,-1.344436 -0.58808,-1.860197 -0.0434,-0.131586 0.0797,-0.263525 0.21167,-0.221192 0.76553,0.245534 1.40194,1.104547 1.40194,1.104547 0.39052,-0.195438 1.85561,-0.293158 1.85561,-0.293158 0.12876,-0.385939 0.36513,-0.996597 0.61172,-1.302103 0.11677,-0.144639 0.34078,-0.12065 0.43074,0.04233 0.40287,0.729544 0.1785,1.552927 0.1785,1.552927 0,0 0.48825,0.879123 0.68369,1.953331 0.19508,1.074208 -0.78141,1.904647 -0.78141,1.904647 0,0 1.26965,0.536927 1.56246,1.61149 0.71861,2.6338369 3.04764,7.9921779 2.53964,10.6457749 -0.43956,2.29517 -2.24648,1.562803 -2.24648,1.562803 0,0 0,0 0.7814,0.390525 0.7814,0.39088 5.21935,-0.03986 3.75426,-1.211791 -1.46509,-1.172279 -1.17193,-2.344209 -1.07456,-3.418417 0.0977,-1.07456 0.7814,-1.855962 1.56951,-2.151944 0.78775,-0.295981 1.75154,-0.582789 1.90112,0.479777 0.14957,1.062215 -1.8341,0.434975 -1.92053,2.704748 -0.0868,2.270125 2.84516,1.018469 2.21615,3.499909 -0.62865,2.481795 -6.83683,2.734737 -8.53969,2.174527 -1.70321,-0.559858 -1.34831,-1.641123 -1.34831,-1.641123 0,0 -0.95321,0.736248 -2.51566,-0.41416 -1.56281,-1.150057 -1.95333,-3.928182 -2.22286,-5.015797 -0.26952,-1.08726 1.18357,-1.361368 1.18357,-1.361368 0.0349,-2.937227 1.08797,-6.2924979 1.08797,-6.2924979 0,0 0.0977,-0.732367 0.68368,-1.074209" />
    <path
       id="path604"
       style="fill:#999f6b;fill-opacity:1;fill-rule:nonzero;stroke:none;stroke-width:0.0352777"
       d="m -112.47613,19.929911 c 0,0 -0.2794,0.305151 0.37077,0.170037 1.47849,-0.306917 4.06894,0.385939 4.63832,0.247298 1.14406,-0.27799 1.15958,-1.994252 1.11301,-3.246615 -0.0279,-0.75212 -0.15592,-1.604433 -0.29421,-2.315985 -0.0917,-0.473427 -0.30692,-0.04163 -0.381,-0.319617 -0.18556,-0.695677 -0.2914,-0.705556 -0.94086,-0.705556 -0.55492,0 -0.85514,-0.348192 -1.07104,0.651581 -0.037,0.169685 -0.0688,0.341135 -0.096,0.509765 -0.1852,1.159579 -0.27834,2.550935 -1.252,2.689929 0,0 -1.71627,-0.04621 -2.08704,-0.04621 -0.37147,0 0,2.365375 0,2.365375" />
    <path
       id="path606"
       style="fill:#d3db8c;fill-opacity:1;fill-rule:nonzero;stroke:none;stroke-width:0.0352777"
       d="m -106.64824,14.784646 c -0.0917,-0.473427 -0.18803,-0.884767 -0.26212,-1.162757 -0.18556,-0.695677 -0.3249,-1.159578 -0.97437,-1.159578 -0.55492,0 -0.94051,0.94897 -1.15641,1.948743 0,0 1.15641,0.587023 2.25425,0.416632 l 0.13865,-0.04304" />
    <path
       id="path608"
       style="fill:#252627;fill-opacity:1;fill-rule:nonzero;stroke:none;stroke-width:0.0352777"
       d="m -143.1357,10.838827 c 0,0 1.20615,-1.0202329 2.04118,-1.4375709 0.83467,-0.417687 1.02023,-0.463902 1.39135,-0.510469 0.37112,-0.04621 1.2058,0.417336 1.94804,0.695677 0.74225,0.278342 2.96863,2.6902839 4.40655,3.6643049 1.43757,0.974018 5.28743,2.597502 5.28743,2.597502 l 1.94804,-0.417335 c 0,0 1.0668,-0.974022 1.11337,-1.391709 0.0462,-0.417338 -3.89608,-4.9628789 -4.22099,-5.4267809 -0.32455,-0.46355 -4.54554,-6.539794 -5.38021,-7.56038 -0.83503,-1.02023397 -2.04082,-2.272595 -3.20076,-2.272595 -1.15957,0 -5.28743,0.37077003 -7.88493,2.643717 -2.5975,2.272947 -9.32286,6.725708 -9.32286,6.725708 l -0.41733,3.8960769 12.29112,-1.206146" />
    <path
       id="path610"
       style="fill:#d15b49;fill-opacity:1;fill-rule:nonzero;stroke:none;stroke-width:0.0352777"
       d="m -146.15053,-3.1685669 c 0,0 -0.55669,-0.60325 -0.55669,-0.742245 0,-0.138994 7.00405,-5.7516888 7.23583,-5.7979025 0.23213,-0.046214 0.4639,2.8292775 2.41194,4.2206335 0,0 -0.139,3.015191 1.29893,4.452761 l -6.21559,6.215591 -0.32456,-0.602897 -2.55094,-6.261805 -1.29892,-1.484136" />
    <path
       id="path612"
       style="fill:#ebe9da;fill-opacity:1;fill-rule:nonzero;stroke:none;stroke-width:0.0352777"
       d="m -137.4782,-5.0333509 c 0,0 -2.50331,-1.753305 -2.87443,-3.191227 l -6.54015,5.102224 c 0,0 0.51047,1.716264 2.18017,2.78306403 l 0.69568,0.556684 6.53873,-5.25074503" />
    <path
       id="path614"
       style="fill:#2a2b2c;fill-opacity:1;fill-rule:nonzero;stroke:none;stroke-width:0.0352777"
       d="m -158.16367,20.161686 c 0,0 1.62348,0.649462 2.78306,0.835025 1.15958,0.18556 2.55094,0.278341 4.40655,0.278341 1.8549,0 5.10187,0.324909 8.16327,0.278342 3.06141,-0.04657 7.23583,-0.834673 9.83298,-0.324908 2.5975,0.510468 12.43083,1.206145 15.81679,0.742243 3.38596,-0.463902 5.14844,-1.205793 5.14844,-1.205793 0,0 -0.46355,-1.948392 -0.0928,-3.757084 0,0 -1.99461,-0.278341 -3.66395,-0.602898 -1.67005,-0.324556 -10.3438,-1.762831 -11.27125,-1.994606 -0.92781,-0.231775 -3.84986,-0.788459 -5.05601,-1.0668 -1.2058,-0.278342 -2.96827,-0.927804 -4.82353,-1.530702 -1.85526,-0.602898 -5.70512,-1.345142 -6.21559,-1.437923 -0.51012,-0.09243 -0.92746,-0.09243 -1.0668,-0.324554 -0.139,-0.2317749 -4.77732,-0.8346729 -5.9369,-0.8346729 -1.15958,0 -5.19501,1.1130149 -5.19501,1.1130149 l -3.15383,7.699726 0.32456,2.133249" />
    <path
       id="path616"
       style="fill:#8e5f3f;fill-opacity:1;fill-rule:nonzero;stroke:none;stroke-width:0.0352777"
       d="m -166.55908,-6.6938759 c 0,0 1.20615,-2.6437164 1.34514,-3.7105161 l 0.69603,-2.04082 0.139,-2.458155 3.10762,0.370769 2.96862,2.319161 c 0,0 0.32456,2.7364976 0.32456,2.8758447 0,0.1389943 -0.18556,0.4639024 -0.41734,0.4639024 -0.23213,0 -0.51012,0.04621 -0.51012,0.04621 0,0 -0.27834,0.881239 -0.3249,1.159581 -0.0462,0.278342 -0.37077,0.649464 -1.11302,0.695678 -0.74224,0.04657 -1.11337,-0.138995 -1.11337,-0.138995 0,0 -0.83467,1.809045 -0.92745,2.411942 -0.0928,0.602897 -1.9946,-0.278342 -1.9946,-0.278342 l -2.18017,-1.71626" />
    <path
       id="path618"
       style="fill:#65432d;fill-opacity:1;fill-rule:nonzero;stroke:none;stroke-width:0.0352777"
       d="m -158.2113,-11.258467 c 0,0 0.23319,1.7815276 0.23319,1.9208747 0,0.1389943 -0.18556,0.4639024 -0.41734,0.4639024 -0.23213,0 -0.51012,0.04621 -0.51012,0.04621 0,0 -0.0409,0.0095 -0.0409,-0.2550581 0,-0.2645833 0.47061,-2.116667 0.47061,-2.116667 0,0 0.0367,-0.110419 0.26458,-0.05927" />
    <path
       id="path620"
       style="fill:#332116;fill-opacity:1;fill-rule:nonzero;stroke:none;stroke-width:0.0352777"
       d="m -160.06515,-11.563973 c 0,0 0.30904,-0.06174 0.64912,0.03069 0.34007,0.09278 0.49494,0.309386 0.58737,0.09278 0.0931,-0.216252 0.15487,-0.494594 -0.15452,-0.618066 -0.30903,-0.123825 -0.77293,-0.24765 -0.98919,-0.216606 -0.2166,0.03069 -0.43321,0.216606 -0.43321,0.371122 0,0.154517 0.27835,0.432859 0.34043,0.340078" />
    <path
       id="path622"
       style="fill:#332116;fill-opacity:1;fill-rule:nonzero;stroke:none;stroke-width:0.0352777"
       d="m -161.67311,-12.151701 c 0,0 -0.30938,-1.144058 -0.89676,-1.329619 -0.58773,-0.185561 -0.98954,-0.494594 -1.20615,-0.123825 -0.21625,0.371122 0.12383,1.731786 1.05164,2.010128 0,0 0.37076,0.154516 0.0307,0.556683 -0.34008,0.402167 -1.20615,1.1440583 -1.57692,1.175103 -0.37112,0.031044 -0.92781,-0.15487 -1.02059,-0.185561 -0.0928,-0.03104 -0.71084,-0.865717 -1.02023,-1.607961 -0.30939,-0.742245 -0.46567,-1.179689 -0.24906,-2.262011 0.21661,-1.082323 1.45521,-3.615972 2.9083,-3.582106 0.49565,0.01129 0.7112,0.03069 0.7112,0.03069 0,0 -0.21202,-0.908403 0.0233,-1.316567 0.20673,-0.359127 0.41875,-0.311855 0.50518,0.09313 0.0988,0.464255 0.55386,1.161697 0.55386,1.161697 0,0 -0.0928,-0.896761 0.0617,-1.020586 0.15452,-0.123825 0.37112,0.494947 0.68051,0.773289 0.30903,0.278341 0.18556,0.7112 0.18556,0.7112 0,0 0.64911,-0.09278 1.11301,0.03069 0.4639,0.123825 1.29858,1.020586 1.36067,1.51518 0.0617,0.494948 0.46355,1.267884 0.95849,1.762831 0.4946,0.494594 0.43286,0.772936 0.43286,0.958497 0,0.185561 -0.61842,1.082322 -1.20579,0.803981 -0.58772,-0.278343 -1.58538,-0.794457 -1.71061,-0.859015 -0.23389,-0.121003 -0.52141,-0.04692 -0.67134,0.169686 -0.16969,0.245181 -0.36618,0.541514 -0.43215,0.689328 -0.12383,0.278342 -0.4946,-0.03104 -0.58738,-0.15487" />
    <path
       id="path624"
       style="fill:#a1ae63;fill-opacity:1;fill-rule:nonzero;stroke:none;stroke-width:0.0352777"
       d="m -170.14577,-4.3591919 c 0,0 -0.98954,2.47403 -0.92781,3.77225203 0.0617,1.298928 2.90689,11.13225387 3.64878,12.36909387 0.74225,1.23684 1.97909,3.648782 1.97909,3.648782 0,0 4.57658,3.772251 5.75133,4.391025 1.17511,0.618418 1.53071,0.339725 1.53071,0.339725 0,0 2.42746,-2.875492 2.86032,-4.916313 0.43286,-2.040819 0.43286,-2.597502 0.61842,-3.278011 0.18556,-0.680156 0.43286,-2.0404659 0.49459,-2.4115889 0.0621,-0.371121 0.12383,-2.47403 0.12383,-2.47403 0,0 -4.5145,-2.720975 -4.82389,-3.215569 -0.30903,-0.494947 -11.25537,-8.225366 -11.25537,-8.225366" />
    <g
       id="g626"
       transform="matrix(0.03527778,0,0,-0.03527778,-249.19868,143.81699)">
      <g
         clip-path="url(#clipPath632)"
         id="g628">
        <path
           id="path634"
           style="fill:#419c63;fill-opacity:1;fill-rule:nonzero;stroke:none"
           d="m 2468.76,3535.86 c 0,0 147.26,87.66 194.59,259.45 47.34,171.8 17.53,171.8 17.53,171.8 l -26.29,5.26 c 0,0 -56.96,-166.38 -98.17,-219.13 -43.83,-56.1 -57.85,-85.9 -126.22,-110.44 -36.04,-12.94 -68.37,-17.53 -68.37,-17.53 0,0 43.82,-45.58 49.08,-49.09 5.26,-3.5 57.85,-40.32 57.85,-40.32" />
        <path
           id="path636"
           style="fill:#419c63;fill-opacity:1;fill-rule:nonzero;stroke:none"
           d="m 2300.47,3725.19 c 0,0 142,-10.52 236.66,120.96 94.67,131.48 101.68,156.02 101.68,156.02 l -29.8,35.06 c 0,0 -154.27,-173.55 -215.63,-191.08 -61.35,-17.53 -131.48,-12.27 -131.48,-12.27 l 38.57,-108.69" />
        <path
           id="path638"
           style="fill:#419c63;fill-opacity:1;fill-rule:nonzero;stroke:none"
           d="m 2228.6,3942.57 c 0,0 80.64,-22.79 180.56,26.3 99.93,49.08 168.3,113.95 168.3,113.95 l -17.54,43.82 c 0,0 -235.78,-104.75 -373.84,-29.8 l 42.52,-154.27" />
      </g>
    </g>
    <path
       id="path640"
       style="fill:#8e5f3f;fill-opacity:1;fill-rule:nonzero;stroke:none;stroke-width:0.0352777"
       d="m -161.42581,7.8239871 c 0,0 4.14338,3.4014839 7.05026,3.5249569 2.90654,0.123825 6.06073,-3.7105169 6.92644,-5.3802149 0.86572,-1.669697 1.29858,-2.535413 1.73179,-2.720974 0.43286,-0.185562 2.10255,-0.927806 2.10255,-0.927806 l 1.17511,-1.48413597 -1.73179,-2.35020603 c 0,0 -1.23684,0.61842003 -1.97908,1.91734803 -0.74225,1.29857497 -3.71052,3.58669097 -4.82353,4.14337497 -1.11337,0.556683 -2.53577,1.484136 -3.03072,1.422399 -0.49459,-0.06174 -3.58669,-2.102555 -3.77225,-2.22638 -0.18556,-0.123825 -3.64878,4.081638 -3.64878,4.081638" />
    <path
       id="path642"
       style="fill:#8e5f3f;fill-opacity:1;fill-rule:nonzero;stroke:none;stroke-width:0.0352777"
       d="m -144.3877,-1.4526559 c 0,0 1.02023,-0.231775 1.48413,-0.37077 0.46391,-0.139347 0.69568,-0.557036 0.92746,-0.557036 0.23212,0 0.41769,0.510469 0.0928,0.835025 -0.32456,0.324908 -1.71592,1.25271403 -1.8087,1.53070303 -0.0928,0.278341 0.38559,2.01506597 0.38559,2.01506597 l -0.97014,0.646995 -0.85337,-2.42993297 c 0,0 0.51012,-1.48448903 0.74224,-1.67005003" />
    <path
       id="path644"
       style="fill:#65432d;fill-opacity:1;fill-rule:nonzero;stroke:none;stroke-width:0.0352777"
       d="m -162.50037,-12.213437 c 0,0 -0.0233,-0.602897 -0.41734,-0.765527 -0.3944,-0.161925 -0.41769,0.06985 -0.34819,0.301977 0.0698,0.231775 0.18556,0.533048 0.34819,0.486834 0.16228,-0.04621 0.37077,0.09278 0.41734,-0.02328" />
    <path
       id="path646"
       style="fill:#9d4f47;fill-opacity:1;fill-rule:nonzero;stroke:none;stroke-width:0.0352777"
       d="m -159.41639,-9.8434757 c 0,0 -0.5461,-0.3901723 -1.01459,-0.4215693 -0.46813,-0.03104 -0.46813,0.5933723 -0.29633,0.639939 0.17145,0.046919 0.67098,0.078317 0.96767,0.218722 0.29668,0.1404056 0.46813,-0.2811637 0.34325,-0.4370917" />
    <path
       id="path648"
       style="fill:#332116;fill-opacity:1;fill-rule:nonzero;stroke:none;stroke-width:0.0352777"
       d="m -159.36065,-10.763873 c 0,0.126647 -0.10266,0.229306 -0.22931,0.229306 -0.12664,0 -0.2293,-0.102659 -0.2293,-0.229306 0,-0.126647 0.10266,-0.229305 0.2293,-0.229305 0.12665,0 0.22931,0.102658 0.22931,0.229305" />
    <path
       id="path650"
       style="fill:#acc06a;fill-opacity:1;fill-rule:nonzero;stroke:none;stroke-width:0.0352777"
       d="m -166.43526,-7.2039919 c 0,0 -2.28811,0.618419 -3.15383,1.607961 -0.86607,0.989541 -1.11337,3.587044 -1.05128,4.328936 0.0617,0.74224403 1.917,2.968625 3.15384,4.081991 1.23684,1.113014 5.62786,5.6896 5.99863,5.62751 0.37148,-0.06173 3.95817,-3.463218 4.39103,-4.823882 0,0 0.18556,-0.185208 -0.0617,-0.494594 -0.2473,-0.309034 -1.48414,-2.04082 -2.04083,-3.40148397 -0.55668,-1.36066403 -1.73425,-4.08375503 -3.15418,-5.19500503 -1.4224,-1.113014 -3.15383,-1.793522 -4.08164,-1.731433" />
    <g
       id="g652"
       transform="matrix(0.03527778,0,0,-0.03527778,-249.19868,143.81699)">
      <g
         clip-path="url(#clipPath658)"
         id="g654">
        <path
           id="path660"
           style="fill:#4ca86b;fill-opacity:1;fill-rule:nonzero;stroke:none"
           d="m 2228.6,3942.57 c 0,0 80.64,-22.79 180.56,26.3 99.93,49.08 168.3,113.95 168.3,113.95 l -17.54,43.82 c 0,0 -235.78,-104.75 -373.84,-29.8 l 42.52,-154.27" />
        <path
           id="path662"
           style="fill:#4ca86b;fill-opacity:1;fill-rule:nonzero;stroke:none"
           d="m 2195.29,4166.52 c 0,0 85.46,-17.09 163.04,-3.94 77.56,13.15 143.31,42.07 143.31,42.07 l -19.73,28.93 -39.44,24.98 c 0,0 -120.96,-34.18 -206.43,-13.15 l -40.75,-78.89" />
        <path
           id="path664"
           style="fill:#4ca86b;fill-opacity:1;fill-rule:nonzero;stroke:none"
           d="m 2389.88,3910.14 c 0,0 136.74,34.19 193.27,138.05 l 27.61,-35.49 c 0,0 -122.27,-155.15 -159.09,-160.41 l -61.79,57.85" />
      </g>
    </g>
    <path
       id="path666"
       style="fill:#faf8e7;fill-opacity:1;fill-rule:nonzero;stroke:none;stroke-width:0.0352777"
       d="m -144.24871,0.40295513 c 0,0 -0.41734,0.74189097 -0.18556,1.71591097 0.23177,0.974019 1.5307,3.432527 1.5307,3.432527 l 5.98347,-5.79790197 c 0,0 -0.74225,-3.57152203 -0.6029,-4.77767003 l -6.72571,5.42713403" />
    <path
       id="path668"
       style="fill:#eb8c7a;fill-opacity:1;fill-rule:nonzero;stroke:none;stroke-width:0.0352777"
       d="m -163.8688,22.481198 c 0,0 -1.29857,-6.122811 -1.48413,-8.720312 -0.18556,-2.59715 -1.39136,-8.3488399 -4.17442,-11.3174649 -2.78307,-2.96827197 -5.38057,-3.710516 -6.30837,-3.710516 -0.92746,0 -2.68994,3.618088 -2.68994,3.618088 l 8.81275,15.7698709 5.84411,4.360334" />
    <path
       id="path670"
       style="fill:#ec6859;fill-opacity:1;fill-rule:nonzero;stroke:none;stroke-width:0.0352777"
       d="m -158.29985,21.123711 c -0.0247,0 -0.0501,-0.0071 -0.0723,-0.02151 -1.88665,-1.23825 -6.5853,-4.993921 -6.7825,-5.191125 -0.18451,-0.184502 -0.28611,-1.420987 -0.33056,-2.142067 -0.20355,-2.853266 -1.50777,-8.4282119 -4.13879,-11.2352649 -2.72062,-2.90160797 -5.25286,-3.668547 -6.21171,-3.668547 -0.073,0 -0.13229,-0.05927 -0.13229,-0.132291 0,-0.07303 0.0593,-0.132292 0.13229,-0.132292 0.99872,0 3.62233,0.78422503 6.40469,3.752497 3.01554,3.216628 4.06152,9.3186259 4.21005,11.3986019 0.0522,0.851959 0.16545,1.848909 0.25682,1.976261 0.19226,0.191558 4.85951,3.920773 6.73699,5.153025 0.061,0.04022 0.0783,0.122063 0.0381,0.183091 -0.0254,0.03881 -0.0677,0.05962 -0.11077,0.05962" />
    <path
       id="path672"
       style="fill:#ec6859;fill-opacity:1;fill-rule:nonzero;stroke:none;stroke-width:0.0352777"
       d="m -165.72406,17.511264 c -0.0603,0 -0.11465,-0.04127 -0.12876,-0.102658 -2.73861,-11.8663849 -10.16,-16.2916289 -10.23444,-16.3350209 -0.0635,-0.03634 -0.085,-0.11747497 -0.0483,-0.18062197 0.0367,-0.06315 0.11818,-0.08467 0.18098,-0.04798 0.0755,0.0441 7.59566,4.52719697 10.35932,16.50400187 0.0166,0.07126 -0.0279,0.142524 -0.0988,0.15875 -0.0102,0.0024 -0.0204,0.0035 -0.03,0.0035" />
  </g>
</svg>
