<?xml version="1.0" encoding="UTF-8" standalone="no"?>
<svg
   xmlns:dc="http://purl.org/dc/elements/1.1/"
   xmlns:cc="http://creativecommons.org/ns#"
   xmlns:rdf="http://www.w3.org/1999/02/22-rdf-syntax-ns#"
   xmlns:svg="http://www.w3.org/2000/svg"
   xmlns="http://www.w3.org/2000/svg"
   xmlns:sodipodi="http://sodipodi.sourceforge.net/DTD/sodipodi-0.dtd"
   xmlns:inkscape="http://www.inkscape.org/namespaces/inkscape"
   sodipodi:docname="leer1.svg"
   inkscape:version="1.0 (4035a4f, 2020-05-01)"
   id="svg1103"
   version="1.1"
   viewBox="0 0 66.471901 155.895"
   height="155.895mm"
   width="66.471901mm">
  <defs
     id="defs1097" />
  <sodipodi:namedview
     inkscape:window-maximized="0"
     inkscape:window-y="123"
     inkscape:window-x="0"
     inkscape:window-height="755"
     inkscape:window-width="1252"
     showgrid="false"
     inkscape:document-rotation="0"
     inkscape:current-layer="layer1"
     inkscape:document-units="mm"
     inkscape:cy="443.17617"
     inkscape:cx="387.04476"
     inkscape:zoom="0.35"
     inkscape:pageshadow="2"
     inkscape:pageopacity="0.0"
     borderopacity="1.0"
     bordercolor="#666666"
     pagecolor="#ffffff"
     id="base" />
  <metadata
     id="metadata1100">
    <rdf:RDF>
      <cc:Work
         rdf:about="">
        <dc:format>image/svg+xml</dc:format>
        <dc:type
           rdf:resource="http://purl.org/dc/dcmitype/StillImage" />
        <dc:title></dc:title>
      </cc:Work>
    </rdf:RDF>
  </metadata>
  <g
     transform="translate(-3.4277404,-30.909638)"
     id="layer1"
     inkscape:groupmode="layer"
     inkscape:label="Layer 1">
    <g
       transform="matrix(0.63395411,0,0,-0.68488732,-52.641063,239.90937)"
       id="g1095">
      <path
         d="m 109.073,172.318 3.174,-7.646 2.019,1.731 6.348,11.541 -0.289,2.742 -1.731,2.884 h -2.308 l -7.213,-11.252"
         style="fill:#faf8e7;fill-opacity:1;fill-rule:nonzero;stroke:none;stroke-width:0.1"
         id="path172" />
      <path
         d="m 92.1938,177.944 c 0,0 1.2984,-4.183 1.2984,-4.905 l 18.7548,-8.367 c 0,0 1.586,1.443 -2.02,6.059 l -18.0332,7.213"
         style="fill:#eae4ca;fill-opacity:1;fill-rule:nonzero;stroke:none;stroke-width:0.1"
         id="path174" />
      <path
         d="m 163.267,88.1172 c 0,0 -0.961,3.366 -1.058,4.3277 -0.096,0.961 -7.213,0.1922 -7.213,0.1922 0,0 0.385,-4.7121 0.385,-5.0973 0,-0.3847 7.886,0.5774 7.886,0.5774"
         style="fill:#f9a885;fill-opacity:1;fill-rule:nonzero;stroke:none;stroke-width:0.1"
         id="path176" />
      <path
         d="m 163.652,89.848 c 0,0 7.309,-5.3859 9.425,-6.3468 2.116,-0.9621 3.27,-1.7313 4.809,-1.7313 1.539,0 1.539,-1.9238 1.154,-2.6937 -0.385,-0.7692 -3.462,-0.7692 -5.963,-0.7692 -2.5,0 -6.732,0.1918 -8.656,0.7692 -1.923,0.5769 -3.366,1.2508 -3.751,0.0968 0,0 -3.462,-1.6351 -8.078,0.0961 0,0 -0.096,5.77 0.288,7.502 0.385,1.7309 2.116,2.116 2.116,2.116 0,0 6.155,-1.1551 8.656,0.9609"
         style="fill:#0a2c32;fill-opacity:1;fill-rule:nonzero;stroke:none;stroke-width:0.1"
         id="path178" />
      <path
         d="m 128.452,91.9641 c 0,0 -1.154,-4.2321 -1.154,-5.193 0,-0.9621 -6.348,0.9609 -6.348,0.9609 l -0.962,1.5399 0.962,4.423 7.502,-1.7308"
         style="fill:#f9a885;fill-opacity:1;fill-rule:nonzero;stroke:none;stroke-width:0.1"
         id="path180" />
      <path
         d="m 127.971,88.1172 c 0,0 1.058,-2.3082 1.154,-4.0402 0.096,-1.7301 0.096,-4.6161 -0.192,-5.0969 -0.289,-0.4813 -3.078,-1.4422 -5.482,-1.4422 -2.405,0 -4.328,0.3851 -4.713,0.673 -0.384,0.2879 -0.192,1.4422 -1.058,1.25 -0.865,-0.1918 -0.288,-1.4418 -2.597,-1.4418 -2.308,0 -10.194,-0.5781 -12.694,0.384 0,0 -0.962,0.4809 -0.962,0.9617 0,0.4813 -0.193,1.7321 0.288,2.2122 0.481,0.4812 4.424,0.7699 7.406,2.789 2.981,2.0199 10.387,5.0981 10.867,5.2899 0.481,0.1921 3.847,-2.9809 7.983,-1.5387"
         style="fill:#0a2c32;fill-opacity:1;fill-rule:nonzero;stroke:none;stroke-width:0.1"
         id="path182" />
      <path
         d="m 170.384,208.816 c 0,0 1.443,-14.425 1.443,-16.157 0,-1.731 -6.925,-1.154 -6.925,-1.154 l -4.905,16.446 10.387,0.865"
         style="fill:#0a2c32;fill-opacity:1;fill-rule:nonzero;stroke:none;stroke-width:0.1"
         id="path184" />
      <path
         d="m 133.453,211.125 -0.288,-14.715 -6.925,2.02 -1.443,5.481 c 0,0 0.289,6.06 2.02,8.944 1.731,2.886 6.636,-1.73 6.636,-1.73"
         style="fill:#0a2c32;fill-opacity:1;fill-rule:nonzero;stroke:none;stroke-width:0.1"
         id="path186" />
      <path
         d="m 165.768,207.085 c 0,0 3.173,-6.347 2.596,-7.501 -0.576,-1.154 -3.462,-4.04 -3.462,-4.04 0,0 6.348,-0.288 7.79,0.289 0,0 1.443,-47.606 -8.367,-103.0041 0,0 -6.925,-3.173 -11.252,-0.8648 0,0 -4.905,81.3639 -5.771,87.7119 0,0 -7.79,-56.263 -15.869,-88.2889 0,0 -8.367,-3.1742 -12.983,2.0188 0,0 2.596,54.2431 3.751,79.3451 1.153,25.102 2.596,32.314 2.596,32.314 0,0 2.02,-4.039 5.626,-4.616 0,0 -2.019,3.319 -2.019,4.328 0,1.01 2.596,6.203 2.596,6.203 l 34.768,-3.895"
         style="fill:#105762;fill-opacity:1;fill-rule:nonzero;stroke:none;stroke-width:0.1"
         id="path188" />
      <path
         d="m 147.328,182.06 c 0.001,0 0.001,0 0.002,0 -0.001,0 -0.001,0 -0.002,0 z m -0.026,-2.759 c -0.145,0 -0.283,0.085 -0.344,0.227 -0.372,0.867 -0.418,2.584 0.045,3.088 0.152,0.164 0.363,0.222 0.562,0.156 0.348,-0.117 2.456,-0.258 3.47,-0.142 0.518,1.029 0.797,9.114 0.797,16.377 0,0.207 0.168,0.375 0.375,0.375 0.207,0 0.375,-0.168 0.375,-0.375 0,-16.916 -0.968,-17.054 -1.332,-17.106 -0.958,-0.138 -3,-0.029 -3.738,0.115 -0.124,-0.371 -0.169,-1.485 0.135,-2.193 0.082,-0.19 -0.006,-0.41 -0.197,-0.492 -0.048,-0.02 -0.098,-0.03 -0.148,-0.03"
         style="fill:#0a2c32;fill-opacity:1;fill-rule:nonzero;stroke:none;stroke-width:0.1"
         id="path190" />
      <path
         d="m 142.253,268.397 c 0,0 2.741,6.203 3.606,8.511 0.866,2.309 9.954,-5.049 9.954,-5.049 l -0.288,-6.347 -6.059,-1.155 -7.213,4.04"
         style="fill:#f89d77;fill-opacity:1;fill-rule:nonzero;stroke:none;stroke-width:0.1"
         id="path192" />
      <path
         d="m 144.609,282.486 c 0,0 -0.985,-8.535 4.52,-11.348 4.342,-2.219 7.695,-0.866 9.041,-0.385 1.347,0.481 3.366,2.116 4.809,4.905 1.442,2.789 2.404,5.771 2.404,5.771 0,0 2.789,0.865 3.847,2.404 1.058,1.539 0.89,2.933 -0.36,3.029 -1.251,0.096 -3.968,-1.009 -3.968,-1.009 l -0.192,5.578 -12.888,4.328 -5.578,-1.347 -0.481,-6.444"
         style="fill:#f9a885;fill-opacity:1;fill-rule:nonzero;stroke:none;stroke-width:0.1"
         id="path194" />
      <path
         d="m 149.129,294.989 c 0,0 0.097,-1.538 -1.153,-3.655 -1.251,-2.115 -2.789,-3.173 -2.789,-3.173 l -0.578,-7.213 c 0,0 -1.154,-0.096 -1.635,0.865 -0.48,0.962 -1.346,2.886 -1.346,4.136 0,1.25 1.539,10.964 2.116,12.887 0.577,1.924 1.827,3.559 2.981,3.462 1.154,-0.095 2.789,-0.769 2.789,-0.769 0,0 0.193,-5.674 -0.385,-6.54"
         style="fill:#332116;fill-opacity:1;fill-rule:nonzero;stroke:none;stroke-width:0.1"
         id="path196" />
      <path
         d="m 152.496,286.069 c 0,0 -2.02,0.288 -2.525,0.072 -0.505,-0.216 -1.443,1.515 -1.298,1.876 0.144,0.36 1.587,0.793 2.885,0.721 1.298,-0.072 2.38,0 2.164,-1.299 -0.217,-1.298 -0.649,-1.298 -1.226,-1.37"
         style="fill:#563828;fill-opacity:1;fill-rule:nonzero;stroke:none;stroke-width:0.1"
         id="path198" />
      <path
         d="m 163.604,283.617 c 0,0 -1.443,0.577 -2.597,0.577 -1.154,0 -1.082,2.236 -0.865,2.524 0.216,0.289 2.452,0.073 3.534,-0.288 1.082,-0.361 1.01,-1.01 0.866,-2.02 -0.145,-1.01 -0.722,-0.938 -0.938,-0.793"
         style="fill:#563828;fill-opacity:1;fill-rule:nonzero;stroke:none;stroke-width:0.1"
         id="path200" />
      <path
         d="m 149.514,301.529 c 0,0 2.116,2.116 4.04,2.886 1.923,0.769 5.674,1.153 5.674,0.096 0,-1.058 -0.866,-1.732 0.961,-2.501 1.828,-0.769 5.482,-0.962 7.887,-4.905 2.404,-3.943 0.481,-5.867 -0.288,-7.309 -0.77,-1.443 -0.289,-2.789 -2.886,-3.943 -2.596,-1.154 -5.482,0.865 -7.79,2.404 -2.308,1.539 -1.827,1.539 -3.943,2.308 -2.116,0.769 -3.943,1.731 -4.136,3.366 -0.192,1.635 -0.192,6.636 0.481,7.598"
         style="fill:#332116;fill-opacity:1;fill-rule:nonzero;stroke:none;stroke-width:0.1"
         id="path202" />
      <path
         d="m 165.551,283.4 c 0,0 2.381,2.381 3.03,1.731 0.649,-0.649 -2.525,-2.596 -2.813,-2.452 -0.289,0.144 -0.577,0.505 -0.217,0.721"
         style="fill:#b97e63;fill-opacity:1;fill-rule:nonzero;stroke:none;stroke-width:0.1"
         id="path204" />
      <path
         d="m 157.473,276.115 c 0,0 -3.823,-0.361 -6.348,2.813 0,0 -0.793,0.721 -0.721,-0.217 0.072,-0.937 0.555,-2.878 3.318,-4.039 1.659,-0.697 3.631,0.265 3.751,1.443"
         style="fill:#ffffff;fill-opacity:1;fill-rule:nonzero;stroke:none;stroke-width:0.1"
         id="path206" />
      <path
         d="m 147.158,283.16 c 0,0 3.27,-0.337 3.414,-0.962 0.144,-0.625 -0.048,-1.106 -1.683,-0.962 -1.635,0.144 -2.356,0.048 -2.404,0.77 -0.048,0.721 0.048,1.25 0.673,1.154"
         style="fill:#f68a5c;fill-opacity:1;fill-rule:nonzero;stroke:none;stroke-width:0.1"
         id="path208" />
      <path
         d="m 163.652,278.784 c 0,0 -2.116,1.394 -2.837,1.443 -0.722,0.047 -1.251,-0.722 -0.722,-1.106 0.53,-0.385 1.972,-2.213 2.453,-2.068 0.481,0.144 1.298,1.202 1.106,1.731"
         style="fill:#f68a5c;fill-opacity:1;fill-rule:nonzero;stroke:none;stroke-width:0.1"
         id="path210" />
      <path
         d="m 143.119,270.272 0.721,1.876 c 0,0 -7.935,1.731 -21.063,-7.213 -13.127,-8.945 -19.331,-40.827 -18.898,-50.925 0.433,-10.099 0.866,-13.128 1.875,-14.138 1.011,-1.01 5.915,-3.606 8.512,-1.875 0,0 5.049,9.81 5.771,14.57 0.721,4.761 0.288,8.512 2.164,12.551 1.875,4.039 4.76,13.128 4.76,13.128 0,0 -3.607,-15.147 -3.751,-17.744 -0.144,-2.597 -1.442,-7.647 7.646,-11.541 9.089,-3.896 26.544,-7.213 36.643,-3.606 10.098,3.606 9.666,6.635 9.666,8.799 0,2.164 0,5.338 0,5.338 0,0 3.317,-3.895 8.511,-2.019 5.194,1.875 10.531,13.993 5.77,24.957 -4.76,10.964 -19.475,24.38 -34.334,26.977 l -1.299,-0.144 -0.144,-1.155 c 0,0 -5.337,-4.328 -12.55,2.164"
         style="fill:#d8e5ed;fill-opacity:1;fill-rule:nonzero;stroke:none;stroke-width:0.1"
         id="path212" />
      <path
         d="m 126.961,237.871 c -0.028,0 -0.058,0.003 -0.087,0.01 -0.202,0.049 -0.326,0.251 -0.278,0.452 1.423,5.976 2.437,12.315 2.447,12.379 0.033,0.205 0.222,0.344 0.43,0.311 0.204,-0.032 0.343,-0.225 0.311,-0.429 -0.01,-0.064 -1.029,-6.432 -2.458,-12.435 -0.041,-0.172 -0.195,-0.288 -0.365,-0.288"
         style="fill:#9ca6ab;fill-opacity:1;fill-rule:nonzero;stroke:none;stroke-width:0.1"
         id="path214" />
      <path
         d="m 177.164,219.117 c -0.076,0 -0.153,0.024 -0.219,0.071 -0.079,0.057 -7.943,5.88 -9.098,19.17 -0.005,0.054 0.002,0.108 0.02,0.159 0.018,0.048 1.827,4.899 8.379,3.267 l 0.14,-0.032 c 2.803,-0.604 6.062,-2.564 9.685,-5.824 0.154,-0.138 0.167,-0.375 0.028,-0.53 -0.139,-0.154 -0.375,-0.166 -0.53,-0.027 -3.524,3.172 -6.667,5.072 -9.341,5.649 l -0.165,0.037 c -5.519,1.377 -7.224,-2.146 -7.461,-2.721 1.15,-12.867 8.706,-18.484 8.782,-18.54 0.168,-0.121 0.205,-0.356 0.084,-0.524 -0.073,-0.101 -0.188,-0.155 -0.304,-0.155"
         style="fill:#9ca6ab;fill-opacity:1;fill-rule:nonzero;stroke:none;stroke-width:0.1"
         id="path216" />
      <path
         d="m 181.06,238.881 c -0.165,0 -0.316,0.109 -0.362,0.275 -0.055,0.199 0.062,0.406 0.262,0.461 4.253,1.173 6.211,0.452 6.293,0.421 0.194,-0.074 0.29,-0.291 0.216,-0.484 -0.074,-0.193 -0.289,-0.291 -0.483,-0.216 -0.025,0.01 -1.857,0.651 -5.827,-0.443 -0.033,-0.01 -0.067,-0.014 -0.099,-0.014"
         style="fill:#9ca6ab;fill-opacity:1;fill-rule:nonzero;stroke:none;stroke-width:0.1"
         id="path218" />
      <path
         d="m 165.191,264.935 c 0,0 11.108,9.521 11.541,8.944 0.433,-0.577 1.731,-4.905 1.731,-4.905 l -12.118,-5.049 -1.154,1.01"
         style="fill:#faf8e7;fill-opacity:1;fill-rule:nonzero;stroke:none;stroke-width:0.1"
         id="path220" />
      <path
         d="m 161.584,241.564 3.607,23.371 16.013,6.78 -4.617,-23.947 -15.003,-6.204"
         style="fill:#eae4ca;fill-opacity:1;fill-rule:nonzero;stroke:none;stroke-width:0.1"
         id="path222" />
      <path
         d="m 161.584,241.564 3.607,23.371 -17.023,8.655 -4.184,-23.37 17.6,-8.656"
         style="fill:#faf8e7;fill-opacity:1;fill-rule:nonzero;stroke:none;stroke-width:0.1"
         id="path224" />
      <path
         d="m 160.286,261.761 -1.01,-5.626 -9.088,4.183 1.009,6.203 9.089,-4.76"
         style="fill:#d15b49;fill-opacity:1;fill-rule:nonzero;stroke:none;stroke-width:0.1"
         id="path226" />
      <path
         d="m 167.932,243.367 0.288,1.515 c 0,0 -0.432,3.318 0.217,5.554 0.649,2.236 2.308,4.617 2.668,6.204 0.361,1.587 1.083,2.019 1.731,1.947 0.65,-0.072 1.082,0.144 1.66,-0.072 0.577,-0.217 1.442,-2.453 1.803,-4.544 0.361,-2.092 -1.01,-6.781 -1.01,-6.781 l 1.298,0.578 c 0,0 -0.504,-1.515 -1.514,-2.381 -1.01,-0.866 -1.948,-1.443 -1.948,-1.443 l -5.193,-0.577"
         style="fill:#f9a885;fill-opacity:1;fill-rule:nonzero;stroke:none;stroke-width:0.1"
         id="path228" />
      <path
         d="m 168.22,238.391 c -1.442,1.442 -0.721,5.193 -0.721,5.193 0.721,1.01 5.049,1.442 6.059,0.865 1.01,-0.577 2.597,-3.029 2.597,-3.029 0,0 -2.02,0.842 -4.665,-0.072 -2.645,-0.914 -3.27,-2.957 -3.27,-2.957"
         style="fill:#9ca6ab;fill-opacity:1;fill-rule:nonzero;stroke:none;stroke-width:0.1"
         id="path230" />
      <path
         d="m 119.892,177.512 -6.203,-11.109 c 0,0 0.289,-0.721 0.721,-0.577 0.433,0.145 6.636,11.397 6.636,11.397 0,0 0.866,4.905 -1.875,7.791 l -21.9276,9.377 -8.8004,-15.437 22.072,-10.099 7.791,13.561 c 0,0 1.731,-0.576 1.586,-4.904"
         style="fill:#d15b49;fill-opacity:1;fill-rule:nonzero;stroke:none;stroke-width:0.1"
         id="path232" />
      <path
         d="m 110.804,193.524 c 0,0 1.731,-1.875 2.308,-3.317 0.577,-1.443 0.433,-2.741 0.433,-2.741 l -2.309,1.01 c 0,0 -0.288,-1.155 -1.875,-3.174 -1.587,-2.02 -3.895,-6.203 -4.328,-8.079 -0.432,-1.875 -1.442,-1.154 -1.731,-0.721 -0.288,0.433 -0.288,2.741 -0.288,3.174 0,0.432 -1.443,1.298 -1.876,2.452 -0.432,1.154 -0.577,2.452 -0.721,4.473 -0.145,2.019 1.442,5.048 2.885,6.346 1.443,1.299 2.02,2.597 2.02,2.597 l 5.482,-2.02"
         style="fill:#f9a885;fill-opacity:1;fill-rule:nonzero;stroke:none;stroke-width:0.1"
         id="path234" />
      <path
         d="m 112.968,198.285 c 0,0 -0.145,-4.039 -1.443,-5.77 0,0 -4.616,-0.433 -6.924,1.731 0,0 0.865,4.616 1.587,6.203 l 6.78,-2.164"
         style="fill:#9ca6ab;fill-opacity:1;fill-rule:nonzero;stroke:none;stroke-width:0.1"
         id="path236" />
      <path
         d="m 174.496,251.052 c -0.019,0 -0.039,0.002 -0.059,0.007 -0.134,0.032 -0.217,0.167 -0.185,0.301 0.005,0.021 0.496,2.066 0.427,3.025 -0.07,0.976 -0.85,4.037 -0.858,4.068 -0.034,0.134 0.046,0.27 0.18,0.304 0.135,0.035 0.27,-0.047 0.304,-0.18 0.033,-0.127 0.8,-3.136 0.873,-4.156 0.074,-1.036 -0.418,-3.091 -0.439,-3.178 -0.028,-0.115 -0.131,-0.191 -0.243,-0.191"
         style="fill:#f07754;fill-opacity:1;fill-rule:nonzero;stroke:none;stroke-width:0.1"
         id="path238" />
      <path
         d="m 172.765,251.268 c -0.037,0 -0.076,0.009 -0.112,0.026 -0.123,0.062 -0.174,0.212 -0.112,0.335 0.004,0.01 0.482,0.996 0.55,2.856 0.072,1.911 -0.07,3.992 -0.071,4.013 -0.009,0.138 0.095,0.257 0.232,0.267 0.137,0.013 0.257,-0.095 0.267,-0.233 0.002,-0.021 0.144,-2.127 0.072,-4.066 -0.073,-1.979 -0.581,-3.016 -0.603,-3.06 -0.044,-0.087 -0.132,-0.138 -0.223,-0.138"
         style="fill:#f07754;fill-opacity:1;fill-rule:nonzero;stroke:none;stroke-width:0.1"
         id="path240" />
      <path
         d="m 171.178,251.484 c -0.023,0 -0.046,0.003 -0.069,0.01 -0.133,0.038 -0.21,0.176 -0.171,0.309 0.006,0.025 0.714,2.511 0.784,3.413 0.023,0.303 0.023,0.684 0.023,1.088 0,0.886 0,1.724 0.225,2.118 0.069,0.12 0.222,0.161 0.342,0.094 0.12,-0.069 0.161,-0.222 0.093,-0.342 -0.16,-0.279 -0.16,-1.161 -0.16,-1.87 0,-0.414 0,-0.804 -0.024,-1.126 -0.074,-0.952 -0.773,-3.408 -0.803,-3.512 -0.031,-0.11 -0.131,-0.182 -0.24,-0.182"
         style="fill:#f07754;fill-opacity:1;fill-rule:nonzero;stroke:none;stroke-width:0.1"
         id="path242" />
      <path
         d="m 103.014,179.426 c -0.139,0 -0.25,0.112 -0.25,0.25 0,2.201 1.134,4.354 1.183,4.444 0.065,0.122 0.218,0.166 0.338,0.104 0.122,-0.066 0.168,-0.217 0.103,-0.338 -0.011,-0.022 -1.124,-2.136 -1.124,-4.21 0,-0.138 -0.112,-0.25 -0.25,-0.25"
         style="fill:#f07754;fill-opacity:1;fill-rule:nonzero;stroke:none;stroke-width:0.1"
         id="path244" />
      <path
         d="m 101.956,180.676 c -0.099,0 -0.191,0.057 -0.231,0.154 -0.605,1.461 0.059,3.681 0.088,3.775 0.04,0.132 0.178,0.203 0.312,0.167 0.131,-0.041 0.206,-0.18 0.166,-0.312 -0.006,-0.021 -0.64,-2.145 -0.104,-3.438 0.052,-0.128 -0.008,-0.274 -0.136,-0.328 -0.031,-0.012 -0.064,-0.018 -0.095,-0.018"
         style="fill:#f07754;fill-opacity:1;fill-rule:nonzero;stroke:none;stroke-width:0.1"
         id="path246" />
      <path
         d="m 145.5,288.417 c 0,0 -2.045,4.072 -4.161,4.264 -2.115,0.193 -2.789,-0.192 -2.693,-0.866 0.097,-0.673 1.25,-3.942 2.597,-5.289 1.346,-1.347 2.59,-2.943 2.59,-2.943 0,0 0.292,-0.916 1.042,-0.458 l 1.708,2.667 -0.708,2.833 -0.375,-0.208"
         style="fill:#f9a885;fill-opacity:1;fill-rule:nonzero;stroke:none;stroke-width:0.1"
         id="path248" />
      <path
         d="m 144.128,286.718 c 0,0 -1.875,3.463 -3.029,3.534 -1.154,0.073 1.443,-4.183 2.02,-4.327 0.577,-0.144 0.721,0.649 1.009,0.793"
         style="fill:#b97e63;fill-opacity:1;fill-rule:nonzero;stroke:none;stroke-width:0.1"
         id="path250" />
      <path
         d="m 162.645,281.965 c 0,-0.408 -0.332,-0.739 -0.74,-0.739 -0.408,0 -0.739,0.331 -0.739,0.739 0,0.409 0.331,0.74 0.739,0.74 0.408,0 0.74,-0.331 0.74,-0.74"
         style="fill:#332116;fill-opacity:1;fill-rule:nonzero;stroke:none;stroke-width:0.1"
         id="path252" />
      <path
         d="m 152.395,284.049 c 0,-0.408 -0.332,-0.739 -0.74,-0.739 -0.408,0 -0.739,0.331 -0.739,0.739 0,0.408 0.331,0.739 0.739,0.739 0.408,0 0.74,-0.331 0.74,-0.739"
         style="fill:#332116;fill-opacity:1;fill-rule:nonzero;stroke:none;stroke-width:0.1"
         id="path254" />
      <path
         d="m 158.281,283.031 -0.062,-4.625 c 0,0 0,-0.531 -0.625,-0.531 -0.625,0 -2.531,0.594 -2.906,1.094 -0.375,0.5 1.718,4.593 1.718,4.593 0,0 0.063,0.25 0.594,0.25 0.531,0 1.313,-0.375 1.281,-0.781"
         style="fill:#f07754;fill-opacity:1;fill-rule:nonzero;stroke:none;stroke-width:0.1"
         id="path256" />
    </g>
  </g>
</svg>
