<?xml version="1.0" encoding="UTF-8" standalone="no"?>
<svg
   xmlns:dc="http://purl.org/dc/elements/1.1/"
   xmlns:cc="http://creativecommons.org/ns#"
   xmlns:rdf="http://www.w3.org/1999/02/22-rdf-syntax-ns#"
   xmlns:svg="http://www.w3.org/2000/svg"
   xmlns="http://www.w3.org/2000/svg"
   xmlns:sodipodi="http://sodipodi.sourceforge.net/DTD/sodipodi-0.dtd"
   xmlns:inkscape="http://www.inkscape.org/namespaces/inkscape"
   sodipodi:docname="leer2.svg"
   inkscape:version="1.0 (4035a4f, 2020-05-01)"
   id="svg1498"
   version="1.1"
   viewBox="0 0 79.078331 74.830116"
   height="74.830116mm"
   width="79.078331mm">
  <defs
     id="defs1492" />
  <sodipodi:namedview
     inkscape:window-maximized="0"
     inkscape:window-y="123"
     inkscape:window-x="0"
     inkscape:window-height="755"
     inkscape:window-width="1252"
     showgrid="false"
     inkscape:document-rotation="0"
     inkscape:current-layer="layer1"
     inkscape:document-units="mm"
     inkscape:cy="504.26839"
     inkscape:cx="755.15365"
     inkscape:zoom="0.35"
     inkscape:pageshadow="2"
     inkscape:pageopacity="0.0"
     borderopacity="1.0"
     bordercolor="#666666"
     pagecolor="#ffffff"
     id="base" />
  <metadata
     id="metadata1495">
    <rdf:RDF>
      <cc:Work
         rdf:about="">
        <dc:format>image/svg+xml</dc:format>
        <dc:type
           rdf:resource="http://purl.org/dc/dcmitype/StillImage" />
        <dc:title></dc:title>
      </cc:Work>
    </rdf:RDF>
  </metadata>
  <g
     transform="translate(86.408212,60.093629)"
     id="layer1"
     inkscape:groupmode="layer"
     inkscape:label="Layer 1">
    <path
       id="path260"
       style="fill:#2a2b2c;fill-opacity:1;fill-rule:nonzero;stroke:none;stroke-width:0.0352777"
       d="m -11.350199,10.369503 c -0.14605,0 -0.264583,-0.118533 -0.264583,-0.264583 v -23.92366 c 0,-0.01622 0.0013,-0.03246 0.0046,-0.04868 l 3.7422443,-20.098811 -8.4610233,-24.135292 c -0.04833,-0.137583 0.02434,-0.288572 0.162279,-0.336903 0.137936,-0.04904 0.288571,0.02399 0.337254,0.161925 l 8.4846593,24.201967 c 0.01516,0.04374 0.01905,0.09066 0.01024,0.136172 l -3.7510853,20.143964 V 10.10492 c 0,0.14605 -0.118534,0.264583 -0.264584,0.264583" />
    <path
       id="path262"
       style="fill:#2a2b2c;fill-opacity:1;fill-rule:nonzero;stroke:none;stroke-width:0.0352777"
       d="m -15.661849,11.912905 c 0,-1.45909 1.805869,-2.6426935 4.033309,-2.6426935 2.2281433,0 4.0340123,1.1836035 4.0340123,2.6426935 h -8.0673213" />
    <path
       id="path264"
       style="fill:#c3c5c3;fill-opacity:1;fill-rule:nonzero;stroke:none;stroke-width:0.0352777"
       d="m -19.375895,-48.320759 c -0.567267,0.573264 -2.604204,-0.522817 -4.548717,-2.447925 -1.944862,-1.925461 -3.061755,-3.951111 -2.494137,-4.524022 0.567619,-0.573264 2.603852,0.522816 4.549069,2.447925 1.944865,1.925461 3.061406,3.950758 2.493785,4.524022" />
    <path
       id="path266"
       style="fill:#faf8e7;fill-opacity:1;fill-rule:nonzero;stroke:none;stroke-width:0.0352777"
       d="m -20.959865,-51.613587 c -0.57785,0.583142 -1.53529,0.5715 -2.139247,-0.02611 -0.603953,-0.597958 -0.625475,-1.555397 -0.04763,-2.139244 0.577499,-0.583142 1.534938,-0.5715 2.138892,0.02646 0.603957,0.597605 0.625475,1.555397 0.04798,2.138891" />
    <path
       id="path268"
       style="fill:#2a2b2c;fill-opacity:1;fill-rule:nonzero;stroke:none;stroke-width:0.0352777"
       d="m -19.375895,-48.320759 c 0,0 1.211792,-1.075619 1.310217,-3.473803 l 2.59715,-4.2545 c 0,0 1.66229,-1.846086 0.09631,-3.396544 -1.565979,-1.550106 -3.358443,0.167569 -3.358443,0.167569 l -4.228044,2.639836 c -2.396773,0.12312 -3.460044,1.345495 -3.460044,1.345495 0.567619,-0.573264 2.603852,0.522816 4.549069,2.447925 1.944865,1.925461 3.061406,3.950758 2.493785,4.524022" />
    <path
       id="path302"
       style="fill:#2a2b2c;fill-opacity:1;fill-rule:nonzero;stroke:none;stroke-width:0.0352777"
       d="m -32.548615,-0.29112347 -0.2286,-2.52130403 2.54635,2.52130403 z m -12.740217,0 0.285044,-3.14042903 0.258939,-0.256117 h 11.083219 l 0.259292,0.256471 0.284691,3.14007503 z m -2.886427,0 2.54635,-2.52130403 -0.228954,2.52130403 z m 18.910652,0.2286 c 0,-0.0011 0,-0.0019 -2.65e-4,-0.0028 L -31.440453,-12.360333 c -0.02717,-0.154165 -0.176035,-0.255413 -0.328435,-0.229658 -0.153459,0.02752 -0.256471,0.17427 -0.229307,0.328435 l 2.021769,11.42541453 -2.880429,-2.85220903 -0.771173,-8.4994745 c -0.01447,-0.155929 -0.155223,-0.272346 -0.307623,-0.256823 -0.156279,0.0141 -0.270933,0.152048 -0.257175,0.307623 l 0.717198,7.8962245 c -0.02294,-0.0056 -0.04516,-0.01341 -0.06914,-0.01341 h -11.31641 c -0.024,0 -0.04621,0.0078 -0.06879,0.01341 l 0.716844,-7.8962245 c 0.01376,-0.155575 -0.100894,-0.293513 -0.256821,-0.307623 -0.156281,-0.01516 -0.293512,0.100894 -0.307975,0.256823 l -0.771525,8.4994745 -2.880079,2.85185403 2.021771,-11.42505953 c 0.02716,-0.154165 -0.0755,-0.300919 -0.229658,-0.328435 -0.154871,-0.02646 -0.301273,0.07585 -0.328438,0.229658 l -4.229452,23.902844 c -0.02752,0.1542 0.07549,0.301237 0.229306,0.328367 0.01693,0.0029 0.03351,0.0046 0.05009,0.0046 0.13476,0 0.254352,-0.09701 0.278342,-0.233858 l 2.011185,-11.36611147 h 2.717096 l -0.294923,3.24908397 c -0.01376,0.155575 0.100894,0.293865 0.256823,0.307623 0.0085,0.0011 0.01728,0.0013 0.02611,0.0013 0.14464,0 0.268113,-0.111125 0.281872,-0.258234 l 0.299508,-3.29988297 h 12.27385 l 0.299508,3.29988297 c 0.01304,0.147109 0.136877,0.258234 0.281868,0.258234 0.0085,0 0.01728,-2.65e-4 0.02574,-0.0013 0.156279,-0.01376 0.270934,-0.152048 0.256821,-0.307623 l -0.294917,-3.24916397 h 2.717094 L -27.768743,11.64154 c 0.02469,0.136843 0.144288,0.233858 0.278696,0.233858 0.01659,0 0.03316,-0.0016 0.04974,-0.0046 0.15381,-0.02713 0.256821,-0.174167 0.229304,-0.328367 L -29.26452,-0.06253147" />
    <path
       id="path304"
       style="fill:#e4e0c8;fill-opacity:1;fill-rule:nonzero;stroke:none;stroke-width:0.0352777"
       d="m -50.261234,-30.908706 c 0,0 -2.568929,2.289881 -3.015898,2.904066 -0.446617,0.614538 -0.390877,2.45745 0.893585,2.848327 1.284817,0.391232 3.351038,-1.563864 3.798007,-2.010481 0.446616,-0.446969 1.340202,-1.228722 1.340202,-1.228722 l -0.726017,-2.625022 -2.289879,0.111832" />
    <path
       id="path306"
       style="fill:#999f6b;fill-opacity:1;fill-rule:nonzero;stroke:none;stroke-width:0.0352777"
       d="m -31.05813,-22.480846 c -1.231546,-2.798233 -1.580444,-10.210445 -1.580444,-10.210445 l -6.452658,-0.42404 -6.45301,0.42404 c 0,0 -0.348898,7.412212 -1.580798,10.210445 -1.231548,2.797881 -2.689225,2.760485 -2.689225,5.906558 0,2.587625 0.856191,4.412192 1.964618,5.640917 1.85914,2.0609265 8.758415,2.4570975 8.758415,2.4570975 0,0 6.898569,-0.396171 8.75806,-2.4570975 1.108075,-1.228725 1.964621,-3.053292 1.964621,-5.640917 0,-3.146073 -1.457679,-3.108677 -2.689579,-5.906558" />
    <path
       id="path308"
       style="fill:#563828;fill-opacity:1;fill-rule:nonzero;stroke:none;stroke-width:0.0352777"
       d="m -32.861882,-23.406536 c 0,0 1.254125,2.085271 1.775531,3.574698 0.521404,1.489075 0.968021,5.212292 -1.266121,6.403623 -2.233787,1.191684 -7.89305,0.670629 -9.084733,0.595842 -1.191329,-0.07444 -3.611385,-1.116896 -4.467577,-4.09575 -0.856544,-2.978504 0.74436,-4.839758 0.74436,-4.839758 l 2.829632,-1.638655 h 9.468908" />
    <path
       id="path310"
       style="fill:#f9a885;fill-opacity:1;fill-rule:nonzero;stroke:none;stroke-width:0.0352777"
       d="m -36.447867,3.7732285 c 0,0 0.223308,3.499943 0.14887,4.24462 -0.07444,0.744715 2.383015,0.297675 2.383015,0.297675 0,0 0.372181,-4.020889 0.372181,-4.542295 0,-0.521406 -2.904066,0 -2.904066,0" />
    <path
       id="path312"
       style="fill:#543a27;fill-opacity:1;fill-rule:nonzero;stroke:none;stroke-width:0.0352777"
       d="m -39.650032,-18.030906 c 0,0 0.446969,0.35842 0.670277,3.113616 0.223308,2.755194 1.712738,9.5482835 1.936046,12.9278935 0.223308,3.379965 0.446969,6.060723 0.446969,6.060723 0,0 2.159352,0.74436 3.648781,-0.07444 0,0 -0.148873,-5.212995 0.07444,-7.595304 0.223309,-2.383014 0.07444,-7.3723495 0.07444,-7.3723495 0,0 1.787173,-2.680758 1.861608,-4.318706 0.07444,-1.638652 -8.712552,-2.741435 -8.712552,-2.741435" />
    <path
       id="path314"
       style="fill:#462d21;fill-opacity:1;fill-rule:nonzero;stroke:none;stroke-width:0.0352777"
       d="m -34.665282,4.4780785 c -1.022702,0 -1.905352,-0.298098 -1.962502,-0.3175 -0.03528,-0.01236 -0.06032,-0.0441 -0.0635,-0.08149 -0.0021,-0.02646 -0.225425,-2.720623 -0.446617,-6.062133 -0.121356,-1.83374 -0.608541,-4.631619 -1.079854,-7.337777 -0.387702,-2.2260285 -0.753885,-4.3285825 -0.856192,-5.5887055 -0.0019,-0.03916 -0.0388,-0.889352 0.383823,-1.31304 0.166159,-0.166158 0.378177,-0.245885 0.632177,-0.232833 0.05221,0.0028 0.09243,0.04692 0.08996,0.09878 -0.0024,0.05221 -0.04692,0.0896 -0.09878,0.08996 -0.20179,-0.0092 -0.360892,0.04868 -0.489657,0.177094 -0.364418,0.365125 -0.329493,1.159581 -0.329141,1.167342 0.1016,1.249185 0.466725,3.347508 0.853723,5.5689495 0.472016,2.711098 0.960614,5.513916 1.082323,7.357533 0.202493,3.057525 0.406752,5.572125 0.441325,5.996517 0.347133,0.106891 2.16676,0.615243 3.464277,-0.05962 -0.01553,-0.581731 -0.132644,-5.322713 0.0762,-7.54874 0.220133,-2.349852 0.07585,-7.3106135 0.07408,-7.3603555 -2.65e-4,-0.01447 -0.02257,-1.33491 -0.06879,-1.938512 -0.0042,-0.05221 0.03457,-0.09772 0.08678,-0.1016 0.06032,-0.0092 0.09737,0.03493 0.101248,0.08678 0.04692,0.6096 0.0695,1.935692 0.06985,1.949096 0.0013,0.04868 0.14605,5.0207325 -0.07514,7.3822285 -0.220488,2.349852 -0.0755,7.532158 -0.07408,7.584017 0.0011,0.03563 -0.01799,0.06844 -0.04868,0.08537 -0.548216,0.30198 -1.178279,0.39864 -1.762831,0.39864" />
    <path
       id="path316"
       style="fill:#9ca6ab;fill-opacity:1;fill-rule:nonzero;stroke:none;stroke-width:0.0352777"
       d="m -36.689874,7.5151405 c 0,0 -0.22366,3.0716725 -0.614185,4.0770895 -0.391231,1.005417 -0.89394,2.34555 -0.5588,2.680687 0.335137,0.33514 3.351035,0.726088 4.244621,0.22338 0.893233,-0.502425 0.334787,-1.675694 0.279048,-2.959875 -0.05574,-1.284748 -0.05574,-3.5743815 -0.167217,-3.7421985 -0.111831,-0.167323 -1.675342,0.670525 -3.183467,-0.279083" />
    <path
       id="path318"
       style="fill:#f9a885;fill-opacity:1;fill-rule:nonzero;stroke:none;stroke-width:0.0352777"
       d="m -33.506407,-15.159296 c 0,0 3.350683,1.061156 3.909483,1.619602 0.558448,0.558448 2.066219,0.725665 2.066219,0.725665 l 1.005417,-0.390525 -0.726369,-2.345619 c 0,0 -4.69124,-1.787525 -4.97064,-1.954742 -0.279045,-0.167571 -1.28411,2.345619 -1.28411,2.345619" />
    <path
       id="path320"
       style="fill:#2a2b2c;fill-opacity:1;fill-rule:nonzero;stroke:none;stroke-width:0.0352777"
       d="m -43.335855,-45.485131 c 0,0 -0.726017,2.625019 -1.228725,3.239205 -0.502708,0.614186 -1.061154,2.17805 0.111479,2.513189 1.172986,0.335139 6.757811,1.842911 10.052754,0.223661 3.295298,-1.619955 1.563865,-2.73685 1.061157,-3.909483 -0.502709,-1.173339 -0.837494,-3.965575 -1.005065,-4.467931 -0.167569,-0.502708 -1.452385,-2.122663 -2.45745,-2.401711 -1.005062,-0.2794 -6.53415,4.579409 -6.53415,4.579409 v 0.223661" />
    <path
       id="path322"
       style="fill:#e4e0c8;fill-opacity:1;fill-rule:nonzero;stroke:none;stroke-width:0.0352777"
       d="m -41.660513,-40.682415 c 0,0 0,1.899003 -0.446617,2.122311 -0.446969,0.223662 -2.234142,0.837848 -3.351035,1.899003 -1.116894,1.061156 -3.239207,4.691238 -3.239207,4.691238 l 1.452034,6.031442 7.036858,3.351035 c 0,0 5.026731,0.61454 7.762875,-0.111477 0,0 0.502708,-0.2794 0.446971,-0.726368 -0.05574,-0.446265 -0.614188,-2.792238 -0.614188,-3.741563 0,-0.949677 0.223309,-2.40171 0.223309,-2.40171 l 3.351037,1.340556 1.005063,-0.111477 c 0,0 -2.680759,-5.64127 -3.295296,-6.925381 -0.614188,-1.284817 -1.005065,-2.17805 -2.568929,-2.62502 -1.563511,-0.446616 -3.015896,-0.781755 -3.239204,-0.893586 -0.223309,-0.111478 -0.726017,-1.675342 -0.726017,-1.842911 0,-0.167569 -3.797654,-0.05609 -3.797654,-0.05609" />
    <path
       id="path324"
       style="fill:#ffffff;fill-opacity:1;fill-rule:nonzero;stroke:none;stroke-width:0.0352777"
       d="m -42.31174,-33.45294 -4.580115,-3.872089 -0.377471,1.369484 z" />
    <path
       id="path326"
       style="fill:#ffffff;fill-opacity:1;fill-rule:nonzero;stroke:none;stroke-width:0.0352777"
       d="m -35.628717,-35.09759 -0.223663,-1.61925 -6.310842,3.238852 v 1.508125 l 2.401713,-0.446616 4.132792,-2.681111" />
    <path
       id="path328"
       style="fill:#a3a393;fill-opacity:1;fill-rule:nonzero;stroke:none;stroke-width:0.0352777"
       d="m -39.495163,-38.017884 c -0.05715,0 -0.09313,-7.15e-4 -0.101952,-0.0011 -0.05221,-0.0018 -0.09313,-0.04516 -0.09137,-0.09701 0.0019,-0.05221 0.04515,-0.08749 0.09737,-0.09172 0.01834,7.15e-4 1.699329,0.04621 2.3876,-0.642408 0.03704,-0.03704 0.09666,-0.03704 0.133702,0 0.03669,0.03669 0.03669,0.09631 0,0.13335 -0.651582,0.651228 -2.035175,0.698853 -2.425348,0.698853" />
    <path
       id="path330"
       style="fill:#543a27;fill-opacity:1;fill-rule:nonzero;stroke:none;stroke-width:0.0352777"
       d="m -33.450667,-14.545111 c 0,0 -10.164588,-3.909483 -11.895667,-4.691237 -0.223308,-0.100896 -0.467079,-0.199673 -0.72249,-0.299863 -1.725789,-0.676979 -3.990623,-1.41111 -4.136673,-3.162652 -0.167216,-2.010481 0.502709,-4.747331 3.015898,-4.803068 2.51319,-0.05609 6.53415,3.518252 8.209844,4.858808 0.774348,0.619477 2.41935,1.799871 3.964871,2.889954 1.799167,1.26859 3.463219,2.415471 3.463219,2.415471 0,0 -0.446969,2.513187 -1.899002,2.792587" />
    <path
       id="path332"
       style="fill:#462d21;fill-opacity:1;fill-rule:nonzero;stroke:none;stroke-width:0.0352777"
       d="m -33.450667,-14.450213 c -0.01164,0 -0.02328,-0.0024 -0.03422,-0.0067 -0.1016,-0.03881 -10.186459,-3.919362 -11.900604,-4.693356 -0.194734,-0.08784 -0.42263,-0.18274 -0.71755,-0.298098 -0.04868,-0.01871 -0.07267,-0.07373 -0.05362,-0.12206 0.01905,-0.04833 0.07338,-0.07232 0.122414,-0.05327 0.297744,0.116417 0.528461,0.212019 0.726721,0.301271 1.664758,0.751416 11.273015,4.451704 11.862858,4.678891 0.210609,-0.05574 1.537407,-0.492477 1.792465,-2.648302 -0.282575,-0.195439 -1.804106,-1.246716 -3.417006,-2.384777 -1.981552,-1.397706 -3.317521,-2.370666 -3.969454,-2.892779 -0.04092,-0.03245 -0.04727,-0.09243 -0.01482,-0.132996 0.03281,-0.04057 0.09243,-0.04727 0.132644,-0.01482 0.64911,0.519993 1.981906,1.490837 3.960989,2.886779 1.777646,1.253773 3.444875,2.403475 3.461454,2.414764 0.02893,0.02011 0.0441,0.05362 0.04057,0.08819 -0.269523,2.486025 -1.956506,2.871613 -1.973439,2.874788 -0.0064,0.0013 -0.01304,0.0024 -0.01939,0.0024" />
    <path
       id="path334"
       style="fill:#c34d41;fill-opacity:1;fill-rule:nonzero;stroke:none;stroke-width:0.0352777"
       d="m -42.138526,-33.500213 -6.670675,-3.886904 v 8.768292 l 6.702071,3.518252 c 0,0 -0.0314,-8.3439 -0.0314,-8.39964" />
    <path
       id="path336"
       style="fill:#d15b49;fill-opacity:1;fill-rule:nonzero;stroke:none;stroke-width:0.0352777"
       d="m -34.344255,-36.270223 -7.794271,2.785533 0.0314,8.384117 7.762875,-3.127375 v -8.042275" />
    <path
       id="path338"
       style="fill:#9ca6ab;fill-opacity:1;fill-rule:nonzero;stroke:none;stroke-width:0.0352777"
       d="m -27.754365,-15.717744 c 0,0 1.005416,2.289529 -1.228373,2.568929 l -0.390877,-0.223662 c 0,0 -0.223309,0.446971 0.222956,0.726371 0.446969,0.279045 2.625371,1.116893 3.574696,1.786818 0.949325,0.670632 2.233789,2.2902335 3.015898,2.2341415 0.781753,-0.05574 2.401358,-1.005065 2.457095,-2.1219575 0.05609,-1.117248 -0.167568,-1.787525 -0.558445,-2.010482 -0.39088,-0.22366 -3.183467,-1.284816 -4.41184,-1.954741 -1.228725,-0.670629 -2.345619,-0.949677 -2.68111,-1.005417" />
    <path
       id="path340"
       style="fill:#faf8e7;fill-opacity:1;fill-rule:nonzero;stroke:none;stroke-width:0.0352777"
       d="m -42.963674,-42.599762 c 0,0.668161 -0.341841,1.210381 -0.76341,1.210381 -0.421217,0 -0.763058,-0.54222 -0.763058,-1.210381 0,-0.668161 0.341841,-1.210028 0.763058,-1.210028 0.421569,0 0.76341,0.541867 0.76341,1.210028" />
    <path
       id="path342"
       style="fill:#f9a885;fill-opacity:1;fill-rule:nonzero;stroke:none;stroke-width:0.0352777"
       d="m -43.373249,-46.043579 c 0,0 0.205317,1.700037 0.186267,2.196748 -0.03739,0.968022 0.33514,1.973086 0.856192,2.680405 0.521406,0.707672 1.228725,1.229078 1.712735,1.340556 0.484013,0.11183 1.340556,0.185914 1.936046,-0.111478 0.595842,-0.298097 2.047875,-1.787525 2.234142,-2.606675 0.185912,-0.818797 0.48401,-0.781756 0.48401,-0.781756 0,0 0.74436,-0.521052 1.116894,-0.744713 0.372533,-0.223309 0.446616,-0.558448 0.260704,-0.96767 -0.186267,-0.409575 -0.146404,-0.445205 -0.406754,-0.408164 -0.260702,0.03739 -0.970844,0.4826 -0.970844,0.4826 l 1.005065,-1.600905 -0.856192,-1.154642 -4.69124,-0.297744 -1.936043,0.484011 -0.930982,1.489427" />
    <path
       id="path344"
       style="fill:#563828;fill-opacity:1;fill-rule:nonzero;stroke:none;stroke-width:0.0352777"
       d="m -38.979755,-44.88929 c 0.180975,0.259645 0.670279,-0.223661 1.265767,-0.03739 0.595841,0.185914 0.446971,-0.595489 0.446971,-0.595489 0,0 -0.484013,-0.298097 -1.15429,-0.223661 -0.669925,0.07444 -0.962731,0.275872 -0.558448,0.856544" />
    <path
       id="path346"
       style="fill:#563828;fill-opacity:1;fill-rule:nonzero;stroke:none;stroke-width:0.0352777"
       d="m -41.474247,-44.926684 c 0.26035,0.11183 0.297746,-0.335139 0.223309,-0.521053 -0.07444,-0.186619 -1.079852,-0.484011 -1.489427,-0.446969 -0.409575,0.03704 -0.718257,-0.122767 -0.680861,0.212725 0.03739,0.334786 0.09349,0.596194 0.234244,0.718255 0.261408,0.225778 1.452033,-0.07444 1.712735,0.03704" />
    <path
       id="path348"
       style="fill:#2a2b2c;fill-opacity:1;fill-rule:nonzero;stroke:none;stroke-width:0.0352777"
       d="m -44.006132,-48.463634 c 0,0 -0.521406,1.005064 0.186267,1.899003 0.707318,0.893233 1.861608,1.042458 2.271183,1.228372 0.409223,0.185914 1.265767,0.185914 1.97344,0.07444 0.706966,-0.111478 2.084916,-1.414992 2.084916,-1.414992 0,0 -0.968023,1.079853 -0.558448,1.229078 0.409223,0.14852 1.377598,-0.372533 1.936044,-1.005417 0,0 -0.260702,0.781756 -0.260702,1.191331 0,0.409575 -0.111831,0.669925 0.111477,0.669925 0.223663,0 0.558448,-0.484011 0.968023,-0.744361 0.409575,-0.260703 0.595842,-0.632883 0.633235,-0.81915 0.0374,-0.186267 -0.372179,-1.899003 -0.372179,-1.899003 l -1.936398,-2.233793 c 0,0 -0.07444,-0.558447 -1.6383,-0.781755 -1.56351,-0.223662 -2.7178,0.223308 -3.499556,0.968022 -0.782108,0.744714 -1.712735,1.154289 -1.899002,1.6383" />
    <path
       id="path350"
       style="fill:#f9a885;fill-opacity:1;fill-rule:nonzero;stroke:none;stroke-width:0.0352777"
       d="m -43.20568,-44.703376 c 0,0 -0.390877,-0.875241 -0.837846,-0.726016 -0.446616,0.148872 -0.595489,0.577144 -0.353483,1.005416 0.242004,0.428272 0.632883,0.632884 0.74436,0.818797 0.111832,0.18662 0.61454,0.18662 0.61454,0.18662 l -0.167571,-1.284817" />
    <path
       id="path352"
       style="fill:#b97e63;fill-opacity:1;fill-rule:nonzero;stroke:none;stroke-width:0.0352777"
       d="m -43.466382,-44.126231 c 0,0 -0.167217,-0.763059 -0.390877,-0.763059 -0.223308,0 -0.33514,0.14852 -0.204613,0.353836 0.130175,0.204612 0.39088,0.632531 0.484013,0.651228 0.09313,0.0187 0.130175,-0.204964 0.111477,-0.242005" />
    <path
       id="path354"
       style="fill:#b97e63;fill-opacity:1;fill-rule:nonzero;stroke:none;stroke-width:0.0352777"
       d="m -35.870724,-44.08919 c -0.02822,-0.08855 0.502357,-0.856191 0.726017,-0.744361 0.223308,0.111478 0.279048,0.409575 -0.03704,0.595489 -0.316793,0.18662 -0.577498,0.502708 -0.688975,0.148872" />
    <path
       id="path356"
       style="fill:#f68a5c;fill-opacity:1;fill-rule:nonzero;stroke:none;stroke-width:0.0352777"
       d="m -38.402609,-43.400215 c 0,0 0.781754,-0.204964 1.061154,0.05574 0.2794,0.260703 0.09313,0.875242 -0.242004,0.744714 -0.33514,-0.130175 -0.502708,-0.167569 -0.763413,-0.204611 -0.260702,-0.03739 -0.297743,-0.465667 -0.05574,-0.595842" />
    <path
       id="path358"
       style="fill:#f68a5c;fill-opacity:1;fill-rule:nonzero;stroke:none;stroke-width:0.0352777"
       d="m -41.976955,-43.400215 c 0,0 -0.83185,-0.249766 -1.061154,0.05574 -0.05574,0.07444 0.09313,0.800453 0.242004,0.744714 0.33655,-0.126294 0.502708,-0.167569 0.763413,-0.204611 0.26035,-0.03739 0.297743,-0.465667 0.05574,-0.595842" />
    <path
       id="path360"
       style="fill:#f07754;fill-opacity:1;fill-rule:nonzero;stroke:none;stroke-width:0.0352777"
       d="m -40.342888,-41.41584 c -0.422627,0 -0.701321,-0.119944 -0.723194,-0.129469 -0.04762,-0.02081 -0.06879,-0.07691 -0.04798,-0.124178 0.02117,-0.04763 0.07761,-0.0695 0.124529,-0.04833 0.03951,0.01693 0.972256,0.412397 2.046817,-0.380648 0.04198,-0.03104 0.101248,-0.02222 0.132291,0.01976 0.03069,0.04233 0.02188,0.101247 -0.02011,0.131939 -0.570794,0.421217 -1.107721,0.530931 -1.512358,0.530931" />
    <path
       id="path362"
       style="fill:#f9a885;fill-opacity:1;fill-rule:nonzero;stroke:none;stroke-width:0.0352777"
       d="m -50.745247,-30.592265 c 0,0 0.893588,0.968024 1.563865,0.968024 0.669925,0 2.308225,-1.48943 2.755194,-1.824567 0.446616,-0.334788 0.26035,-0.521055 0.26035,-0.856192 0,-0.33514 0.0374,-0.558448 -0.334786,-0.632531 -0.372533,-0.07479 -2.159352,-0.07479 -2.308577,-0.03775 v -1.898648 c 0,0 -0.558448,0.186267 -0.670279,0.595842 -0.111477,0.409575 -0.223308,1.786821 -0.558446,2.345621 -0.334787,0.558445 -0.744714,1.191328 -0.707321,1.340201" />
    <path
       id="path364"
       style="fill:#f9a885;fill-opacity:1;fill-rule:nonzero;stroke:none;stroke-width:0.0352777"
       d="m -33.004051,-31.355323 c 0,0 -0.865716,-1.005417 -0.837848,-1.647825 0.02822,-0.642056 -0.111477,-1.731081 -0.474485,-1.731081 l -0.05574,1.284464 c 0,0 -1.256593,-0.05609 -1.926873,-0.05609 -0.670277,0 -1.78717,-0.334786 -2.094441,0 -0.306917,0.33514 -0.558446,0.809977 -0.05574,1.479902 0.502709,0.670631 2.345619,1.452388 2.988027,1.535996 0.642057,0.08396 1.172634,0 1.591382,0.195792 0.4191,0.195085 0.865716,-1.061157 0.865716,-1.061157" />
    <path
       id="path366"
       style="fill:#e4e0c8;fill-opacity:1;fill-rule:nonzero;stroke:none;stroke-width:0.0352777"
       d="m -33.004051,-31.690463 c 0,0 -0.977196,1.368425 -1.088673,1.61925 0,0 0.613834,0.896763 1.533877,2.083859 0.554215,0.715081 1.219555,1.535289 1.928638,2.328333 1.647471,1.843265 2.513187,2.066573 3.574344,1.424165 1.061153,-0.642057 1.535641,-1.870782 0.558445,-3.099507 -0.280104,-0.352073 -0.933447,-0.859366 -1.722964,-1.40476 -1.967796,-1.3589 -4.783667,-2.95134 -4.783667,-2.95134" />
    <path
       id="path368"
       style="fill:#a3a393;fill-opacity:1;fill-rule:nonzero;stroke:none;stroke-width:0.0352777"
       d="m -32.558847,-27.893163 c -0.02822,0 -0.05609,-0.0127 -0.07479,-0.03634 -0.910873,-1.175102 -1.531408,-2.079273 -1.537054,-2.08774 -0.01871,-0.02752 -0.02222,-0.06209 -0.0088,-0.09208 0.114652,-0.25682 1.058685,-1.579737 1.099256,-1.636535 0.02787,-0.03881 0.08079,-0.04974 0.122767,-0.02717 0.02822,0.01587 2.841977,1.610784 4.790369,2.95628 0.04304,0.02963 0.05398,0.08854 0.02434,0.131233 -0.02928,0.04304 -0.08855,0.05362 -0.131233,0.02469 -1.764948,-1.219552 -4.244975,-2.644423 -4.702175,-2.905477 -0.280106,0.3937 -0.863952,1.227312 -1.007533,1.488017 0.137583,0.197908 0.708025,1.012118 1.499306,2.033058 0.0321,0.04128 0.02469,0.100542 -0.01659,0.132292 -0.01765,0.01341 -0.03739,0.01976 -0.05786,0.01976" />
    <path
       id="path370"
       style="fill:#f07754;fill-opacity:1;fill-rule:nonzero;stroke:none;stroke-width:0.0352777"
       d="m -47.468647,-31.317223 c -0.03528,0 -0.06879,-0.01905 -0.08502,-0.05327 -0.02294,-0.04692 -0.0032,-0.103365 0.04374,-0.126297 0.29704,-0.143227 1.105607,-0.549978 1.280584,-0.710141 0.0381,-0.03493 0.09842,-0.03316 0.133704,0.0056 0.03493,0.03845 0.0321,0.09843 -0.006,0.13335 -0.231068,0.212019 -1.281642,0.719667 -1.326092,0.741892 -0.01304,0.006 -0.02716,0.0088 -0.04092,0.0088" />
    <path
       id="path372"
       style="fill:#f07754;fill-opacity:1;fill-rule:nonzero;stroke:none;stroke-width:0.0352777"
       d="m -47.636215,-31.894015 c -0.04127,0 -0.07902,-0.02681 -0.09102,-0.06844 -0.0141,-0.05009 0.01516,-0.102659 0.06527,-0.116769 0.01093,-0.0032 1.111602,-0.315735 1.452385,-0.495652 0.04621,-0.02434 0.10301,-0.0064 0.127706,0.03986 0.02434,0.04622 0.0067,0.103365 -0.03951,0.127355 -0.358775,0.188735 -1.443213,0.497417 -1.489075,0.510117 -0.0085,0.0024 -0.01728,0.0035 -0.02574,0.0035" />
    <path
       id="path374"
       style="fill:#f07754;fill-opacity:1;fill-rule:nonzero;stroke:none;stroke-width:0.0352777"
       d="m -47.84118,-32.415066 c -0.05009,0 -0.09137,-0.03916 -0.09419,-0.08926 -0.0032,-0.05186 0.03704,-0.09666 0.0889,-0.09948 0.380296,-0.02045 1.412523,-0.08678 1.61784,-0.145344 0.05009,-0.01587 0.102306,0.0141 0.116417,0.06456 0.01447,0.05045 -0.01447,0.102307 -0.06456,0.116417 -0.267758,0.07691 -1.602668,0.149577 -1.659114,0.153107 -0.0019,0 -0.0035,0 -0.0053,0" />
    <path
       id="path376"
       style="fill:#f07754;fill-opacity:1;fill-rule:nonzero;stroke:none;stroke-width:0.0352777"
       d="m -37.052882,-31.596271 c -0.01516,0 -0.03034,-0.0039 -0.04445,-0.01093 -0.03457,-0.01871 -0.848783,-0.453673 -1.213908,-0.734484 -0.367948,-0.282927 -0.485775,-0.428625 -0.491067,-0.434268 -0.03246,-0.04092 -0.02574,-0.10019 0.01447,-0.132646 0.04092,-0.03281 0.100187,-0.02646 0.132643,0.0141 0.0013,0.0011 0.113594,0.137229 0.458965,0.40287 0.352777,0.27164 1.179335,0.713317 1.187802,0.71755 0.04586,0.02469 0.0635,0.08185 0.03881,0.127707 -0.01693,0.03175 -0.04939,0.05009 -0.08326,0.05009" />
    <path
       id="path378"
       style="fill:#f07754;fill-opacity:1;fill-rule:nonzero;stroke:none;stroke-width:0.0352777"
       d="m -36.605913,-31.986796 c -0.01236,0 -0.02434,-0.0024 -0.03563,-0.0071 -0.04269,-0.01765 -1.048457,-0.426509 -1.443567,-0.708732 -0.389467,-0.278693 -0.557038,-0.41769 -0.564092,-0.423685 -0.04022,-0.03316 -0.04551,-0.09243 -0.01199,-0.132998 0.03387,-0.04022 0.09313,-0.0448 0.132998,-0.01199 0.0019,0.0013 0.170392,0.141817 0.552802,0.414867 0.377473,0.26952 1.394179,0.683329 1.404408,0.687562 0.04868,0.01976 0.07161,0.07444 0.05221,0.123121 -0.01482,0.03669 -0.0501,0.05891 -0.08714,0.05891" />
    <path
       id="path380"
       style="fill:#f07754;fill-opacity:1;fill-rule:nonzero;stroke:none;stroke-width:0.0352777"
       d="m -36.438697,-32.657425 c -0.0056,0 -0.01236,-7.94e-4 -0.01834,-0.0013 -0.05292,-0.01058 -1.302457,-0.256468 -1.618544,-0.428625 -0.269875,-0.147108 -0.376063,-0.156278 -0.376767,-0.156278 -0.05115,-0.0035 -0.09137,-0.04657 -0.08961,-0.09772 0.0019,-0.0508 0.04198,-0.09102 0.09278,-0.09102 0.02257,0 0.151342,0.0085 0.463902,0.178858 0.241652,0.131588 1.211086,0.34008 1.564569,0.409223 0.05115,0.0099 0.08431,0.05962 0.07444,0.111125 -0.0088,0.0448 -0.04833,0.07585 -0.09243,0.07585" />
    <path
       id="path382"
       style="fill:#faf8e7;fill-opacity:1;fill-rule:nonzero;stroke:none;stroke-width:0.0352777"
       d="m -35.293932,-42.487931 c 0,0.668161 -0.34149,1.210027 -0.763058,1.210027 -0.421569,0 -0.763411,-0.541866 -0.763411,-1.210027 0,-0.668161 0.341842,-1.210028 0.763411,-1.210028 0.421568,0 0.763058,0.541867 0.763058,1.210028" />
    <path
       id="path384"
       style="fill:#2a2b2c;fill-opacity:1;fill-rule:nonzero;stroke:none;stroke-width:0.0352777"
       d="m -37.971867,-44.100479 c 0,0.154164 -0.124884,0.2794 -0.2794,0.2794 -0.154165,0 -0.279048,-0.125236 -0.279048,-0.2794 0,-0.154516 0.124883,-0.2794 0.279048,-0.2794 0.154516,0 0.2794,0.124884 0.2794,0.2794" />
    <path
       id="path386"
       style="fill:#2a2b2c;fill-opacity:1;fill-rule:nonzero;stroke:none;stroke-width:0.0352777"
       d="m -41.731067,-44.145634 c 0,0.154517 -0.125238,0.2794 -0.2794,0.2794 -0.154165,0 -0.279048,-0.124883 -0.279048,-0.2794 0,-0.154164 0.124883,-0.279047 0.279048,-0.279047 0.154162,0 0.2794,0.124883 0.2794,0.279047" />
    <path
       id="path388"
       style="fill:#f07754;fill-opacity:1;fill-rule:nonzero;stroke:none;stroke-width:0.0352777"
       d="m -40.580307,-44.375645 c 0,0 -0.08573,1.517297 -0.07867,1.573741 0.02506,0.202848 0.448027,0.221898 0.802569,0.125589 0.06279,-0.01693 0.125942,-0.04727 0.110067,-0.236008 -0.01553,-0.188736 -0.110067,-1.495072 -0.188736,-1.573742 -0.07867,-0.07867 -0.645231,-0.04727 -0.645231,0.11042" />
    <path
       id="path390"
       style="fill:#2a2b2c;fill-opacity:1;fill-rule:nonzero;stroke:none;stroke-width:0.0352777"
       d="m -58.031165,-11.402565 c 0,-1.036814 -5.44195,-1.877483 -12.154605,-1.877483 -6.713008,0 -12.154958,0.840669 -12.154958,1.877483 0,1.020938 5.272969,1.8510245 11.839575,1.8767765 v 8.80462703 L -77.357036,12.678821 c -0.06668,0.130069 -0.01517,0.289526 0.115005,0.356201 0.130175,0.066 0.289631,0.0149 0.355953,-0.114935 L -70.501153,0.44053653 V 9.6698725 c 0,0.14605 0.118533,0.264584 0.264583,0.264584 0.146403,0 0.264583,-0.118534 0.264583,-0.264584 V 0.44053653 l 6.385278,12.47955047 c 0.04657,0.09137 0.139347,0.143896 0.235655,0.143896 0.04057,0 0.08184,-0.0091 0.120298,-0.02896 0.130175,-0.06668 0.18168,-0.226132 0.115005,-0.356201 L -69.971987,-0.72116147 V -9.5254365 c 6.613878,-0.01765 11.940822,-0.8508995 11.940822,-1.8771285" />
    <path
       id="path392"
       style="fill:#419c63;fill-opacity:1;fill-rule:nonzero;stroke:none;stroke-width:0.0352777"
       d="m -75.347967,-23.772013 c -0.0039,0 -0.0074,0 -0.01129,-2.64e-4 -0.07302,-0.0063 -0.126647,-0.0702 -0.12065,-0.14323 0.216606,-2.527387 -0.54751,-4.726249 -1.760713,-7.250022 -1.28023,-2.663119 -5.157611,-6.810375 -5.196416,-6.85165 -0.05009,-0.05327 -0.04727,-0.13723 0.006,-0.186972 0.05327,-0.05045 0.136525,-0.04727 0.186972,0.0056 0.03916,0.04233 3.944055,4.218869 5.241925,6.918678 1.232252,2.562579 2.007658,4.799541 1.785761,7.386814 -0.0056,0.06879 -0.0635,0.121002 -0.131586,0.121002" />
    <path
       id="path394"
       style="fill:#419c63;fill-opacity:1;fill-rule:nonzero;stroke:none;stroke-width:0.0352777"
       d="m -81.182911,-36.684737 c -0.06138,0 -0.116417,-0.04304 -0.12947,-0.105128 -0.567972,-2.733322 0.877006,-6.328127 0.939095,-6.479822 0.02752,-0.06773 0.104775,-0.09984 0.172155,-0.07267 0.06773,0.02752 0.100189,0.104775 0.07267,0.172861 -0.01482,0.03634 -1.476375,3.672064 -0.92463,6.325658 0.01482,0.07126 -0.03104,0.141817 -0.102659,0.156634 -0.0092,0.0014 -0.01799,0.0025 -0.02716,0.0025" />
    <path
       id="path396"
       style="fill:#419c63;fill-opacity:1;fill-rule:nonzero;stroke:none;stroke-width:0.0352777"
       d="m -76.291295,-29.21114 c -0.06385,0 -0.120297,-0.04657 -0.130528,-0.111476 -0.586316,-3.701347 5.850114,-7.091188 6.124575,-7.23371 0.06456,-0.03351 0.144639,-0.0088 0.178153,0.05645 0.03387,0.06456 0.0085,0.144639 -0.05645,0.178505 -0.06526,0.03387 -6.541558,3.443818 -5.984875,6.95713 0.01129,0.07197 -0.03775,0.140055 -0.110066,0.151342 -0.0071,0.0011 -0.01411,0.0019 -0.02082,0.0019" />
    <path
       id="path398"
       style="fill:#419c63;fill-opacity:1;fill-rule:nonzero;stroke:none;stroke-width:0.0352777"
       d="m -75.648887,-31.761371 c -0.02117,0 -0.04269,-0.0049 -0.06279,-0.01553 -0.06421,-0.03493 -0.0882,-0.115358 -0.05327,-0.179213 0.07373,-0.137229 0.168275,-0.35207 0.287867,-0.624062 0.395111,-0.899231 1.056217,-2.403829 2.096206,-3.581048 1.313038,-1.4859 2.549877,-3.508022 2.562225,-3.528131 0.0381,-0.06279 0.119238,-0.08255 0.18168,-0.0441 0.06244,0.03775 0.0822,0.119592 0.0441,0.181681 -0.01235,0.02046 -1.26118,2.061633 -2.589741,3.565524 -1.012473,1.146528 -1.663348,2.62749 -2.052109,3.512608 -0.122061,0.277283 -0.218722,0.496713 -0.297391,0.642763 -0.02399,0.04445 -0.0695,0.06949 -0.11677,0.06949" />
    <path
       id="path400"
       style="fill:#419c63;fill-opacity:1;fill-rule:nonzero;stroke:none;stroke-width:0.0352777"
       d="m -74.848081,-33.501975 c -0.0187,0 -0.03704,-0.0039 -0.05503,-0.01198 -0.06668,-0.03034 -0.0956,-0.109009 -0.06526,-0.17533 0.494241,-1.077384 0.427919,-3.102328 0.426861,-3.122789 -0.0025,-0.07302 0.05468,-0.134409 0.127705,-0.137231 0.0762,-0.0011 0.134409,0.05468 0.136878,0.127706 0.0032,0.08573 0.06914,2.108552 -0.45085,3.242381 -0.02222,0.04868 -0.0702,0.07726 -0.120297,0.07726" />
    <path
       id="path402"
       style="fill:#419c63;fill-opacity:1;fill-rule:nonzero;stroke:none;stroke-width:0.0352777"
       d="m -73.281748,-35.941434 c -0.02752,0 -0.05503,-0.0088 -0.07867,-0.02611 -0.05856,-0.04339 -0.07126,-0.126294 -0.02752,-0.185208 0.813506,-1.097139 0.880181,-5.976055 0.880533,-6.025444 7.15e-4,-0.07303 0.0575,-0.141464 0.134056,-0.130528 0.07302,0.0011 0.131586,0.06068 0.130528,0.134056 -0.0021,0.203905 -0.06879,5.014383 -0.932745,6.17996 -0.02575,0.03457 -0.06597,0.05327 -0.106186,0.05327" />
    <path
       id="path404"
       style="fill:#419c63;fill-opacity:1;fill-rule:nonzero;stroke:none;stroke-width:0.0352777"
       d="m -75.35079,-25.526023 c -0.0695,0 -0.127705,-0.05398 -0.131938,-0.124179 -0.02046,-0.341136 -0.771525,-0.939094 -1.240014,-1.236134 -0.06174,-0.03916 -0.08008,-0.12065 -0.04092,-0.182737 0.03881,-0.06138 0.120297,-0.08043 0.182386,-0.04057 0.13582,0.08573 1.32715,0.85725 1.36278,1.443567 0.0042,0.07303 -0.05115,0.135821 -0.124178,0.1397 -0.0025,2.64e-4 -0.0053,2.64e-4 -0.0081,2.64e-4" />
    <path
       id="path406"
       style="fill:#419c63;fill-opacity:1;fill-rule:nonzero;stroke:none;stroke-width:0.0352777"
       d="m -75.476026,-26.453829 c -0.01976,0 -0.04022,-0.0042 -0.05962,-0.0141 -0.06526,-0.03281 -0.09102,-0.112537 -0.05821,-0.178154 0.02328,-0.04515 0.5715,-1.120069 1.105252,-1.550104 0.05645,-0.04586 0.140053,-0.03739 0.186267,0.02011 0.04551,0.0568 0.03669,0.140052 -0.02011,0.185915 -0.490009,0.394756 -1.029759,1.453444 -1.035403,1.464027 -0.02328,0.04586 -0.0695,0.07232 -0.118181,0.07232" />
    <path
       id="path408"
       style="fill:#419c63;fill-opacity:1;fill-rule:nonzero;stroke:none;stroke-width:0.0352777"
       d="m -76.001312,-28.425856 c -0.05644,0 -0.108655,-0.03669 -0.126647,-0.09313 -0.264583,-0.854075 -1.938161,-2.009423 -1.955094,-2.021064 -0.06032,-0.04127 -0.07549,-0.123471 -0.03422,-0.183796 0.04092,-0.06033 0.123473,-0.0755 0.183798,-0.03457 0.07197,0.04974 1.76671,1.219907 2.058458,2.160765 0.02152,0.06985 -0.01728,0.143933 -0.08714,0.165804 -0.01305,0.0042 -0.02646,0.006 -0.03916,0.006" />
    <path
       id="path410"
       style="fill:#419c63;fill-opacity:1;fill-rule:nonzero;stroke:none;stroke-width:0.0352777"
       d="m -77.374323,-31.577221 c -0.04904,0 -0.09596,-0.02716 -0.118886,-0.07408 -0.567266,-1.154287 -0.09137,-3.501672 -0.07091,-3.601155 0.01482,-0.07161 0.08572,-0.116417 0.156281,-0.102658 0.07161,0.01482 0.117828,0.08467 0.103011,0.15628 -0.0049,0.02364 -0.478367,2.357614 0.04904,3.431116 0.0321,0.06527 0.0049,0.14464 -0.06033,0.177096 -0.01905,0.0088 -0.03881,0.01341 -0.05821,0.01341" />
    <path
       id="path412"
       style="fill:#419c63;fill-opacity:1;fill-rule:nonzero;stroke:none;stroke-width:0.0352777"
       d="m -78.477459,-48.592045 c 0,0 -2.657475,2.196747 -1.90253,5.714647 0,0 3.050116,-1.280936 1.90253,-5.714647" />
    <path
       id="path414"
       style="fill:#419c63;fill-opacity:1;fill-rule:nonzero;stroke:none;stroke-width:0.0352777"
       d="m -86.353575,-45.410342 c 0,0 -0.875947,5.561188 4.386791,7.709958 0,0 -0.318558,-6.249106 -4.386791,-7.709958" />
    <path
       id="path416"
       style="fill:#419c63;fill-opacity:1;fill-rule:nonzero;stroke:none;stroke-width:0.0352777"
       d="m -77.505909,-42.877398 c 0,0 -2.575277,3.74015 0,8.062383 0,0 2.066925,-3.13055 0,-8.062383" />
    <path
       id="path418"
       style="fill:#419c63;fill-opacity:1;fill-rule:nonzero;stroke:none;stroke-width:0.0352777"
       d="m -73.783398,-47.809584 c 0,0 -1.283758,3.797653 1.392414,6.254397 0,0 1.633008,-2.707569 -1.392414,-6.254397" />
    <path
       id="path420"
       style="fill:#419c63;fill-opacity:1;fill-rule:nonzero;stroke:none;stroke-width:0.0352777"
       d="m -71.019737,-39.125254 c 0,0 0.418042,-4.307769 5.164667,-5.556955 0,0 -1.096786,5.218289 -5.164667,5.556955" />
    <path
       id="path422"
       style="fill:#419c63;fill-opacity:1;fill-rule:nonzero;stroke:none;stroke-width:0.0352777"
       d="m -74.09102,-41.133265 c 0,0 -2.137481,2.555875 -0.315031,4.694414 0,0 1.676048,-1.304219 0.315031,-4.694414" />
    <path
       id="path424"
       style="fill:#419c63;fill-opacity:1;fill-rule:nonzero;stroke:none;stroke-width:0.0352777"
       d="m -70.883565,-36.073726 c 0,0 0.803628,-2.784475 5.445831,-1.626658 0,0 -2.297642,2.442986 -5.445831,1.626658" />
    <path
       id="path426"
       style="fill:#419c63;fill-opacity:1;fill-rule:nonzero;stroke:none;stroke-width:0.0352777"
       d="m -77.637142,-30.376013 c 0,0 -0.993775,-4.497916 -6.550378,-6.062838 0,0 2.383367,5.293078 6.550378,6.062838" />
    <path
       id="path428"
       style="fill:#419c63;fill-opacity:1;fill-rule:nonzero;stroke:none;stroke-width:0.0352777"
       d="m -74.848081,-27.605648 c 0,0 -0.08573,-4.086577 4.662311,-5.547077 0,0 -0.719667,4.730396 -4.662311,5.547077" />
    <path
       id="path430"
       style="fill:#419c63;fill-opacity:1;fill-rule:nonzero;stroke:none;stroke-width:0.0352777"
       d="m -82.650114,-30.376013 c 0,0 1.448858,4.358217 6.566252,3.789892 0,0 -1.246011,-3.933825 -6.566252,-3.789892" />
    <path
       id="path432"
       style="fill:#eb8c7a;fill-opacity:1;fill-rule:nonzero;stroke:none;stroke-width:0.0352777"
       d="m -72.402273,-17.696121 c -0.461433,-2.680406 -1.733197,-4.717698 -2.224264,-5.427133 v -1.090084 c 0,-0.378531 -0.306916,-0.6858 -0.6858,-0.6858 h -0.0032 c -0.378883,0 -0.6858,0.307269 -0.6858,0.6858 v 1.099257 c -0.496005,0.71755 -1.758597,2.748491 -2.217913,5.41796 -0.431448,2.50331 -0.293159,5.367867 0.84455,5.367867 0.426508,0 1.171927,0 1.726141,0 0.404636,0 0.708025,0 0.708025,0 0.543631,0 1.270353,0 1.693686,0 1.137708,0 1.275645,-2.864557 0.84455,-5.367867" />
    <path
       id="path434"
       style="fill:#ebe9da;fill-opacity:1;fill-rule:nonzero;stroke:none;stroke-width:0.0352777"
       d="m -61.140901,-16.029246 v 3.433233 l -8.328377,-0.101248 -0.441325,-0.504825 0.170744,-2.726266 c 0,0 1.281289,-0.214488 1.323975,-0.214488 0.04269,0 7.274983,0.113594 7.274983,0.113594" />
    <path
       id="path436"
       style="fill:#9ca6ab;fill-opacity:1;fill-rule:nonzero;stroke:none;stroke-width:0.0352777"
       d="m -60.465331,-12.07884 h -8.67022 c -0.868539,0 -1.57233,-0.624064 -1.57233,-1.394179 v -1.805869 c 0,-0.76976 0.703791,-1.394177 1.57233,-1.394177 h 8.656461 c 0.168981,0 0.306211,0.121709 0.306211,0.271638 v 0.150283 c 0,0.185563 -0.169333,0.33514 -0.378177,0.33514 h -7.992886 c -0.503061,0 -0.911225,0.36195 -0.911225,0.808214 v 1.413227 c 0,0.446265 0.408164,0.807861 0.911225,0.807861 h 8.011936 c 0.198261,0 0.359127,0.142875 0.359127,0.318558 v 0.230013 c 0,0.143227 -0.13088,0.259291 -0.292452,0.259291" />
    <path
       id="path438"
       style="fill:#e4e0c8;fill-opacity:1;fill-rule:nonzero;stroke:none;stroke-width:0.0352777"
       d="m -59.92029,-18.747046 h -8.588727 v 1.84291 h 8.588727 v -1.84291" />
    <path
       id="path440"
       style="fill:#d15b49;fill-opacity:1;fill-rule:nonzero;stroke:none;stroke-width:0.0352777"
       d="m -59.398532,-16.727746 h -9.110485 c -0.09737,0 -0.176389,-0.07902 -0.176389,-0.17639 v -1.843262 c 0,-0.09702 0.07902,-0.17639 0.176389,-0.17639 h 9.110485 c 0.09737,0 0.17639,0.07937 0.17639,0.17639 0,0.09772 -0.07902,0.176387 -0.17639,0.176387 h -8.934096 v 1.490488 h 8.934096 c 0.09737,0 0.17639,0.07867 0.17639,0.176387 0,0.09737 -0.07902,0.17639 -0.17639,0.17639" />
    <path
       id="path442"
       style="fill:#105762;fill-opacity:1;fill-rule:nonzero;stroke:none;stroke-width:0.0352777"
       d="m -60.073748,-18.93684 h -9.945158 v -1.495073 h 9.945158 v 1.495073" />
  </g>
</svg>
