<?xml version="1.0" encoding="utf-8"?>
<!-- Generator: Adobe Illustrator 22.0.1, SVG Export Plug-In . SVG Version: 6.00 Build 0)  -->
<svg version="1.1" id="Layer_1" xmlns="http://www.w3.org/2000/svg" xmlns:xlink="http://www.w3.org/1999/xlink" x="0px" y="0px"
	 viewBox="0 0 530.7 238.6" style="enable-background:new 0 0 530.7 238.6;" xml:space="preserve">
<style type="text/css">
	.st0{fill:#EA6E5E;}
	.st1{fill:#7DCCCC;}
	.st2{fill:#F3C144;}
	.st3{fill:#F7DCA6;}
	.st4{fill:#72888E;}
</style>
<g>
	<path class="st0" d="M228.5,123.9L88.2,151.1c0,0,0,0,0,0l-2.2,0.4l-70.3,13.6c-7.3,1.4-12,8.4-10.6,15.7l1.4,7.2
		c1.4,7.3,8.4,12,15.7,10.6L206,163l19.3-33.5L228.5,123.9z"/>
	<path class="st0" d="M529.1,79.2c-1.4-7.3-8.4-12-15.7-10.6l-215,41.7l11.1,19.2l6.9,12l203.5-39.5c7.3-1.4,12-8.4,10.6-15.7
		L529.1,79.2z"/>
	<path class="st1" d="M89.8,150.9c8.1-1.6,13.4-9.4,11.8-17.5c-1.6-8.1-9.5-13.4-17.5-11.9l-40.3,7.8L28,100.8
		C24,93.6,15,90.9,7.7,95c-7.2,4-9.8,13.1-5.8,20.3l21.1,38c2.7,4.9,7.8,7.8,13.3,7.7c0.9,0,1.8-0.1,2.7-0.3l48.7-9.4L89.8,150.9
		C89.8,150.9,89.8,150.9,89.8,150.9z"/>
	<path class="st2" d="M128.7,133.5c0.7,3.6,3.9,6.1,7.4,6.1c0.5,0,0.9-0.1,1.3-0.1c4.1-0.8,6.7-4.7,5.9-8.8l-6.2-31.8l-14.7,2.9
		L128.7,133.5z"/>
	<path class="st3" d="M107.5,104.5c0.7,0,1.3-0.1,2-0.2l13-2.5l14.7-2.9l13.1-2.5c6.1-1.2,10.1-7.1,8.9-13.2c-1.2-6.1-7-10-13.2-8.9
		l-40.8,7.9c-6.1,1.2-10.1,7.1-8.9,13.2C97.4,100.8,102.2,104.5,107.5,104.5z"/>
	<path class="st1" d="M438.2,82.9c0.9,0,1.8-0.1,2.7-0.3l50.9-9.9c6.4-1.2,11.2-6.4,12-12.9l5.3-43.1c1-8.2-4.8-15.7-13-16.7
		c-8.2-0.9-15.7,4.8-16.7,13l-4,32.3l-40.2,7.8c-8.1,1.6-13.4,9.4-11.9,17.5C424.8,78,431.1,83,438.2,82.9z"/>
	<path class="st2" d="M381.1,84.7c0.7,3.6,3.9,6.1,7.4,6.1c0.5,0,0.9-0.1,1.3-0.1c4.1-0.8,6.7-4.7,5.9-8.8l-6.2-31.8L375,52.9
		L381.1,84.7z"/>
	<path class="st3" d="M359.9,55.7c0.7,0,1.3-0.1,2-0.2l13-2.5l14.7-2.9l13-2.5c6.1-1.2,10.1-7.1,8.9-13.2c-1.2-6.1-7.1-10-13.2-8.9
		l-40.8,7.9c-6.1,1.2-10.1,7.1-8.9,13.2C349.8,52,354.6,55.7,359.9,55.7z"/>
	<path class="st1" d="M298.4,110.3l-17-29.5c-6.2-10.8-21.7-10.8-27.9,0l-24.9,43.1l-3.3,5.6L206,163l-8.8,15.2
		c-6.2,10.8,1.6,24.2,14,24.2h56.2h56.2c12.4,0,20.2-13.4,14-24.2l-21.2-36.7l-6.9-12L298.4,110.3z M267.4,155.9
		c-11.5,0-20.8-9.3-20.8-20.8c0-11.5,9.3-20.8,20.8-20.8s20.8,9.3,20.8,20.8C288.1,146.6,278.8,155.9,267.4,155.9z"/>
	<path class="st4" d="M211.1,202.4h-14c-7.4,0-13.4,6-13.4,13.4v9.4c0,7.4,6,13.4,13.4,13.4h140.5c7.4,0,13.4-6,13.4-13.4v-9.4
		c0-7.4-6-13.4-13.4-13.4h-14h-56.2H211.1z"/>
	<path class="st2" d="M267.4,114.4c-11.5,0-20.8,9.3-20.8,20.8c0,11.5,9.3,20.8,20.8,20.8s20.8-9.3,20.8-20.8
		C288.1,123.7,278.8,114.4,267.4,114.4z"/>
</g>
</svg>
